<svg width="210" height="40" viewBox="0 0 210 40" fill="none" xmlns="http://www.w3.org/2000/svg">
<rect x="92.0957" y="0.691162" width="117" height="39" rx="9" fill="#BA68C8"/>
<path d="M7.28711 13.1687H2.17236V11.0203H14.8433V13.1687H9.72852V28.0125H7.28711V13.1687ZM17.9194 11.0203H22.7412C25.9557 11.0203 28.0269 11.9724 28.9546 13.8767C29.2882 14.5766 29.4551 15.366 29.4551 16.2449C29.4551 17.1156 29.3371 17.8521 29.1011 18.4543C28.8732 19.0566 28.5518 19.5733 28.1367 20.0046C27.3392 20.8347 26.2406 21.38 24.8408 21.6404C25.4186 23.4226 26.3993 24.6514 27.7827 25.3269C28.2384 25.5548 28.6209 25.6768 28.9302 25.6931C29.451 25.7094 29.8172 25.6931 30.0288 25.6443V28.0125H29.4795C27.6484 28.0125 26.09 27.3614 24.8042 26.0593C23.673 24.9281 22.9121 23.504 22.5215 21.7869H20.3608V28.0125H17.9194V11.0203ZM22.5825 19.8337C24.0555 19.8337 25.146 19.5489 25.854 18.9792C26.562 18.4096 26.916 17.5225 26.916 16.3181C26.916 14.7149 26.1714 13.6814 24.6821 13.2175C24.1613 13.0548 23.5306 12.9734 22.79 12.9734H20.3608V19.8337H22.5825ZM37.939 11.0203H39.6113L46.7769 28.0125H44.2378L42.5166 23.74H34.9727L33.2637 28.0125H30.7734L37.939 11.0203ZM41.7354 21.7869L38.7568 14.3406L35.7661 21.7869H41.7354ZM46.5815 11.0203H49.1206L54.4551 24.9851L59.7651 11.0203H62.3042L55.6147 28.0125H53.271L46.5815 11.0203ZM63.647 11.0203H74.6211V13.1443H66.0884V18.1492H72.5459V20.2H66.0884V25.864H74.6211V28.0125H63.647V11.0203ZM78.2466 11.0203H80.688V25.864H87.9634V28.0125H78.2466V11.0203Z" fill="#565555"/>
<path d="M99.2915 11.0203H104.113C107.328 11.0203 109.399 11.9724 110.327 13.8767C110.66 14.5766 110.827 15.4067 110.827 16.3669C110.827 17.3272 110.656 18.1492 110.314 18.8328C109.973 19.5164 109.513 20.0779 108.935 20.5173C107.812 21.3637 106.311 21.7869 104.431 21.7869H101.733V28.0125H99.2915V11.0203ZM103.955 19.8337C105.428 19.8337 106.518 19.5489 107.226 18.9792C107.934 18.4096 108.288 17.5225 108.288 16.3181C108.288 14.7149 107.543 13.6814 106.054 13.2175C105.533 13.0548 104.903 12.9734 104.162 12.9734H101.733V19.8337H103.955ZM113.696 11.0203H116.137V25.864H123.413V28.0125H113.696V11.0203ZM131.835 11.0203H133.508L140.673 28.0125H138.134L136.413 23.74H128.869L127.16 28.0125H124.67L131.835 11.0203ZM135.632 21.7869L132.653 14.3406L129.663 21.7869H135.632ZM142.883 11.0203H144.641L153.515 23.5569L153.381 21.7991V11.0203H155.798V28.0125H154.052L146.643 17.5999L145.166 15.4758L145.3 17.5999V28.0125H142.883V11.0203ZM159.558 11.0203H161.315L170.19 23.5569L170.056 21.7991V11.0203H172.473V28.0125H170.727L163.317 17.5999L161.84 15.4758L161.975 17.5999V28.0125H159.558V11.0203ZM176.245 11.0203H187.219V13.1443H178.686V18.1492H185.144V20.2H178.686V25.864H187.219V28.0125H176.245V11.0203ZM191.04 11.0203H195.861C199.076 11.0203 201.147 11.9724 202.075 13.8767C202.408 14.5766 202.575 15.366 202.575 16.2449C202.575 17.1156 202.457 17.8521 202.221 18.4543C201.993 19.0566 201.672 19.5733 201.257 20.0046C200.459 20.8347 199.361 21.38 197.961 21.6404C198.539 23.4226 199.519 24.6514 200.903 25.3269C201.359 25.5548 201.741 25.6768 202.05 25.6931C202.571 25.7094 202.937 25.6931 203.149 25.6443V28.0125H202.6C200.769 28.0125 199.21 27.3614 197.924 26.0593C196.793 24.9281 196.032 23.504 195.642 21.7869H193.481V28.0125H191.04V11.0203ZM195.703 19.8337C197.176 19.8337 198.266 19.5489 198.974 18.9792C199.682 18.4096 200.036 17.5225 200.036 16.3181C200.036 14.7149 199.292 13.6814 197.802 13.2175C197.281 13.0548 196.651 12.9734 195.91 12.9734H193.481V19.8337H195.703Z" fill="white"/>
</svg>
