<svg width="462" height="462" viewBox="0 0 462 462" fill="none" xmlns="http://www.w3.org/2000/svg">
<path d="M462 353.338H0V353.569H462V353.338Z" fill="#EBEBEB"/>
<path d="M402.559 368.205H385.105V368.436H402.559V368.205Z" fill="#EBEBEB"/>
<path d="M298.008 366.597H270.778V366.828H298.008V366.597Z" fill="#EBEBEB"/>
<path d="M384.181 359.63H340.651V359.861H384.181V359.63Z" fill="#EBEBEB"/>
<path d="M58.6093 361.182H48.473V361.413H58.6093V361.182Z" fill="#EBEBEB"/>
<path d="M102.462 361.182H66.8329V361.413H102.462V361.182Z" fill="#EBEBEB"/>
<path d="M208.039 365.082H158.004V365.313H208.039V365.082Z" fill="#EBEBEB"/>
<path d="M218.988 312.127H40.5728C39.1751 312.125 37.8355 311.568 36.8481 310.579C35.8606 309.589 35.306 308.249 35.306 306.851V56.0498C35.3182 54.6601 35.8782 53.3314 36.8643 52.3521C37.8504 51.3729 39.1831 50.8223 40.5728 50.8199H218.988C220.387 50.8199 221.729 51.3758 222.719 52.3653C223.708 53.3547 224.264 54.6967 224.264 56.096V306.851C224.264 308.25 223.708 309.592 222.719 310.582C221.729 311.571 220.387 312.127 218.988 312.127ZM40.5728 51.0047C39.2364 51.0072 37.9556 51.5398 37.0114 52.4857C36.0673 53.4315 35.537 54.7134 35.537 56.0498V306.851C35.537 308.188 36.0673 309.469 37.0114 310.415C37.9556 311.361 39.2364 311.894 40.5728 311.896H218.988C220.325 311.894 221.607 311.361 222.553 310.416C223.498 309.47 224.031 308.188 224.033 306.851V56.0498C224.031 54.7125 223.498 53.4307 222.553 52.4851C221.607 51.5395 220.325 51.0072 218.988 51.0047H40.5728Z" fill="#EBEBEB"/>
<path d="M418.858 312.127H240.434C239.035 312.125 237.695 311.568 236.706 310.579C235.717 309.59 235.16 308.25 235.158 306.851V56.0498C235.173 54.6593 235.735 53.3305 236.722 52.3516C237.71 51.3726 239.043 50.8223 240.434 50.8199H418.858C420.247 50.8248 421.577 51.3764 422.561 52.3554C423.545 53.3343 424.104 54.6617 424.116 56.0498V306.851C424.116 308.247 423.563 309.586 422.577 310.575C421.592 311.564 420.254 312.122 418.858 312.127ZM240.434 51.0047C239.097 51.0072 237.815 51.5395 236.869 52.4851C235.924 53.4307 235.391 54.7125 235.389 56.0498V306.851C235.391 308.188 235.924 309.47 236.869 310.416C237.815 311.361 239.097 311.894 240.434 311.896H418.858C420.196 311.894 421.477 311.361 422.423 310.416C423.369 309.47 423.901 308.188 423.903 306.851V56.0498C423.901 54.7125 423.369 53.4307 422.423 52.4851C421.477 51.5395 420.196 51.0072 418.858 51.0047H240.434Z" fill="#EBEBEB"/>
<path d="M274.206 69.6142L273.421 71.1942C273.376 71.285 273.309 71.3635 273.227 71.423C273.145 71.4825 273.05 71.5213 272.95 71.5361L271.203 71.7948C271.087 71.8112 270.978 71.8598 270.888 71.9352C270.797 72.0106 270.73 72.1098 270.694 72.2214C270.657 72.333 270.653 72.4526 270.681 72.5666C270.709 72.6807 270.768 72.7846 270.852 72.8666L272.118 74.1048C272.19 74.1762 272.244 74.2636 272.277 74.3599C272.309 74.4563 272.318 74.5588 272.303 74.6592L271.998 76.3963C271.976 76.5138 271.987 76.6351 272.032 76.7462C272.076 76.8572 272.151 76.9532 272.248 77.0231C272.345 77.0929 272.46 77.1337 272.579 77.1405C272.699 77.1473 272.817 77.1199 272.922 77.0616L274.483 76.2392C274.575 76.1936 274.676 76.1699 274.779 76.1699C274.882 76.1699 274.983 76.1936 275.075 76.2392L276.636 77.0616C276.741 77.1199 276.859 77.1473 276.979 77.1405C277.098 77.1337 277.213 77.0929 277.31 77.0231C277.407 76.9532 277.482 76.8572 277.526 76.7462C277.571 76.6351 277.583 76.5138 277.56 76.3963L277.265 74.6592C277.245 74.5587 277.251 74.4548 277.284 74.3576C277.316 74.2604 277.373 74.1733 277.449 74.1048L278.706 72.8666C278.79 72.7846 278.849 72.6807 278.877 72.5666C278.905 72.4526 278.901 72.333 278.864 72.2214C278.828 72.1098 278.761 72.0106 278.671 71.9352C278.581 71.8598 278.471 71.8112 278.355 71.7948L276.609 71.5361C276.508 71.5213 276.413 71.4825 276.331 71.423C276.249 71.3635 276.183 71.285 276.137 71.1942L275.352 69.6142C275.302 69.5038 275.222 69.4102 275.12 69.3445C275.019 69.2788 274.9 69.2439 274.779 69.2439C274.658 69.2439 274.54 69.2788 274.438 69.3445C274.336 69.4102 274.256 69.5038 274.206 69.6142Z" fill="#F5F5F5"/>
<path d="M396.544 283.132L395.361 284.001C395.293 284.051 395.214 284.083 395.13 284.096C395.046 284.109 394.961 284.102 394.881 284.075L393.485 283.603C393.393 283.57 393.294 283.563 393.198 283.584C393.103 283.605 393.015 283.653 392.946 283.721C392.876 283.79 392.827 283.877 392.805 283.972C392.783 284.067 392.788 284.167 392.82 284.259L393.282 285.655C393.31 285.735 393.318 285.82 393.305 285.904C393.292 285.988 393.259 286.067 393.208 286.135L392.284 287.309C392.227 287.388 392.192 287.481 392.184 287.579C392.176 287.677 392.195 287.775 392.239 287.862C392.283 287.95 392.35 288.024 392.433 288.076C392.516 288.128 392.611 288.157 392.709 288.159H394.178C394.264 288.158 394.349 288.179 394.425 288.219C394.501 288.259 394.565 288.318 394.613 288.39L395.454 289.591C395.511 289.669 395.588 289.729 395.678 289.766C395.767 289.802 395.865 289.813 395.961 289.798C396.056 289.783 396.145 289.742 396.219 289.679C396.292 289.616 396.347 289.535 396.378 289.443L396.821 288.048C396.846 287.966 396.89 287.892 396.949 287.831C397.009 287.77 397.082 287.724 397.163 287.697L398.567 287.272C398.66 287.242 398.742 287.188 398.806 287.115C398.87 287.042 398.912 286.953 398.928 286.858C398.944 286.762 398.934 286.664 398.898 286.574C398.862 286.484 398.802 286.406 398.724 286.348L397.533 285.497C397.461 285.45 397.404 285.385 397.365 285.309C397.326 285.233 397.307 285.149 397.311 285.063V283.594C397.312 283.503 397.29 283.414 397.246 283.335C397.202 283.255 397.138 283.189 397.06 283.142C396.983 283.095 396.894 283.07 396.803 283.068C396.713 283.066 396.623 283.088 396.544 283.132Z" fill="#F0F0F0"/>
<path d="M388.422 81.9588L388.08 83.6867C388.059 83.7863 388.013 83.8792 387.947 83.9566C387.881 84.0341 387.796 84.0938 387.701 84.1302L386.066 84.7862C385.956 84.8288 385.86 84.9015 385.789 84.9961C385.718 85.0907 385.676 85.2032 385.666 85.3209C385.657 85.4385 385.68 85.5565 385.735 85.6613C385.789 85.7662 385.872 85.8535 385.973 85.9135L387.489 86.8375C387.578 86.8886 387.653 86.9608 387.708 87.0478C387.763 87.1348 387.795 87.2339 387.803 87.3364L387.914 89.1013C387.924 89.2184 387.967 89.3303 388.037 89.4247C388.107 89.5192 388.201 89.5924 388.31 89.6364C388.419 89.6804 388.538 89.6934 388.654 89.6739C388.77 89.6545 388.878 89.6034 388.967 89.5263L390.288 88.3621C390.366 88.2953 390.459 88.2478 390.558 88.2237C390.658 88.1996 390.762 88.1996 390.861 88.2235L392.571 88.6578C392.685 88.6887 392.806 88.6866 392.919 88.6518C393.033 88.617 393.134 88.5508 393.211 88.461C393.288 88.3711 393.339 88.2612 393.356 88.144C393.374 88.0268 393.358 87.907 393.31 87.7984L392.608 86.1722C392.56 86.0826 392.535 85.9827 392.535 85.8812C392.535 85.7796 392.56 85.6797 392.608 85.5901L393.532 84.0932C393.585 83.994 393.611 83.8822 393.606 83.7696C393.601 83.657 393.566 83.5478 393.505 83.4533C393.444 83.3589 393.358 83.2826 393.257 83.2327C393.156 83.1827 393.043 83.1608 392.931 83.1692L391.175 83.3355C391.073 83.344 390.969 83.3274 390.874 83.2872C390.779 83.2469 390.696 83.1843 390.63 83.1045L389.503 81.7555C389.431 81.6689 389.338 81.6031 389.232 81.5648C389.127 81.5266 389.013 81.5174 388.902 81.5382C388.792 81.5589 388.689 81.6089 388.605 81.6829C388.52 81.7568 388.457 81.8521 388.422 81.9588Z" fill="#F5F5F5"/>
<path d="M85.1558 143.044L84.4166 143.793C84.3753 143.838 84.3227 143.871 84.2642 143.889C84.2057 143.907 84.1434 143.909 84.084 143.894L83.0491 143.719C82.9795 143.706 82.9076 143.713 82.8417 143.739C82.7757 143.764 82.7183 143.808 82.676 143.865C82.6337 143.922 82.6081 143.989 82.6022 144.06C82.5963 144.13 82.6102 144.201 82.6425 144.264L83.1322 145.188C83.1598 145.242 83.1742 145.303 83.1742 145.364C83.1742 145.425 83.1598 145.485 83.1322 145.539L82.6333 146.463C82.5979 146.525 82.5811 146.596 82.585 146.667C82.589 146.738 82.6134 146.807 82.6554 146.864C82.6974 146.922 82.7552 146.966 82.8217 146.992C82.8883 147.017 82.9608 147.023 83.0306 147.008L84.0655 146.833C84.1257 146.825 84.187 146.83 84.2447 146.85C84.3024 146.869 84.3549 146.901 84.3981 146.944L85.1373 147.711C85.1856 147.762 85.2478 147.799 85.3164 147.816C85.385 147.834 85.4572 147.831 85.5243 147.809C85.5915 147.787 85.6508 147.745 85.6952 147.69C85.7396 147.635 85.7673 147.568 85.7749 147.498L85.932 146.463C85.9412 146.402 85.9653 146.343 86.0024 146.293C86.0395 146.243 86.0883 146.203 86.1445 146.177L87.0685 145.715C87.1306 145.683 87.1827 145.635 87.2191 145.575C87.2555 145.516 87.2748 145.447 87.2748 145.377C87.2748 145.308 87.2555 145.239 87.2191 145.18C87.1827 145.12 87.1306 145.072 87.0685 145.04L86.1445 144.569C86.0905 144.541 86.0439 144.5 86.0086 144.45C85.9733 144.4 85.9502 144.343 85.9412 144.283L85.8026 143.22C85.7875 143.153 85.7544 143.091 85.7067 143.041C85.6591 142.991 85.5987 142.955 85.5322 142.937C85.4656 142.919 85.3954 142.919 85.3291 142.938C85.2627 142.957 85.2028 142.994 85.1558 143.044Z" fill="#F5F5F5"/>
<path d="M362.069 273.227L361.598 274.151C361.572 274.207 361.531 274.256 361.482 274.293C361.432 274.33 361.373 274.354 361.312 274.363L360.268 274.511C360.198 274.522 360.133 274.552 360.08 274.599C360.026 274.645 359.987 274.704 359.966 274.772C359.945 274.839 359.943 274.911 359.96 274.979C359.978 275.047 360.014 275.109 360.064 275.158L360.813 275.888C360.857 275.932 360.891 275.986 360.91 276.045C360.93 276.105 360.934 276.168 360.924 276.23L360.748 277.265C360.737 277.334 360.746 277.404 360.772 277.469C360.799 277.533 360.843 277.589 360.899 277.63C360.956 277.671 361.022 277.696 361.092 277.702C361.161 277.707 361.231 277.693 361.293 277.662L362.217 277.172C362.272 277.145 362.332 277.13 362.393 277.13C362.454 277.13 362.514 277.145 362.568 277.172L363.492 277.662C363.555 277.693 363.624 277.707 363.694 277.702C363.763 277.696 363.83 277.671 363.887 277.63C363.943 277.589 363.987 277.533 364.013 277.469C364.04 277.404 364.048 277.334 364.038 277.265L363.862 276.23C363.852 276.168 363.856 276.105 363.875 276.045C363.895 275.986 363.928 275.932 363.973 275.888L364.731 275.158C364.781 275.108 364.817 275.046 364.834 274.977C364.851 274.908 364.848 274.836 364.826 274.768C364.804 274.701 364.763 274.641 364.709 274.596C364.654 274.55 364.588 274.521 364.518 274.511L363.474 274.363C363.413 274.353 363.355 274.328 363.306 274.291C363.256 274.254 363.215 274.206 363.187 274.151L362.725 273.227C362.692 273.169 362.644 273.121 362.587 273.088C362.529 273.055 362.464 273.037 362.397 273.037C362.331 273.037 362.266 273.055 362.208 273.088C362.151 273.121 362.103 273.169 362.069 273.227Z" fill="#F5F5F5"/>
<path d="M126.911 69.7158L126.791 70.7599C126.788 70.8219 126.768 70.882 126.734 70.9339C126.7 70.9859 126.653 71.0278 126.597 71.0556L125.673 71.5545C125.611 71.5863 125.559 71.6346 125.523 71.6941C125.486 71.7536 125.467 71.822 125.467 71.8918C125.467 71.9615 125.486 72.0299 125.523 72.0894C125.559 72.149 125.611 72.1973 125.673 72.229L126.597 72.6633C126.653 72.6892 126.702 72.7277 126.741 72.7758C126.779 72.8239 126.806 72.8803 126.819 72.9405L127.004 73.9754C127.016 74.0454 127.048 74.1104 127.096 74.1631C127.144 74.2157 127.205 74.2539 127.274 74.2732C127.342 74.2924 127.415 74.2921 127.483 74.2721C127.551 74.2521 127.613 74.2133 127.66 74.1602L128.362 73.384C128.404 73.3391 128.456 73.3048 128.514 73.2839C128.572 73.263 128.634 73.2562 128.695 73.2639L129.739 73.4025C129.809 73.4118 129.88 73.4014 129.944 73.3724C130.009 73.3434 130.064 73.2969 130.103 73.2383C130.143 73.1797 130.165 73.1112 130.167 73.0407C130.17 72.9701 130.153 72.9002 130.118 72.8389L129.591 71.9149C129.563 71.8605 129.549 71.8003 129.549 71.7393C129.549 71.6783 129.563 71.6182 129.591 71.5638L130.053 70.6398C130.082 70.5758 130.093 70.5051 130.084 70.4355C130.075 70.3659 130.047 70.3001 130.003 70.2455C129.959 70.1908 129.9 70.1495 129.834 70.1262C129.768 70.1028 129.697 70.0983 129.628 70.1131L128.602 70.3256C128.542 70.3384 128.48 70.3367 128.42 70.3207C128.361 70.3046 128.306 70.2746 128.26 70.2332L127.512 69.4848C127.461 69.4459 127.4 69.4208 127.336 69.4118C127.273 69.4028 127.208 69.4102 127.147 69.4333C127.087 69.4565 127.034 69.4945 126.993 69.5439C126.951 69.5934 126.923 69.6525 126.911 69.7158Z" fill="#EBEBEB"/>
<path d="M98.2027 285.682L98.4245 287.53C98.4356 287.635 98.4212 287.741 98.3826 287.839C98.344 287.937 98.2823 288.025 98.2027 288.094L96.8352 289.304C96.7459 289.386 96.6806 289.49 96.6467 289.606C96.6128 289.722 96.6116 289.845 96.6431 289.961C96.6746 290.078 96.7377 290.183 96.8254 290.266C96.9131 290.349 97.022 290.407 97.1401 290.432L98.9327 290.783C99.0371 290.804 99.1348 290.85 99.217 290.918C99.2992 290.985 99.3634 291.072 99.4039 291.171L100.134 292.843C100.181 292.955 100.26 293.052 100.36 293.121C100.459 293.191 100.577 293.231 100.699 293.237C100.82 293.243 100.941 293.214 101.047 293.154C101.153 293.094 101.24 293.006 101.298 292.899L102.222 291.309C102.274 291.215 102.348 291.136 102.439 291.078C102.529 291.02 102.633 290.985 102.74 290.977L104.588 290.801C104.709 290.791 104.826 290.747 104.923 290.674C105.021 290.601 105.096 290.501 105.139 290.387C105.182 290.273 105.193 290.149 105.169 290.029C105.145 289.91 105.087 289.799 105.003 289.711L103.765 288.371C103.693 288.293 103.641 288.198 103.614 288.095C103.586 287.992 103.584 287.884 103.608 287.78L104.005 286.006C104.033 285.885 104.027 285.759 103.986 285.642C103.946 285.525 103.873 285.422 103.776 285.345C103.68 285.268 103.563 285.219 103.44 285.206C103.317 285.192 103.193 285.213 103.081 285.267L101.428 286.033C101.334 286.084 101.229 286.11 101.123 286.11C101.016 286.11 100.911 286.084 100.818 286.033L99.2469 285.109C99.1461 285.035 99.0262 284.991 98.9012 284.983C98.7762 284.974 98.6515 285.002 98.5417 285.062C98.4319 285.122 98.3416 285.213 98.2815 285.323C98.2215 285.433 98.1941 285.557 98.2027 285.682Z" fill="#EBEBEB"/>
<path d="M178.831 92.2983C178.831 92.5417 178.903 92.7797 179.039 92.982C179.174 93.1843 179.367 93.3418 179.592 93.4345C179.817 93.5273 180.064 93.5511 180.303 93.5029C180.542 93.4547 180.761 93.3367 180.932 93.164C181.104 92.9912 181.22 92.7713 181.266 92.5323C181.313 92.2933 181.287 92.046 181.193 91.8216C181.098 91.5972 180.939 91.4059 180.736 91.272C180.533 91.1381 180.294 91.0675 180.051 91.0694C179.89 91.0694 179.73 91.1012 179.582 91.1631C179.433 91.225 179.298 91.3156 179.185 91.4299C179.072 91.5441 178.982 91.6797 178.921 91.8287C178.86 91.9778 178.83 92.1373 178.831 92.2983Z" fill="#F0F0F0"/>
<path d="M139.801 330.487C139.801 330.73 139.873 330.968 140.008 331.17C140.143 331.372 140.335 331.529 140.56 331.622C140.784 331.715 141.032 331.74 141.27 331.692C141.508 331.645 141.727 331.528 141.899 331.356C142.071 331.184 142.188 330.965 142.235 330.727C142.283 330.488 142.259 330.241 142.166 330.017C142.073 329.792 141.915 329.6 141.713 329.465C141.511 329.33 141.273 329.258 141.03 329.258C140.704 329.258 140.392 329.388 140.161 329.618C139.931 329.848 139.801 330.161 139.801 330.487Z" fill="#F5F5F5"/>
<path d="M164.167 70.1501C164.167 71.0382 164.43 71.9065 164.924 72.6449C165.417 73.3834 166.119 73.959 166.939 74.2989C167.76 74.6388 168.663 74.7277 169.534 74.5544C170.405 74.3812 171.205 73.9535 171.833 73.3254C172.461 72.6974 172.889 71.8973 173.062 71.0262C173.235 70.1551 173.146 69.2521 172.807 68.4316C172.467 67.611 171.891 66.9097 171.153 66.4162C170.414 65.9228 169.546 65.6594 168.658 65.6594C168.068 65.6582 167.483 65.7735 166.938 65.9988C166.392 66.224 165.897 66.5548 165.48 66.972C165.062 67.3892 164.732 67.8848 164.506 68.4301C164.281 68.9755 164.166 69.56 164.167 70.1501Z" fill="#F0F0F0"/>
<path d="M398.068 137.907C398.068 138.399 398.214 138.879 398.487 139.288C398.76 139.697 399.149 140.015 399.603 140.203C400.057 140.391 400.557 140.441 401.039 140.345C401.521 140.249 401.964 140.012 402.312 139.665C402.659 139.317 402.896 138.874 402.992 138.392C403.088 137.91 403.039 137.41 402.85 136.956C402.662 136.502 402.344 136.113 401.935 135.84C401.526 135.567 401.046 135.421 400.554 135.421C399.896 135.424 399.265 135.686 398.799 136.152C398.334 136.618 398.071 137.248 398.068 137.907Z" fill="#F0F0F0"/>
<path d="M51.818 290.33C52.5069 290.33 53.0654 289.772 53.0654 289.083C53.0654 288.394 52.5069 287.835 51.818 287.835C51.129 287.835 50.5706 288.394 50.5706 289.083C50.5706 289.772 51.129 290.33 51.818 290.33Z" fill="#F0F0F0"/>
<path d="M355.463 336.04C355.463 336.485 355.595 336.919 355.842 337.289C356.089 337.658 356.44 337.946 356.851 338.116C357.262 338.285 357.714 338.329 358.15 338.242C358.585 338.154 358.985 337.94 359.299 337.625C359.613 337.31 359.826 336.909 359.911 336.473C359.997 336.036 359.951 335.585 359.78 335.175C359.608 334.764 359.319 334.414 358.949 334.169C358.578 333.923 358.143 333.793 357.699 333.795C357.404 333.795 357.113 333.853 356.841 333.966C356.569 334.079 356.322 334.245 356.114 334.453C355.907 334.662 355.742 334.909 355.63 335.182C355.519 335.454 355.462 335.746 355.463 336.04Z" fill="#F0F0F0"/>
<path d="M59.4778 115.177C62.6411 117.037 66.1399 118.256 69.7744 118.765C73.4089 119.273 77.1079 119.06 80.6602 118.138C84.2125 117.217 87.5485 115.605 90.4776 113.394C93.4067 111.183 95.8716 108.416 97.7314 105.253C98.0548 104.708 98.3598 104.153 98.6554 103.599C93.5255 104.753 88.1998 104.719 83.0848 103.5C77.9699 102.282 73.2011 99.9103 69.1424 96.5675C65.0838 93.2246 61.8426 88.9986 59.6664 84.212C57.4902 79.4254 56.4365 74.2048 56.5857 68.9489C52.974 71.7444 50.1022 75.3821 48.2211 79.5439C46.3401 83.7057 45.5072 88.265 45.7953 92.8231C46.0834 97.3812 47.4836 101.799 49.8736 105.691C52.2637 109.583 55.5707 112.83 59.5056 115.149L59.4778 115.177Z" fill="#F5F5F5"/>
<path d="M54.2018 90.0715C54.9539 90.6263 55.8196 91.0077 56.7366 91.1882C57.6536 91.3687 58.5992 91.3439 59.5055 91.1156C56.349 90.0189 53.596 87.9968 51.6053 85.3129C51.6587 86.2488 51.9193 87.1612 52.3683 87.9842C52.8174 88.8071 53.4436 89.5201 54.2018 90.0715Z" fill="#F0F0F0"/>
<path d="M81.5985 112.247C82.4941 111.978 83.3194 111.515 84.0157 110.89C84.712 110.266 85.2622 109.496 85.6271 108.635C84.2497 109.564 82.7385 110.278 81.1457 110.751C79.5548 111.23 77.9007 111.467 76.2393 111.453C77.0196 111.97 77.9043 112.309 78.8304 112.447C79.7565 112.584 80.7015 112.516 81.5985 112.247Z" fill="#F0F0F0"/>
<path d="M59.6165 101.52C60.5504 101.477 61.4633 101.228 62.2894 100.791C63.1155 100.353 63.8341 99.7371 64.3936 98.988C62.8374 99.5637 61.2004 99.8911 59.5426 99.9582C57.8815 100.044 56.2171 99.8726 54.6084 99.45C55.2387 100.143 56.0146 100.688 56.8805 101.046C57.7464 101.404 58.6807 101.566 59.6165 101.52Z" fill="#F0F0F0"/>
<path d="M67.258 111.989C67.8539 112.71 68.6021 113.29 69.4488 113.688C70.2955 114.086 71.2197 114.291 72.1552 114.289C70.7591 113.393 69.512 112.283 68.4592 111C67.3951 109.721 66.532 108.288 65.8997 106.75C65.7247 107.669 65.7558 108.616 65.9906 109.522C66.2255 110.428 66.6584 111.27 67.258 111.989Z" fill="#F0F0F0"/>
<path d="M231 395.065C329.944 395.065 410.154 390.382 410.154 384.606C410.154 378.829 329.944 374.146 231 374.146C132.056 374.146 51.8457 378.829 51.8457 384.606C51.8457 390.382 132.056 395.065 231 395.065Z" fill="#F5F5F5"/>
<path d="M351.235 307.247C405.759 252.723 405.759 164.323 351.235 109.8C296.712 55.276 208.312 55.276 153.788 109.8C99.2643 164.323 99.2643 252.723 153.788 307.247C208.312 361.771 296.712 361.771 351.235 307.247Z" fill="#BA68C8"/>
<path opacity="0.7" d="M351.235 307.247C405.759 252.723 405.759 164.323 351.235 109.8C296.712 55.276 208.312 55.276 153.788 109.8C99.2643 164.323 99.2643 252.723 153.788 307.247C208.312 361.771 296.712 361.771 351.235 307.247Z" fill="white"/>
<g opacity="0.2">
<path d="M388.893 238.531L386.722 233.726L378.757 232.857L372.372 228.866L365.701 225.271L360.157 217.445L352.478 210.894L348.653 221.862L352.7 228.191L359.51 231.97L362.947 239.085L368.639 243.465L374.737 246.08L372.658 253.416L370.524 261.344L368.981 270.122L360.489 269.586L354.188 274.511L347.221 277.024L340.152 274.853L334.054 269.401L326.569 264.264L318.337 259.903L313.717 252.123L310.714 245.599L306.916 238.752L306.777 230.991L306.583 223.238L303.183 216.53L300.559 227.757L297.888 234.567L298.045 242.07L295.19 249.073L291.679 257.389L289.831 265.705L294.71 268.708L302.508 269.3L296.428 276.747L290.884 283.64L284.999 290.302L277.607 295.976L269.143 299.533L260.975 303.654L251.531 305.336L244.758 312.229L235.306 313.809L226.814 318.133L218.064 321.552L208.667 321.644L202.107 318.346L192.774 318.226L196.831 311L199.048 304.606L201.82 295.495L203.28 285.793L205.128 276.452L207.697 268.671L210.7 260.725L207.928 252.095L211.919 243.834L207.392 236.784L202.356 230.704L195.888 225.715L191.841 218.914L188.764 211.993L186.509 204.657L185.364 196.71L182.656 188.274L189.965 181.372L194.326 172.973L201.986 168.168L209.323 168.879L217.639 169.859L225.844 171.485L234.816 170.025L241.783 177.316L250.774 180.18L258.785 184.855L266.74 189.651L274.788 194.428L280.48 202.43L289.166 206.357L297.279 205.433L305.16 206.163L312.922 207.845L322.236 210.811L319.297 199.408L316.378 189.854L310.464 186.897L305.622 180.309L298.655 177.694L292.187 174.756L291.365 167.743L289.212 160.776L287.53 153.384L278.623 149.171L269.124 147.11L260.623 145.484L254.414 150.104L246.265 150.677L237.292 152.044L227.128 143.229L233.282 137.297L233.07 129.194L237.219 123.049L246.985 118.66L253.73 111.12L261.621 112.793L269.078 117.505H278.115L286.68 114.123L295.625 115.389L302.684 111.425L307.609 105.456L313.014 100.115L321.247 98.9419L329.009 102.767H337.158L344.744 104.301L346.99 105.687C364.98 122.233 378.318 143.207 385.67 166.517C393.023 189.826 394.134 214.657 388.893 238.531Z" fill="#BA68C8"/>
<path d="M262.961 312.386L258.877 318.226L249.933 320.166L242.92 322.698L252.945 326.006H261.603L268.801 320.563L269.771 316.276L262.961 312.386Z" fill="#BA68C8"/>
<path d="M158.364 311.388L158.198 311.471C140.899 295.608 127.871 275.647 120.314 253.425L119.621 249.794L118.466 247.54C111.486 223.72 111.02 198.465 117.117 174.405L118.808 180.54L120.841 189.152L125.988 197.209L125.664 206.625L130.053 214.858L130.977 223.839L131.55 231.231L130.487 238.549L126.228 245.377L128.907 254.239L133.259 261.88L135.939 268.496L137.057 277.606L141.677 283.964L143.525 291.762L148.736 297.833L152.34 304.735L158.364 311.388Z" fill="#BA68C8"/>
<path d="M272.737 75.3522L267.267 77.616L260.282 81.6261L253.176 85.396L245.941 88.7686L237.921 90.09L230.39 92.5201L222.832 90.0068L214.996 88.3713L207.466 85.5069L199.76 86.3108L191.804 89.8128L185.336 95.9389L180.328 103.71L171.328 106.99L166.588 114.899L161.451 121.414L160.157 130.025L154.04 136.235L151.444 144.144L146.057 150.714L143.913 158.106L136.955 157.089L129.305 155.639L124.056 153.864C136.003 125.785 156.818 102.392 183.317 87.2606C209.817 72.1295 240.543 66.0937 270.797 70.0761L272.737 75.3522Z" fill="#BA68C8"/>
</g>
<path d="M393.753 162.384C372.557 180.448 325.026 173.407 313.458 169.6C301.889 165.793 320.369 167.854 329.665 165.904C338.96 163.954 342.425 155.869 356.405 162.208C370.385 168.547 370.339 170.395 376.281 163.428C382.222 156.461 405.765 152.155 393.753 162.384Z" fill="white"/>
<path d="M114.844 252.529C128.214 288.14 189.688 311.194 205.987 314.299C222.287 317.403 198.891 307.646 189.05 299.2C179.21 290.755 180.457 278.752 159.566 277.024C138.674 275.297 137.5 277.579 135.015 265.327C132.529 253.074 107.267 232.358 114.844 252.529Z" fill="white"/>
<path d="M212.169 161.072C174.821 153.467 139.228 130.949 135.93 118.697C133.98 111.471 139.358 118.799 145.428 121.062C151.499 123.326 164.518 115.297 168.214 124.934C171.91 134.571 168.75 139.829 179.044 143.303C189.337 146.777 195.981 142.093 201.866 150.316C207.752 158.54 222.37 163.151 212.169 161.072Z" fill="white"/>
<path d="M305.077 285.22C254.202 282.125 202.864 258.96 196.202 243.354C192.275 234.114 200.767 242.855 209.231 244.712C217.694 246.569 233.43 233.513 240.129 245.581C246.828 257.648 243.613 265.206 257.888 267.886C272.164 270.566 280.064 263.109 289.434 272.903C298.803 282.698 318.974 286.061 305.077 285.22Z" fill="white"/>
<path d="M336.89 325.035C314.714 340.365 271.628 339.284 263.414 332.354C258.572 328.269 269.706 328.242 275.158 327.65C280.61 327.059 287.419 316.054 293.878 321.94C300.337 327.826 296.438 331.18 305.271 328.667C314.105 326.154 316.47 319.649 324.537 322.531C332.603 325.414 344.135 320.027 336.89 325.035Z" fill="white"/>
<path d="M309.023 122.79C335.819 129.868 364.703 123.566 369.637 114.29C372.548 108.819 367.318 113.125 362.735 112.857C358.152 112.589 351.194 100.984 346.565 107.877C341.936 114.77 342.869 120.425 335.218 119.649C327.567 118.873 324.13 112.451 318.327 117.348C312.525 122.245 301.705 120.859 309.023 122.79Z" fill="white"/>
<path d="M178.351 228.93L173.897 225.123L182.314 214.433L186.777 218.239L178.351 228.93Z" fill="#7F3E3B"/>
<path d="M175.56 223.322L180.503 227.396C180.593 227.467 180.653 227.568 180.673 227.681C180.694 227.793 180.673 227.908 180.614 228.006L177.99 232.626C177.922 232.737 177.831 232.832 177.723 232.905C177.615 232.979 177.493 233.028 177.365 233.051C177.237 233.073 177.105 233.069 176.979 233.037C176.852 233.005 176.734 232.947 176.632 232.866C174.885 231.36 172.4 229.17 170.164 227.322C167.549 225.16 167.724 225.474 164.62 222.952C162.772 221.418 163.89 219.191 164.814 219.672C169.027 221.843 169.434 222.102 174.128 222.813C174.643 222.846 175.139 223.022 175.56 223.322Z" fill="#263238"/>
<path opacity="0.2" d="M182.315 214.442L177.981 219.949L182.435 223.756L186.777 218.24L182.315 214.442Z" fill="black"/>
<path d="M212.095 198.161C242.781 200.388 250.7 206.403 264.92 201.349L266.26 188.089L247.937 181.15C247.937 181.15 225.835 178.101 208.787 182.647C191.065 187.369 179.007 215.735 179.007 215.735L186.657 221.279C186.657 221.279 192.534 204.934 212.095 198.161Z" fill="black"/>
<path d="M179.413 212.936L177.464 216.567L185.401 223.266L188.136 220.568L179.413 212.936Z" fill="#263238"/>
<path d="M182.518 290.247L155.167 286.098C152.812 285.738 150.562 284.876 148.568 283.57C146.575 282.265 144.886 280.547 143.614 278.531C142.343 276.516 141.52 274.251 141.2 271.89C140.88 269.529 141.071 267.127 141.76 264.846C142.459 262.566 143.641 260.463 145.224 258.68C146.808 256.897 148.756 255.475 150.938 254.511C153.119 253.547 155.482 253.063 157.867 253.093C160.251 253.122 162.602 253.664 164.758 254.682L189.771 266.5C191.265 267.207 192.455 268.427 193.124 269.939C193.792 271.45 193.894 273.152 193.412 274.733L190.132 285.488C189.642 287.061 188.604 288.406 187.207 289.28C185.81 290.153 184.146 290.496 182.518 290.247Z" fill="#BA68C8"/>
<path opacity="0.4" d="M182.518 290.247L155.167 286.098C152.812 285.738 150.562 284.876 148.568 283.57C146.575 282.265 144.886 280.547 143.614 278.531C142.343 276.516 141.52 274.251 141.2 271.89C140.88 269.529 141.071 267.127 141.76 264.846C142.459 262.566 143.641 260.463 145.224 258.68C146.808 256.897 148.756 255.475 150.938 254.511C153.119 253.547 155.482 253.063 157.867 253.093C160.251 253.122 162.602 253.664 164.758 254.682L189.771 266.5C191.265 267.207 192.455 268.427 193.124 269.939C193.792 271.45 193.894 273.152 193.412 274.733L190.132 285.488C189.642 287.061 188.604 288.406 187.207 289.28C185.81 290.153 184.146 290.496 182.518 290.247Z" fill="black"/>
<path d="M173.943 216.743C179.007 217.842 186.399 218.591 187.803 216.059C196.017 201.118 208.131 177.251 210.774 171.91C211.18 171.116 210.681 170.395 209.369 169.831L191.434 162.097C187.683 160.721 183.118 161.931 179.681 163.252C158.586 171.42 119.566 188.2 110.584 194.946C120.12 203.668 156.72 212.991 173.943 216.743Z" fill="#BA68C8"/>
<path opacity="0.2" d="M173.943 216.743C179.007 217.842 186.399 218.591 187.803 216.059C196.017 201.118 208.131 177.251 210.774 171.91C211.18 171.116 210.681 170.395 209.369 169.831L191.434 162.097C187.683 160.721 183.118 161.931 179.681 163.252C158.586 171.42 119.566 188.2 110.584 194.946C120.12 203.668 156.72 212.991 173.943 216.743Z" fill="black"/>
<path d="M328.196 240.055C330.173 240.101 332.326 239.593 330.57 237.745C320.046 226.713 303.007 209.212 299.219 205.331C298.673 204.757 297.979 204.345 297.214 204.139L287.05 201.423C285.119 201.007 285.146 202.43 285.507 203.77C287.734 212.03 293.231 228.422 296.872 234.123C306.075 238.623 321.487 239.889 328.196 240.055Z" fill="#BA68C8"/>
<path opacity="0.2" d="M328.196 240.055C330.173 240.101 332.326 239.593 330.57 237.745C320.046 226.713 303.007 209.212 299.219 205.331C298.673 204.757 297.979 204.345 297.214 204.139L287.05 201.423C285.119 201.007 285.146 202.43 285.507 203.77C287.734 212.03 293.231 228.422 296.872 234.123C306.075 238.623 321.487 239.889 328.196 240.055Z" fill="black"/>
<path d="M159.39 167.577C156.535 166.948 153.707 166.366 151 165.849L151.176 164.925C153.892 165.442 156.72 166.024 159.584 166.653L159.39 167.577Z" fill="#BA68C8"/>
<path d="M144.264 164.629C134.314 162.841 124.232 161.877 114.123 161.746C110.06 161.729 105.999 161.961 101.963 162.439L101.853 161.515C105.925 161.042 110.023 160.81 114.123 160.822C124.285 160.955 134.418 161.923 144.421 163.714L144.264 164.629Z" fill="#BA68C8"/>
<path d="M81.2104 171.439C124.86 144.643 242.91 198.558 306.463 212.631C335.976 219.173 317.912 243.178 303.765 246.32C289.619 249.461 116.322 261.104 59.3394 235.232C2.35629 209.36 60.7716 184.005 81.2104 171.439Z" fill="#BA68C8"/>
<path d="M300.125 246.893C307.619 246.339 314.79 243.609 320.755 239.038C326.72 234.467 331.22 228.253 333.703 221.159C338.526 207.697 341.945 198.059 341.945 198.059C338.17 195.895 333.924 194.687 329.576 194.539C325.228 194.39 320.91 195.307 316.997 197.209L284.296 213.121L300.125 246.893Z" fill="#BA68C8"/>
<path opacity="0.2" d="M298.544 227.997C300.734 233.458 307.054 239.944 311.721 244.222C316.675 242.227 321.15 239.203 324.851 235.352L298.544 227.997Z" fill="black"/>
<path opacity="0.2" d="M317.274 232.312C311.411 232.861 305.522 233.067 299.635 232.931C293.74 232.83 287.845 232.349 281.968 231.748C276.091 231.148 270.242 230.215 264.412 229.217C241.081 225.031 218.267 218.267 195.768 210.543C190.141 208.621 184.523 206.634 178.859 204.629C176.004 203.65 173.213 202.642 170.182 201.718C168.602 201.312 167.041 200.794 165.424 200.499L162.994 200.055C162.188 199.892 161.373 199.775 160.554 199.704C153.947 198.955 147.258 199.457 140.836 201.183C137.668 202.079 134.578 203.232 131.596 204.629C128.631 206.028 125.78 207.656 123.068 209.499L121.044 210.922L119.094 212.418L117.246 213.943C116.711 214.396 116.165 214.867 115.602 215.292C113.403 217.066 111.093 218.776 108.746 220.429C104.026 223.723 99.1305 226.758 94.0818 229.522C89.1456 232.269 83.998 234.617 78.6879 236.544C76.2181 237.446 73.6776 238.142 71.0926 238.623C70.3719 238.752 69.6604 238.854 68.9767 238.909C76.7044 241.328 84.5852 243.226 92.5664 244.592C95.1813 243.262 97.7223 241.82 100.226 240.36C105.565 237.199 110.723 233.741 115.676 230.002C118.161 228.154 120.591 226.186 122.975 224.135C123.567 223.627 124.158 223.091 124.74 222.573L126.311 221.178L127.863 219.894L129.48 218.665C131.662 217.074 133.96 215.651 136.355 214.405C138.731 213.185 141.203 212.162 143.747 211.347C148.854 209.78 154.211 209.187 159.538 209.6C160.207 209.629 160.874 209.703 161.534 209.822L163.53 210.099C164.86 210.321 166.172 210.7 167.494 211.023C170.21 211.744 173.038 212.649 175.902 213.518C181.594 215.301 187.323 217.112 193.07 218.859C216.059 225.844 239.482 231.906 263.414 235.324C269.402 236.137 275.426 236.84 281.432 237.292C287.438 237.745 293.518 237.967 299.589 237.856C305.668 237.78 311.737 237.342 317.764 236.544C320.141 236.218 322.504 235.826 324.851 235.371C326.299 233.9 327.621 232.311 328.805 230.621C324.999 231.36 321.146 231.924 317.274 232.312Z" fill="white"/>
<path opacity="0.2" d="M213.758 246.893C213.758 246.893 170.423 246.662 129.24 242.735C128.316 242.642 125.664 237.958 122.846 236.793C122.541 240.046 123.114 242.116 121.478 241.94C97.6576 239.362 68.8103 233.458 57.556 227.489C51.8272 206.994 39.1961 200.831 39.1961 200.831C31.3052 211.374 32.9314 223.257 59.3393 235.223C116.322 261.095 289.619 249.452 303.765 246.311L213.758 246.893Z" fill="black"/>
<path d="M129.249 229.466C127.925 229.472 126.634 229.885 125.551 230.648C124.469 231.412 123.647 232.489 123.196 233.734C122.746 234.98 122.689 236.334 123.033 237.613C123.376 238.892 124.105 240.035 125.119 240.887C153.606 263.821 206.828 300.374 220.014 309.383C222.02 310.744 224.279 311.687 226.657 312.155L258.997 318.429C262.869 319.177 264.403 317.006 262.776 313.901C252.723 294.728 229.568 255.791 216.124 242.578C186.094 232.137 150.076 229.836 129.249 229.466Z" fill="#BA68C8"/>
<path opacity="0.2" d="M215.939 301.686L128.87 234.021C126.024 231.813 121.876 234.594 123.049 237.995C123.451 239.136 124.169 240.139 125.119 240.887C153.606 263.82 206.828 300.374 220.014 309.383C222.02 310.744 224.279 311.686 226.657 312.155L258.997 318.429C260.938 318.808 262.287 318.429 262.952 317.607L233.892 310.427C227.364 308.797 221.248 305.82 215.939 301.686Z" fill="black"/>
<path d="M295.985 223.1C295.523 223.162 295.091 223.368 294.751 223.687C294.411 224.005 294.178 224.423 294.086 224.88C293.993 225.337 294.045 225.812 294.235 226.238C294.425 226.664 294.743 227.021 295.144 227.258C306.177 233.726 326.458 243.65 331.485 246.089C332.248 246.455 333.078 246.663 333.924 246.699L345.437 247.207C346.814 247.272 347.239 246.44 346.509 245.451C342.056 239.335 332.049 227.055 326.726 223.174C315.786 221.104 303.211 222.157 295.985 223.1Z" fill="#BA68C8"/>
<path opacity="0.2" d="M329.683 243.631L296.087 224.689C295.848 224.557 295.574 224.504 295.303 224.537C295.033 224.57 294.78 224.687 294.58 224.873C294.38 225.058 294.244 225.302 294.191 225.569C294.138 225.837 294.171 226.114 294.285 226.361C294.472 226.748 294.772 227.07 295.144 227.285C306.177 233.753 326.458 243.677 331.485 246.117C332.248 246.483 333.078 246.691 333.924 246.726L345.437 247.235C345.682 247.283 345.935 247.264 346.17 247.18C346.404 247.095 346.611 246.948 346.768 246.754L336.336 245.728C333.996 245.503 331.73 244.788 329.683 243.631Z" fill="black"/>
<path d="M83.428 170.192C82.6704 170.58 81.9312 170.995 81.2104 171.439C78.4384 173.121 75.0751 175.024 71.3606 177.131C73.0885 182.102 78.5401 187.905 85.4608 193.116L98.2582 183.303C91.8457 179.256 86.3941 174.571 83.428 170.192Z" fill="white"/>
<path d="M102.823 185.964L91.4114 197.154C94.3191 198.983 97.3336 200.637 100.439 202.107C101.395 202.551 102.432 202.795 103.486 202.823C104.54 202.851 105.589 202.662 106.568 202.269C107.546 201.876 108.434 201.287 109.175 200.537C109.917 199.788 110.497 198.894 110.88 197.912C111.583 196.1 111.577 194.09 110.863 192.283C110.149 190.475 108.779 189.004 107.027 188.163C105.632 187.47 104.218 186.731 102.823 185.964Z" fill="white"/>
<path d="M351.674 219.912C373.416 224.532 429.484 233.772 400.813 199.381C433.984 233.208 398.734 238.318 368.473 240.037C365.656 240.2 362.838 239.724 360.232 238.644C357.625 237.563 355.297 235.907 353.421 233.8C351.208 231.317 349.209 228.653 347.442 225.835C347.042 225.172 346.845 224.407 346.875 223.633C346.905 222.86 347.161 222.112 347.611 221.482C348.061 220.852 348.685 220.368 349.408 220.089C350.13 219.81 350.918 219.748 351.674 219.912Z" fill="#BA68C8"/>
<path opacity="0.2" d="M351.674 219.912C373.416 224.532 429.484 233.772 400.813 199.381C433.984 233.208 398.734 238.318 368.473 240.037C365.656 240.2 362.838 239.724 360.232 238.644C357.625 237.563 355.297 235.907 353.421 233.8C351.208 231.317 349.209 228.653 347.442 225.835C347.042 225.172 346.845 224.407 346.875 223.633C346.905 222.86 347.161 222.112 347.611 221.482C348.061 220.852 348.685 220.368 349.408 220.089C350.13 219.81 350.918 219.748 351.674 219.912Z" fill="white"/>
<path d="M269.171 114.844C269.366 116.289 268.984 117.753 268.108 118.919C266.925 120.453 265.16 119.676 264.514 117.995C263.931 116.452 263.839 113.8 265.502 112.876C265.866 112.683 266.271 112.582 266.683 112.583C267.094 112.583 267.499 112.685 267.862 112.88C268.225 113.075 268.534 113.356 268.762 113.698C268.99 114.041 269.131 114.434 269.171 114.844Z" fill="#7F3E3B"/>
<path opacity="0.2" d="M269.171 114.844C269.366 116.289 268.984 117.753 268.108 118.919C266.925 120.453 265.16 119.676 264.514 117.995C263.931 116.452 263.839 113.8 265.502 112.876C265.866 112.683 266.271 112.582 266.683 112.583C267.094 112.583 267.499 112.685 267.862 112.88C268.225 113.075 268.534 113.356 268.762 113.698C268.99 114.041 269.131 114.434 269.171 114.844Z" fill="black"/>
<path d="M266.112 115.389C262.296 113.901 265.705 105.789 269.808 106.02C270.362 102.786 276.165 102.619 279.972 104.717C282.999 106.417 285.475 108.951 287.105 112.017C289.831 116.572 294.423 116.997 294.146 118.632C293.777 120.767 289.443 117.773 288.094 118.466C286.745 119.159 294.1 120.637 294.026 122.864C293.952 125.091 289.175 122.264 287.678 121.654C286.181 121.044 285.026 122.31 288.473 124.333C293.01 126.985 290.367 128.334 288.565 126.985C285.036 124.324 281.284 125.359 284.019 127.743C286.754 130.127 283.557 130.94 281.441 128.362C279.325 125.784 277.745 130.21 273.356 126.708C268.967 123.206 267.517 121.968 266.112 115.389Z" fill="#263238"/>
<path d="M197.098 241.534L187.766 251.448L183.248 246.763L192.58 236.858L197.098 241.534Z" fill="#7F3E3B"/>
<path d="M184.846 245.618L190.298 248.953C190.395 249.008 190.468 249.097 190.502 249.204C190.536 249.31 190.529 249.425 190.483 249.526L188.302 254.322C188.247 254.444 188.167 254.553 188.067 254.641C187.966 254.729 187.847 254.794 187.719 254.832C187.591 254.87 187.456 254.879 187.324 254.86C187.191 254.84 187.065 254.792 186.953 254.719C185.003 253.481 184.477 252.954 182 251.439C179.108 249.674 177.075 249.378 173.629 247.401C171.541 246.209 172.381 243.89 173.379 244.204C176.567 245.128 181.39 245.692 183.359 245.248C183.884 245.174 184.417 245.307 184.846 245.618Z" fill="#263238"/>
<path opacity="0.2" d="M197.099 241.543L192.284 246.653L187.766 241.968L192.571 236.858L197.099 241.543Z" fill="black"/>
<path d="M229.013 217.879C247.364 207.558 279.602 211.162 279.602 192.488L259.274 185.419C259.274 185.419 232.478 192.423 219.062 204.435C205.1 216.927 189.494 237.699 189.494 237.699L196.054 244.5C196.054 244.5 213.444 231.536 229.013 217.879Z" fill="#263238"/>
<path d="M189.402 235.472L187.341 239.011L195.472 245.812L198.346 243.206L189.402 235.472Z" fill="white"/>
<path d="M263.155 141.492C261.132 142.259 259.191 142.85 257.186 143.46C255.181 144.07 253.176 144.578 251.116 145.031C249.033 145.515 246.926 145.892 244.805 146.158C242.488 146.492 240.141 146.557 237.81 146.352H237.579C236.987 146.289 236.421 146.076 235.934 145.733C235.011 145.089 234.251 144.238 233.717 143.248C233.268 142.462 232.955 141.606 232.793 140.716C232.567 139.369 232.542 137.996 232.719 136.641C233.007 134.41 233.547 132.219 234.326 130.108C235.031 128.126 235.849 126.186 236.775 124.296C237.699 122.448 238.623 120.6 239.769 118.826C240.051 118.36 240.496 118.015 241.017 117.856C241.538 117.697 242.1 117.735 242.595 117.963C243.089 118.192 243.483 118.595 243.699 119.095C243.916 119.595 243.941 120.157 243.77 120.674V120.739C243.206 122.587 242.615 124.435 242.125 126.348C241.635 128.26 241.146 130.044 240.785 131.892C240.413 133.615 240.202 135.369 240.157 137.131C240.136 137.773 240.214 138.415 240.388 139.034C240.434 139.108 240.453 139.237 240.49 139.247C240.526 139.256 240.49 139.339 240.545 139.247C240.505 139.132 240.426 139.034 240.323 138.97L238.475 138.323C240.171 138.29 241.86 138.099 243.52 137.75C245.368 137.399 247.216 136.955 249.064 136.456C250.912 135.957 252.76 135.421 254.654 134.849C256.549 134.276 258.406 133.666 260.198 133.102H260.263C261.368 132.745 262.568 132.834 263.608 133.35C264.648 133.867 265.444 134.77 265.827 135.866C266.21 136.962 266.148 138.164 265.656 139.216C265.164 140.267 264.279 141.084 263.192 141.492H263.155Z" fill="#7F3E3B"/>
<path d="M242.319 123.65L248.029 121.229L243.28 115.916C243.28 115.916 237.939 118.558 239.27 121.709L242.319 123.65Z" fill="#7F3E3B"/>
<path d="M250.293 117.237L248.233 114.788C247.981 114.485 247.631 114.278 247.243 114.204C246.855 114.129 246.454 114.192 246.107 114.382L243.28 115.916L248.029 121.229L250.025 119.686C250.207 119.545 250.359 119.369 250.472 119.169C250.584 118.968 250.655 118.747 250.68 118.518C250.705 118.29 250.684 118.058 250.617 117.838C250.551 117.618 250.441 117.414 250.293 117.237Z" fill="#7F3E3B"/>
<path d="M263.95 131.208C258.203 130.45 248.953 135.957 248.953 135.957C249.032 140.28 249.799 144.563 251.226 148.644C254.735 148.114 258.12 146.962 261.224 145.243C262.943 144.338 270.732 132.132 263.95 131.208Z" fill="#F0F0F0"/>
<path d="M263.34 131.143C271.014 131.883 278.568 133.565 285.83 136.151C287.497 136.784 288.92 137.931 289.892 139.426C290.863 140.921 291.334 142.687 291.236 144.467C290.515 160.996 287.377 177.33 281.922 192.95C278.669 193.07 264.698 191.711 257.898 189.254C257.149 188.986 256.844 185.687 256.844 185.687C255.64 185.629 254.436 185.814 253.305 186.232C250.998 185.095 249.015 183.395 247.54 181.289C250.875 176.013 252.446 163.899 253.426 153.652C253.536 149.614 253.712 142.277 255.625 138.166C257.362 134.294 259.016 130.811 263.34 131.143Z" fill="white"/>
<path d="M268.884 142.619C268.764 142.98 268.477 143.211 268.265 143.128C268.052 143.044 267.96 142.703 268.08 142.351C268.2 142 268.487 141.76 268.708 141.843C268.93 141.926 268.976 142.296 268.884 142.619Z" fill="#BA68C8"/>
<path d="M278.688 122.947C278.004 127.29 277.422 132.391 279.667 135.643C277.708 138.203 273.402 140.041 269.189 140.836C266.731 137.51 267.249 134.516 268.551 132.843C271.083 131.273 270.871 128.63 270.898 126.8L278.688 122.947Z" fill="#7F3E3B"/>
<path d="M269.189 140.836C268.694 140.078 268.398 139.207 268.33 138.304C268.33 136.983 265.946 137.713 265.946 137.713C266.744 139.013 267.86 140.088 269.189 140.836Z" fill="#E0E0E0"/>
<path d="M269.189 140.836C269.347 140.372 269.644 139.968 270.038 139.677C270.433 139.386 270.907 139.223 271.397 139.21C272.554 139.131 273.713 139.315 274.788 139.746C274.788 139.746 271.444 141.039 269.189 140.836Z" fill="#E0E0E0"/>
<path opacity="0.2" d="M276.84 124.62C276.895 124.343 276.932 124.065 276.96 123.797L270.898 126.81C270.981 128.076 270.837 129.346 270.473 130.561C273.301 129.683 276.378 127.244 276.84 124.62Z" fill="black"/>
<path d="M282.051 117.348C279.713 122.67 278.605 125.904 274.835 127.66C269.152 130.303 263.359 125.257 264.07 119.344C264.708 114.003 268.431 106.205 274.548 106.048C275.903 106.014 277.244 106.324 278.446 106.95C279.648 107.576 280.672 108.496 281.422 109.625C282.171 110.754 282.622 112.055 282.732 113.405C282.842 114.756 282.608 116.113 282.051 117.348Z" fill="#7F3E3B"/>
<path d="M270.473 106.565C269.623 110.058 279.667 111.804 279.667 111.804C279.667 111.804 274.188 121.044 280.591 120.647C286.994 120.249 287.327 112.552 282.356 107.84C278.863 104.532 272.968 103.396 270.473 106.565Z" fill="#263238"/>
<path d="M266.833 119.972C269.053 120.068 271.26 120.377 273.421 120.896C272.935 121.676 272.204 122.272 271.343 122.591C270.482 122.911 269.539 122.935 268.662 122.661C268.357 122.624 268.063 122.521 267.8 122.361C267.537 122.2 267.311 121.986 267.138 121.731C266.965 121.477 266.848 121.188 266.795 120.885C266.743 120.581 266.755 120.27 266.833 119.972Z" fill="#263238"/>
<path d="M270.104 121.802C269.16 121.548 268.161 121.6 267.249 121.95C267.624 122.351 268.12 122.617 268.662 122.707C269.602 122.962 270.598 122.914 271.508 122.569C271.138 122.165 270.644 121.895 270.104 121.802Z" fill="#FF5652"/>
<path d="M267.036 119.981C267.02 120.174 267.065 120.367 267.165 120.533C267.264 120.698 267.413 120.829 267.59 120.905C269.018 121.202 270.467 121.378 271.924 121.432C272.159 121.459 272.398 121.429 272.619 121.345C272.841 121.262 273.04 121.127 273.199 120.952C271.174 120.465 269.113 120.14 267.036 119.981Z" fill="white"/>
<path d="M282.356 122.079C281.833 122.577 281.217 122.967 280.543 123.225C279.869 123.484 279.151 123.606 278.429 123.585C276.489 123.511 276.091 121.626 277.108 120.111C278.124 118.595 280.138 117.117 281.848 117.939C282.219 118.123 282.538 118.395 282.777 118.732C283.017 119.07 283.168 119.461 283.219 119.872C283.269 120.282 283.217 120.699 283.066 121.084C282.915 121.47 282.671 121.811 282.356 122.079Z" fill="#7F3E3B"/>
<path d="M274.77 115.879C274.613 116.322 274.243 116.59 273.948 116.489C273.652 116.387 273.559 115.925 273.726 115.481C273.892 115.038 274.252 114.77 274.548 114.881C274.844 114.992 274.936 115.435 274.77 115.879Z" fill="#263238"/>
<path d="M269.254 113.8C269.087 114.243 268.718 114.511 268.431 114.4C268.145 114.29 268.043 113.846 268.2 113.402C268.357 112.959 268.736 112.682 269.023 112.793C269.309 112.904 269.411 113.356 269.254 113.8Z" fill="#263238"/>
<path d="M271.074 114.511C270.003 115.624 268.784 116.585 267.452 117.367C267.663 117.703 267.944 117.99 268.275 118.208C268.607 118.427 268.981 118.571 269.374 118.632L271.074 114.511Z" fill="#630F0F"/>
<path d="M276.83 113.985C276.876 113.998 276.924 113.998 276.969 113.985C277.007 113.981 277.044 113.968 277.077 113.949C277.11 113.929 277.139 113.903 277.161 113.871C277.182 113.84 277.197 113.804 277.204 113.766C277.211 113.728 277.21 113.689 277.2 113.652C277.125 113.214 276.945 112.801 276.676 112.447C276.408 112.094 276.058 111.81 275.657 111.619C275.59 111.595 275.515 111.598 275.45 111.627C275.384 111.656 275.333 111.71 275.306 111.776C275.291 111.81 275.283 111.845 275.282 111.882C275.282 111.918 275.288 111.955 275.302 111.988C275.316 112.022 275.337 112.053 275.363 112.078C275.389 112.104 275.42 112.124 275.454 112.137C275.767 112.294 276.039 112.522 276.249 112.803C276.459 113.083 276.601 113.409 276.664 113.754C276.668 113.804 276.686 113.851 276.715 113.892C276.745 113.933 276.784 113.965 276.83 113.985Z" fill="#263238"/>
<path d="M268.025 110.88C268.065 110.9 268.109 110.91 268.154 110.91C268.199 110.91 268.243 110.9 268.283 110.88C268.555 110.662 268.874 110.513 269.215 110.444C269.555 110.375 269.908 110.388 270.242 110.483C270.276 110.496 270.312 110.502 270.349 110.501C270.385 110.499 270.421 110.49 270.454 110.475C270.486 110.459 270.516 110.437 270.54 110.41C270.564 110.383 270.582 110.351 270.593 110.316C270.606 110.283 270.613 110.246 270.611 110.21C270.61 110.174 270.601 110.138 270.586 110.105C270.57 110.072 270.548 110.043 270.521 110.019C270.493 109.995 270.462 109.977 270.427 109.965C270.008 109.837 269.563 109.811 269.132 109.892C268.701 109.972 268.296 110.156 267.951 110.427C267.921 110.448 267.895 110.475 267.876 110.507C267.856 110.538 267.844 110.573 267.839 110.609C267.833 110.646 267.836 110.683 267.846 110.718C267.855 110.754 267.872 110.787 267.895 110.815C267.931 110.85 267.976 110.872 268.025 110.88Z" fill="#263238"/>
<path d="M291.707 142.998C292.224 145.77 292.575 148.357 292.936 151.046C293.296 153.735 293.518 156.424 293.721 159.14C293.924 161.857 294.035 164.601 294.008 167.392C294.015 170.319 293.736 173.241 293.176 176.114L293.13 176.327C293.017 176.87 292.773 177.378 292.418 177.805C291.027 179.441 289.53 180.985 287.937 182.425C286.412 183.83 284.804 185.105 283.206 186.371C281.607 187.637 279.944 188.782 278.272 189.919C276.599 191.055 274.908 192.118 273.107 193.134C272.637 193.404 272.086 193.493 271.556 193.384C271.025 193.275 270.554 192.976 270.229 192.543C269.904 192.11 269.748 191.573 269.792 191.034C269.835 190.494 270.074 189.989 270.464 189.614L274.631 185.521C276.008 184.153 277.403 182.749 278.725 181.4C281.36 178.769 283.8 175.95 286.024 172.964L285.257 174.654C285.534 172.297 285.611 169.92 285.488 167.549C285.377 165.045 285.183 162.495 284.934 159.944C284.684 157.394 284.352 154.816 284.01 152.247C283.668 149.679 283.28 147.082 282.91 144.587V144.532C282.759 143.39 283.056 142.234 283.74 141.308C284.424 140.381 285.441 139.756 286.576 139.564C287.712 139.373 288.878 139.629 289.828 140.28C290.778 140.931 291.438 141.925 291.67 143.054L291.707 142.998Z" fill="#7F3E3B"/>
<path d="M286.135 136.299C294.821 139.884 293.841 152.183 293.841 152.183C290.672 156.193 287.152 159.325 282.559 159.713C280.091 157.004 278.766 153.444 278.863 149.78C278.9 144.874 279.787 133.684 286.135 136.299Z" fill="white"/>
<path d="M273.753 187.627L267.84 187.988L270.242 194.687C270.242 194.687 275.564 193.707 275.5 190.797L273.753 187.627Z" fill="#7F3E3B"/>
<path d="M263.719 192.58L264.957 194.779C265.195 195.205 265.577 195.531 266.034 195.7C266.492 195.87 266.994 195.871 267.452 195.703L270.224 194.687L267.821 187.988L264.523 189.753C264.283 189.884 264.071 190.061 263.9 190.275C263.729 190.489 263.603 190.735 263.528 190.998C263.453 191.261 263.432 191.536 263.464 191.808C263.497 192.08 263.584 192.342 263.719 192.58Z" fill="#7F3E3B"/>
<path d="M278.715 133.102C278.466 134.433 277.348 138.859 271.397 139.21C273.467 139.847 273.569 145.188 273.569 145.188C273.569 145.188 280.037 139.773 280.582 134.941C280.397 133.675 278.715 133.102 278.715 133.102Z" fill="#BA68C8"/>
<path d="M270.178 130.958C269.937 132.252 267.969 134.442 268.33 138.35C266.251 137.75 263.174 140.901 263.174 140.901C263.898 137.474 265.449 134.277 267.692 131.587C268.464 131.196 269.313 130.982 270.178 130.958Z" fill="#BA68C8"/>
<path d="M110.934 418.909V432H109.771L102.036 421.038H101.934V432H100.739V418.909H101.896L109.656 429.884H109.758V418.909H110.934ZM118.147 432.205C117.231 432.205 116.439 431.991 115.77 431.565C115.1 431.135 114.583 430.54 114.216 429.782C113.854 429.019 113.673 428.141 113.673 427.148C113.673 426.16 113.854 425.282 114.216 424.515C114.583 423.744 115.088 423.141 115.731 422.706C116.379 422.267 117.127 422.048 117.975 422.048C118.507 422.048 119.021 422.146 119.515 422.342C120.01 422.533 120.453 422.83 120.845 423.23C121.241 423.626 121.554 424.127 121.784 424.732C122.015 425.333 122.13 426.045 122.13 426.867V427.43H114.459V426.426H120.966C120.966 425.795 120.838 425.229 120.583 424.726C120.331 424.219 119.98 423.818 119.528 423.524C119.081 423.23 118.563 423.083 117.975 423.083C117.353 423.083 116.805 423.249 116.332 423.582C115.859 423.914 115.488 424.353 115.22 424.898C114.956 425.444 114.821 426.04 114.817 426.688V427.289C114.817 428.069 114.951 428.751 115.22 429.335C115.493 429.914 115.878 430.364 116.377 430.683C116.875 431.003 117.466 431.163 118.147 431.163C118.612 431.163 119.019 431.09 119.368 430.945C119.722 430.8 120.018 430.607 120.257 430.364C120.5 430.116 120.683 429.846 120.806 429.552L121.887 429.903C121.738 430.317 121.493 430.698 121.152 431.048C120.815 431.397 120.393 431.678 119.886 431.891C119.383 432.1 118.804 432.205 118.147 432.205ZM125.775 425.864V432H124.637V422.182H125.743V423.722H125.845C126.075 423.219 126.433 422.817 126.919 422.514C127.409 422.207 128.014 422.054 128.734 422.054C129.395 422.054 129.974 422.192 130.473 422.469C130.976 422.742 131.366 423.145 131.643 423.678C131.924 424.21 132.064 424.864 132.064 425.64V432H130.927V425.71C130.927 424.905 130.701 424.268 130.249 423.799C129.802 423.33 129.201 423.096 128.447 423.096C127.931 423.096 127.473 423.207 127.072 423.428C126.672 423.65 126.354 423.969 126.12 424.387C125.89 424.8 125.775 425.293 125.775 425.864ZM136.199 425.864V432H135.061V418.909H136.199V423.722H136.301C136.531 423.215 136.887 422.81 137.368 422.508C137.854 422.205 138.468 422.054 139.209 422.054C139.874 422.054 140.458 422.19 140.961 422.463C141.463 422.736 141.855 423.138 142.137 423.671C142.418 424.204 142.559 424.86 142.559 425.64V432H141.414V425.71C141.414 424.901 141.189 424.263 140.737 423.799C140.289 423.33 139.684 423.096 138.922 423.096C138.397 423.096 137.931 423.207 137.522 423.428C137.113 423.65 136.789 423.969 136.55 424.387C136.316 424.8 136.199 425.293 136.199 425.864ZM151.794 428.248V422.182H152.931V432H151.794V430.37H151.704C151.474 430.873 151.11 431.293 150.611 431.629C150.112 431.962 149.503 432.128 148.783 432.128C148.156 432.128 147.6 431.991 147.115 431.719C146.629 431.442 146.247 431.037 145.97 430.504C145.693 429.972 145.555 429.317 145.555 428.542V422.182H146.693V428.472C146.693 429.239 146.919 429.857 147.37 430.325C147.822 430.79 148.401 431.022 149.109 431.022C149.552 431.022 149.978 430.915 150.387 430.702C150.796 430.489 151.133 430.178 151.397 429.769C151.661 429.356 151.794 428.849 151.794 428.248ZM155.944 432V422.182H157.049V423.69H157.152C157.348 423.183 157.674 422.785 158.13 422.495C158.59 422.201 159.142 422.054 159.785 422.054C160.463 422.054 161.019 422.214 161.453 422.533C161.892 422.849 162.221 423.283 162.438 423.837H162.521C162.743 423.292 163.103 422.859 163.601 422.54C164.104 422.216 164.713 422.054 165.429 422.054C166.341 422.054 167.061 422.342 167.59 422.917C168.118 423.488 168.382 424.323 168.382 425.423V432H167.245V425.423C167.245 424.647 167.047 424.065 166.65 423.678C166.254 423.29 165.732 423.096 165.084 423.096C164.334 423.096 163.757 423.326 163.352 423.786C162.947 424.246 162.745 424.83 162.745 425.538V432H161.581V425.32C161.581 424.656 161.396 424.119 161.025 423.71C160.654 423.3 160.132 423.096 159.459 423.096C159.007 423.096 158.6 423.207 158.238 423.428C157.88 423.65 157.597 423.959 157.388 424.355C157.184 424.747 157.081 425.199 157.081 425.71V432H155.944ZM174.137 432.224C173.545 432.224 173.003 432.109 172.513 431.879C172.023 431.644 171.633 431.308 171.344 430.869C171.054 430.425 170.909 429.888 170.909 429.258C170.909 428.772 171.001 428.363 171.184 428.031C171.367 427.698 171.627 427.425 171.964 427.212C172.3 426.999 172.699 426.831 173.159 426.707C173.619 426.584 174.126 426.488 174.68 426.42C175.23 426.352 175.694 426.292 176.074 426.241C176.457 426.19 176.749 426.109 176.949 425.998C177.15 425.887 177.25 425.708 177.25 425.461V425.231C177.25 424.562 177.05 424.036 176.649 423.652C176.253 423.264 175.682 423.07 174.936 423.07C174.229 423.07 173.651 423.226 173.204 423.537C172.76 423.848 172.449 424.214 172.27 424.636L171.19 424.246C171.412 423.71 171.719 423.281 172.111 422.962C172.503 422.638 172.942 422.406 173.427 422.265C173.913 422.12 174.405 422.048 174.904 422.048C175.279 422.048 175.669 422.097 176.074 422.195C176.483 422.293 176.862 422.463 177.211 422.706C177.561 422.945 177.844 423.279 178.062 423.71C178.279 424.136 178.388 424.677 178.388 425.333V432H177.25V430.447H177.18C177.043 430.737 176.841 431.018 176.572 431.29C176.304 431.563 175.967 431.787 175.562 431.962C175.157 432.136 174.682 432.224 174.137 432.224ZM174.29 431.182C174.895 431.182 175.42 431.048 175.863 430.779C176.306 430.511 176.647 430.155 176.885 429.712C177.128 429.264 177.25 428.772 177.25 428.235V426.816C177.165 426.897 177.022 426.969 176.822 427.033C176.626 427.097 176.398 427.155 176.138 427.206C175.882 427.253 175.626 427.293 175.371 427.327C175.115 427.362 174.885 427.391 174.68 427.417C174.126 427.485 173.653 427.592 173.261 427.737C172.869 427.881 172.569 428.082 172.36 428.337C172.151 428.589 172.047 428.913 172.047 429.309C172.047 429.906 172.26 430.368 172.686 430.696C173.112 431.02 173.647 431.182 174.29 431.182ZM194.077 422.182L190.491 432H189.276L185.691 422.182H186.924L189.839 430.498H189.928L192.843 422.182H194.077ZM196.316 432V422.182H197.46V432H196.316ZM196.897 420.494C196.663 420.494 196.463 420.415 196.297 420.258C196.13 420.096 196.047 419.902 196.047 419.676C196.047 419.45 196.13 419.259 196.297 419.101C196.463 418.939 196.663 418.858 196.897 418.858C197.132 418.858 197.332 418.939 197.498 419.101C197.664 419.259 197.748 419.45 197.748 419.676C197.748 419.902 197.664 420.096 197.498 420.258C197.332 420.415 197.132 420.494 196.897 420.494ZM203.211 432.224C202.619 432.224 202.078 432.109 201.588 431.879C201.097 431.644 200.708 431.308 200.418 430.869C200.128 430.425 199.983 429.888 199.983 429.258C199.983 428.772 200.075 428.363 200.258 428.031C200.441 427.698 200.701 427.425 201.038 427.212C201.374 426.999 201.773 426.831 202.233 426.707C202.693 426.584 203.2 426.488 203.754 426.42C204.304 426.352 204.769 426.292 205.148 426.241C205.531 426.19 205.823 426.109 206.024 425.998C206.224 425.887 206.324 425.708 206.324 425.461V425.231C206.324 424.562 206.124 424.036 205.723 423.652C205.327 423.264 204.756 423.07 204.01 423.07C203.303 423.07 202.725 423.226 202.278 423.537C201.835 423.848 201.524 424.214 201.345 424.636L200.264 424.246C200.486 423.71 200.793 423.281 201.185 422.962C201.577 422.638 202.016 422.406 202.502 422.265C202.987 422.12 203.48 422.048 203.978 422.048C204.353 422.048 204.743 422.097 205.148 422.195C205.557 422.293 205.936 422.463 206.286 422.706C206.635 422.945 206.919 423.279 207.136 423.71C207.353 424.136 207.462 424.677 207.462 425.333V432H206.324V430.447H206.254C206.117 430.737 205.915 431.018 205.646 431.29C205.378 431.563 205.041 431.787 204.637 431.962C204.232 432.136 203.757 432.224 203.211 432.224ZM203.365 431.182C203.97 431.182 204.494 431.048 204.937 430.779C205.38 430.511 205.721 430.155 205.96 429.712C206.203 429.264 206.324 428.772 206.324 428.235V426.816C206.239 426.897 206.096 426.969 205.896 427.033C205.7 427.097 205.472 427.155 205.212 427.206C204.956 427.253 204.7 427.293 204.445 427.327C204.189 427.362 203.959 427.391 203.754 427.417C203.2 427.485 202.727 427.592 202.335 427.737C201.943 427.881 201.643 428.082 201.434 428.337C201.225 428.589 201.121 428.913 201.121 429.309C201.121 429.906 201.334 430.368 201.76 430.696C202.186 431.02 202.721 431.182 203.365 431.182ZM214.234 435.886C213.565 435.886 212.979 435.799 212.476 435.624C211.974 435.454 211.55 435.219 211.204 434.921C210.859 434.623 210.591 434.288 210.399 433.918L211.332 433.304C211.473 433.551 211.66 433.794 211.895 434.033C212.133 434.271 212.442 434.469 212.822 434.627C213.205 434.785 213.676 434.864 214.234 434.864C215.104 434.864 215.805 434.646 216.337 434.212C216.874 433.777 217.143 433.102 217.143 432.185V429.974H217.04C216.908 430.272 216.719 430.57 216.471 430.869C216.224 431.163 215.9 431.408 215.5 431.604C215.104 431.8 214.611 431.898 214.023 431.898C213.239 431.898 212.542 431.704 211.933 431.316C211.328 430.928 210.851 430.374 210.501 429.654C210.156 428.93 209.983 428.067 209.983 427.065C209.983 426.072 210.152 425.199 210.488 424.445C210.829 423.69 211.305 423.102 211.914 422.68C212.523 422.259 213.233 422.048 214.042 422.048C214.643 422.048 215.142 422.154 215.538 422.367C215.934 422.576 216.252 422.836 216.491 423.147C216.733 423.458 216.923 423.761 217.059 424.055H217.175V422.182H218.287V432.256C218.287 433.087 218.11 433.771 217.756 434.308C217.403 434.844 216.921 435.241 216.312 435.496C215.702 435.756 215.01 435.886 214.234 435.886ZM214.157 430.856C214.788 430.856 215.327 430.705 215.775 430.402C216.222 430.095 216.565 429.656 216.804 429.085C217.042 428.514 217.162 427.835 217.162 427.046C217.162 426.279 217.045 425.599 216.81 425.007C216.576 424.411 216.235 423.942 215.787 423.601C215.344 423.256 214.801 423.083 214.157 423.083C213.501 423.083 212.947 423.26 212.496 423.614C212.044 423.967 211.703 424.445 211.473 425.045C211.243 425.642 211.128 426.309 211.128 427.046C211.128 427.796 211.245 428.459 211.479 429.034C211.714 429.605 212.057 430.053 212.508 430.376C212.96 430.696 213.51 430.856 214.157 430.856ZM225.268 432.205C224.352 432.205 223.56 431.991 222.891 431.565C222.222 431.135 221.704 430.54 221.337 429.782C220.975 429.019 220.794 428.141 220.794 427.148C220.794 426.16 220.975 425.282 221.337 424.515C221.704 423.744 222.209 423.141 222.852 422.706C223.5 422.267 224.248 422.048 225.096 422.048C225.629 422.048 226.142 422.146 226.636 422.342C227.131 422.533 227.574 422.83 227.966 423.23C228.362 423.626 228.675 424.127 228.906 424.732C229.136 425.333 229.251 426.045 229.251 426.867V427.43H221.58V426.426H228.087C228.087 425.795 227.96 425.229 227.704 424.726C227.452 424.219 227.101 423.818 226.649 423.524C226.202 423.23 225.684 423.083 225.096 423.083C224.474 423.083 223.926 423.249 223.453 423.582C222.98 423.914 222.609 424.353 222.341 424.898C222.077 425.444 221.942 426.04 221.938 426.688V427.289C221.938 428.069 222.072 428.751 222.341 429.335C222.614 429.914 222.999 430.364 223.498 430.683C223.996 431.003 224.587 431.163 225.268 431.163C225.733 431.163 226.14 431.09 226.489 430.945C226.843 430.8 227.139 430.607 227.378 430.364C227.621 430.116 227.804 429.846 227.928 429.552L229.008 429.903C228.859 430.317 228.614 430.698 228.273 431.048C227.936 431.397 227.514 431.678 227.007 431.891C226.504 432.1 225.925 432.205 225.268 432.205ZM231.758 432V422.182H232.864V423.69H232.966C233.162 423.183 233.488 422.785 233.944 422.495C234.404 422.201 234.956 422.054 235.6 422.054C236.277 422.054 236.833 422.214 237.268 422.533C237.707 422.849 238.035 423.283 238.252 423.837H238.335C238.557 423.292 238.917 422.859 239.416 422.54C239.919 422.216 240.528 422.054 241.244 422.054C242.156 422.054 242.876 422.342 243.404 422.917C243.933 423.488 244.197 424.323 244.197 425.423V432H243.059V425.423C243.059 424.647 242.861 424.065 242.465 423.678C242.068 423.29 241.546 423.096 240.899 423.096C240.149 423.096 239.571 423.326 239.166 423.786C238.762 424.246 238.559 424.83 238.559 425.538V432H237.396V425.32C237.396 424.656 237.21 424.119 236.84 423.71C236.469 423.3 235.947 423.096 235.274 423.096C234.822 423.096 234.415 423.207 234.053 423.428C233.695 423.65 233.411 423.959 233.203 424.355C232.998 424.747 232.896 425.199 232.896 425.71V432H231.758ZM256.241 432.205C255.325 432.205 254.532 431.991 253.863 431.565C253.194 431.135 252.676 430.54 252.31 429.782C251.948 429.019 251.767 428.141 251.767 427.148C251.767 426.16 251.948 425.282 252.31 424.515C252.676 423.744 253.181 423.141 253.825 422.706C254.473 422.267 255.221 422.048 256.069 422.048C256.601 422.048 257.115 422.146 257.609 422.342C258.103 422.533 258.547 422.83 258.939 423.23C259.335 423.626 259.648 424.127 259.878 424.732C260.108 425.333 260.223 426.045 260.223 426.867V427.43H252.553V426.426H259.06C259.06 425.795 258.932 425.229 258.676 424.726C258.425 424.219 258.074 423.818 257.622 423.524C257.174 423.23 256.657 423.083 256.069 423.083C255.446 423.083 254.899 423.249 254.426 423.582C253.953 423.914 253.582 424.353 253.314 424.898C253.049 425.444 252.915 426.04 252.911 426.688V427.289C252.911 428.069 253.045 428.751 253.314 429.335C253.586 429.914 253.972 430.364 254.471 430.683C254.969 431.003 255.559 431.163 256.241 431.163C256.706 431.163 257.113 431.09 257.462 430.945C257.816 430.8 258.112 430.607 258.35 430.364C258.593 430.116 258.777 429.846 258.9 429.552L259.98 429.903C259.831 430.317 259.586 430.698 259.245 431.048C258.909 431.397 258.487 431.678 257.98 431.891C257.477 432.1 256.897 432.205 256.241 432.205ZM263.868 425.864V432H262.731V422.182H263.836V423.722H263.939C264.169 423.219 264.527 422.817 265.013 422.514C265.503 422.207 266.108 422.054 266.828 422.054C267.488 422.054 268.068 422.192 268.567 422.469C269.069 422.742 269.459 423.145 269.736 423.678C270.018 424.21 270.158 424.864 270.158 425.64V432H269.02V425.71C269.02 424.905 268.795 424.268 268.343 423.799C267.895 423.33 267.295 423.096 266.54 423.096C266.025 423.096 265.567 423.207 265.166 423.428C264.765 423.65 264.448 423.969 264.214 424.387C263.983 424.8 263.868 425.293 263.868 425.864ZM276.99 432.205C276.112 432.205 275.347 431.985 274.695 431.546C274.047 431.107 273.544 430.506 273.186 429.744C272.828 428.981 272.65 428.112 272.65 427.136C272.65 426.151 272.831 425.276 273.193 424.509C273.559 423.741 274.066 423.141 274.714 422.706C275.362 422.267 276.114 422.048 276.971 422.048C277.627 422.048 278.221 422.175 278.754 422.431C279.287 422.683 279.725 423.038 280.071 423.499C280.42 423.955 280.64 424.487 280.729 425.097H279.578C279.459 424.543 279.172 424.07 278.716 423.678C278.264 423.281 277.689 423.083 276.99 423.083C276.363 423.083 275.809 423.254 275.328 423.594C274.846 423.931 274.469 424.402 274.196 425.007C273.928 425.608 273.794 426.305 273.794 427.097C273.794 427.894 273.926 428.599 274.19 429.213C274.454 429.822 274.825 430.3 275.302 430.645C275.784 430.99 276.346 431.163 276.99 431.163C277.424 431.163 277.821 431.082 278.179 430.92C278.541 430.754 278.843 430.519 279.086 430.217C279.333 429.914 279.5 429.554 279.585 429.136H280.735C280.65 429.729 280.439 430.257 280.103 430.722C279.77 431.182 279.338 431.544 278.805 431.808C278.277 432.072 277.672 432.205 276.99 432.205ZM286.99 432.205C286.142 432.205 285.392 431.989 284.74 431.559C284.092 431.129 283.585 430.534 283.219 429.776C282.852 429.013 282.669 428.133 282.669 427.136C282.669 426.13 282.852 425.246 283.219 424.483C283.585 423.716 284.092 423.119 284.74 422.693C285.392 422.263 286.142 422.048 286.99 422.048C287.838 422.048 288.586 422.263 289.234 422.693C289.881 423.124 290.388 423.72 290.755 424.483C291.126 425.246 291.311 426.13 291.311 427.136C291.311 428.133 291.128 429.013 290.761 429.776C290.395 430.534 289.886 431.129 289.234 431.559C288.586 431.989 287.838 432.205 286.99 432.205ZM286.99 431.163C287.672 431.163 288.249 430.979 288.722 430.613C289.195 430.246 289.553 429.759 289.796 429.149C290.043 428.54 290.167 427.869 290.167 427.136C290.167 426.403 290.043 425.729 289.796 425.116C289.553 424.502 289.195 424.01 288.722 423.639C288.249 423.268 287.672 423.083 286.99 423.083C286.313 423.083 285.735 423.268 285.258 423.639C284.785 424.01 284.425 424.502 284.178 425.116C283.935 425.729 283.813 426.403 283.813 427.136C283.813 427.869 283.935 428.54 284.178 429.149C284.425 429.759 284.785 430.246 285.258 430.613C285.731 430.979 286.308 431.163 286.99 431.163ZM294.947 425.864V432H293.809V422.182H294.915V423.722H295.017C295.247 423.219 295.605 422.817 296.091 422.514C296.581 422.207 297.186 422.054 297.906 422.054C298.567 422.054 299.146 422.192 299.645 422.469C300.148 422.742 300.537 423.145 300.814 423.678C301.096 424.21 301.236 424.864 301.236 425.64V432H300.099V425.71C300.099 424.905 299.873 424.268 299.421 423.799C298.974 423.33 298.373 423.096 297.618 423.096C297.103 423.096 296.645 423.207 296.244 423.428C295.844 423.65 295.526 423.969 295.292 424.387C295.062 424.8 294.947 425.293 294.947 425.864ZM308.1 422.182V423.173H303.414V422.182H308.1ZM304.878 419.83H306.022V429.437C306.022 429.846 306.093 430.168 306.233 430.402C306.374 430.632 306.557 430.796 306.783 430.894C307.009 430.988 307.25 431.035 307.505 431.035C307.654 431.035 307.782 431.026 307.889 431.009C307.995 430.988 308.089 430.967 308.17 430.945L308.413 431.974C308.302 432.017 308.166 432.055 308.004 432.089C307.842 432.128 307.642 432.147 307.403 432.147C306.985 432.147 306.583 432.055 306.195 431.872C305.811 431.689 305.496 431.416 305.249 431.054C305.002 430.692 304.878 430.242 304.878 429.705V419.83ZM310.684 432V422.182H311.79V423.69H311.873C312.069 423.196 312.41 422.798 312.895 422.495C313.385 422.188 313.939 422.035 314.557 422.035C314.651 422.035 314.756 422.037 314.871 422.041C314.986 422.045 315.081 422.05 315.158 422.054V423.211C315.107 423.202 315.018 423.19 314.89 423.173C314.762 423.156 314.623 423.147 314.474 423.147C313.963 423.147 313.507 423.256 313.106 423.473C312.71 423.686 312.397 423.982 312.167 424.362C311.937 424.741 311.822 425.173 311.822 425.659V432H310.684ZM319.842 432.224C319.25 432.224 318.708 432.109 318.218 431.879C317.728 431.644 317.338 431.308 317.049 430.869C316.759 430.425 316.614 429.888 316.614 429.258C316.614 428.772 316.706 428.363 316.889 428.031C317.072 427.698 317.332 427.425 317.669 427.212C318.005 426.999 318.404 426.831 318.864 426.707C319.324 426.584 319.831 426.488 320.385 426.42C320.935 426.352 321.4 426.292 321.779 426.241C322.162 426.19 322.454 426.109 322.654 425.998C322.855 425.887 322.955 425.708 322.955 425.461V425.231C322.955 424.562 322.755 424.036 322.354 423.652C321.958 423.264 321.387 423.07 320.641 423.07C319.934 423.07 319.356 423.226 318.909 423.537C318.466 423.848 318.154 424.214 317.975 424.636L316.895 424.246C317.117 423.71 317.424 423.281 317.816 422.962C318.208 422.638 318.647 422.406 319.132 422.265C319.618 422.12 320.11 422.048 320.609 422.048C320.984 422.048 321.374 422.097 321.779 422.195C322.188 422.293 322.567 422.463 322.917 422.706C323.266 422.945 323.549 423.279 323.767 423.71C323.984 424.136 324.093 424.677 324.093 425.333V432H322.955V430.447H322.885C322.748 430.737 322.546 431.018 322.277 431.29C322.009 431.563 321.672 431.787 321.267 431.962C320.863 432.136 320.387 432.224 319.842 432.224ZM319.995 431.182C320.6 431.182 321.125 431.048 321.568 430.779C322.011 430.511 322.352 430.155 322.591 429.712C322.833 429.264 322.955 428.772 322.955 428.235V426.816C322.87 426.897 322.727 426.969 322.527 427.033C322.331 427.097 322.103 427.155 321.843 427.206C321.587 427.253 321.331 427.293 321.076 427.327C320.82 427.362 320.59 427.391 320.385 427.417C319.831 427.485 319.358 427.592 318.966 427.737C318.574 427.881 318.274 428.082 318.065 428.337C317.856 428.589 317.752 428.913 317.752 429.309C317.752 429.906 317.965 430.368 318.391 430.696C318.817 431.02 319.352 431.182 319.995 431.182ZM330.654 432.205C329.849 432.205 329.143 431.991 328.538 431.565C327.933 431.139 327.46 430.545 327.119 429.782C326.783 429.019 326.614 428.131 326.614 427.116C326.614 426.107 326.783 425.222 327.119 424.464C327.46 423.701 327.935 423.109 328.545 422.687C329.154 422.261 329.864 422.048 330.673 422.048C331.27 422.048 331.766 422.154 332.163 422.367C332.559 422.576 332.876 422.836 333.115 423.147C333.354 423.458 333.539 423.761 333.671 424.055H333.773V418.909H334.918V432H333.805V430.178H333.671C333.539 430.477 333.352 430.783 333.109 431.099C332.866 431.41 332.544 431.672 332.143 431.885C331.747 432.098 331.251 432.205 330.654 432.205ZM330.788 431.163C331.423 431.163 331.964 430.99 332.412 430.645C332.859 430.295 333.2 429.816 333.435 429.207C333.673 428.593 333.793 427.89 333.793 427.097C333.793 426.313 333.675 425.621 333.441 425.02C333.207 424.415 332.866 423.942 332.418 423.601C331.971 423.256 331.428 423.083 330.788 423.083C330.132 423.083 329.578 423.262 329.126 423.62C328.679 423.974 328.338 424.453 328.104 425.058C327.874 425.663 327.759 426.343 327.759 427.097C327.759 427.86 327.876 428.548 328.11 429.162C328.344 429.776 328.685 430.263 329.133 430.626C329.585 430.984 330.136 431.163 330.788 431.163ZM340.901 432.224C340.308 432.224 339.767 432.109 339.277 431.879C338.787 431.644 338.397 431.308 338.107 430.869C337.817 430.425 337.673 429.888 337.673 429.258C337.673 428.772 337.764 428.363 337.947 428.031C338.131 427.698 338.391 427.425 338.727 427.212C339.064 426.999 339.462 426.831 339.923 426.707C340.383 426.584 340.89 426.488 341.444 426.42C341.994 426.352 342.458 426.292 342.837 426.241C343.221 426.19 343.513 426.109 343.713 425.998C343.913 425.887 344.013 425.708 344.013 425.461V425.231C344.013 424.562 343.813 424.036 343.413 423.652C343.016 423.264 342.445 423.07 341.7 423.07C340.992 423.07 340.415 423.226 339.967 423.537C339.524 423.848 339.213 424.214 339.034 424.636L337.954 424.246C338.175 423.71 338.482 423.281 338.874 422.962C339.266 422.638 339.705 422.406 340.191 422.265C340.677 422.12 341.169 422.048 341.668 422.048C342.043 422.048 342.433 422.097 342.837 422.195C343.246 422.293 343.626 422.463 343.975 422.706C344.325 422.945 344.608 423.279 344.825 423.71C345.043 424.136 345.151 424.677 345.151 425.333V432H344.013V430.447H343.943C343.807 430.737 343.604 431.018 343.336 431.29C343.067 431.563 342.731 431.787 342.326 431.962C341.921 432.136 341.446 432.224 340.901 432.224ZM341.054 431.182C341.659 431.182 342.183 431.048 342.626 430.779C343.07 430.511 343.411 430.155 343.649 429.712C343.892 429.264 344.013 428.772 344.013 428.235V426.816C343.928 426.897 343.786 426.969 343.585 427.033C343.389 427.097 343.161 427.155 342.901 427.206C342.646 427.253 342.39 427.293 342.134 427.327C341.879 427.362 341.648 427.391 341.444 427.417C340.89 427.485 340.417 427.592 340.025 427.737C339.633 427.881 339.332 428.082 339.124 428.337C338.915 428.589 338.81 428.913 338.81 429.309C338.81 429.906 339.023 430.368 339.45 430.696C339.876 431.02 340.411 431.182 341.054 431.182ZM349.086 432.096C348.834 432.096 348.617 432.006 348.434 431.827C348.255 431.644 348.165 431.427 348.165 431.175C348.165 430.92 348.255 430.702 348.434 430.523C348.617 430.344 348.834 430.255 349.086 430.255C349.341 430.255 349.559 430.344 349.738 430.523C349.917 430.702 350.006 430.92 350.006 431.175C350.006 431.342 349.963 431.495 349.878 431.636C349.797 431.776 349.686 431.889 349.546 431.974C349.409 432.055 349.256 432.096 349.086 432.096ZM353.92 432.096C353.668 432.096 353.451 432.006 353.268 431.827C353.089 431.644 352.999 431.427 352.999 431.175C352.999 430.92 353.089 430.702 353.268 430.523C353.451 430.344 353.668 430.255 353.92 430.255C354.175 430.255 354.393 430.344 354.572 430.523C354.751 430.702 354.84 430.92 354.84 431.175C354.84 431.342 354.797 431.495 354.712 431.636C354.631 431.776 354.52 431.889 354.38 431.974C354.243 432.055 354.09 432.096 353.92 432.096ZM358.754 432.096C358.502 432.096 358.285 432.006 358.102 431.827C357.923 431.644 357.833 431.427 357.833 431.175C357.833 430.92 357.923 430.702 358.102 430.523C358.285 430.344 358.502 430.255 358.754 430.255C359.009 430.255 359.227 430.344 359.406 430.523C359.585 430.702 359.674 430.92 359.674 431.175C359.674 431.342 359.631 431.495 359.546 431.636C359.465 431.776 359.354 431.889 359.214 431.974C359.077 432.055 358.924 432.096 358.754 432.096Z" fill="#A3A3A3"/>
</svg>
