<svg width="500" height="500" viewBox="0 0 500 500" fill="none" xmlns="http://www.w3.org/2000/svg">
<path d="M77.07 445.61C77.94 442.17 75.67 438.73 73.13 436.25C70.59 433.77 67.55 431.56 66.22 428.25C64.06 422.92 66.88 415.98 63.22 411.55C61.07 408.94 57.22 408.08 55.32 405.29C54.436 403.745 53.8461 402.05 53.58 400.29C51.5088 391.433 47.0948 383.296 40.8 376.73C40.4262 384.639 42.1841 392.503 45.89 399.5C47.38 402.3 49.2 405.02 49.71 408.14C50.53 413.22 47.71 418.46 49 423.44C50.46 429.14 56.89 432.92 57.23 438.79C57.51 443.79 53.23 448.13 53.56 453.09C53.8255 455.21 54.5935 457.236 55.8 459C59.68 465.36 65.34 469.72 73.88 469.53L84.35 469.84L77.07 445.61Z" fill="#F5F5F5"/>
<path d="M86.47 470.06C87.4272 470.203 88.4022 470.176 89.35 469.98C90.5091 469.802 91.6479 469.511 92.75 469.11C94.2657 468.57 95.6815 467.783 96.94 466.78C97.6887 466.16 98.2755 465.367 98.65 464.47C98.9614 463.456 99.1198 462.401 99.12 461.34C99.1339 460.206 99.2107 459.075 99.35 457.95C99.5483 456.756 99.9762 455.611 100.61 454.58C101.83 452.4 103.87 450.34 104.51 447.39C105.15 444.44 104.68 441.39 104.18 438.22C103.68 435.05 103.18 431.67 104.37 428.39C105.56 425.11 107.75 422.14 108.87 418.44C109.99 414.74 109.44 410.71 109.66 406.75C109.723 404.742 110.174 402.766 110.99 400.93C111.83 399.07 112.99 397.32 113.9 395.37C115.73 391.37 116.03 386.94 116.52 382.56C116.753 380.353 116.99 378.123 117.23 375.87C117.375 373.603 117.753 371.358 118.36 369.17C119.05 366.96 119.872 364.792 120.82 362.68C121.314 361.585 121.715 360.451 122.02 359.29C122.19 358.096 122.297 356.895 122.34 355.69C122.438 353.268 122.331 350.843 122.02 348.44C121.72 346.03 121.27 343.64 121.02 341.22C121.02 341.07 121.02 340.93 121.02 340.8L120.96 340.32L120.53 340.54C118.318 341.681 116.398 343.317 114.92 345.32C113.486 347.283 112.335 349.437 111.5 351.72C109.78 356.23 109.17 360.94 108.32 365.45C107.47 369.96 106.32 374.38 104.09 378.13C102.95 380 101.58 381.71 100.37 383.53C99.0816 385.315 98.2071 387.365 97.81 389.53C97.21 393.96 99.68 397.84 99.19 401.76C98.9577 403.686 98.3167 405.541 97.31 407.2C96.37 408.88 95.31 410.44 94.21 412C93.1368 413.528 92.2062 415.151 91.43 416.85C90.7017 418.511 90.275 420.289 90.17 422.1C89.94 425.63 90.46 428.98 90.22 432.1C89.9447 435.112 89.0818 438.04 87.68 440.72C86.43 443.3 85.04 445.63 83.87 447.9C83.2894 448.985 82.7654 450.1 82.3 451.24C81.888 452.313 81.5865 453.425 81.4 454.56C81.1128 456.55 81.1128 458.57 81.4 460.56C81.6815 463.321 82.7196 465.951 84.4 468.16C84.6529 468.49 84.9376 468.795 85.25 469.07C85.4574 469.289 85.6888 469.483 85.94 469.65C86.33 469.94 86.54 470.07 86.54 470.07C85.8061 469.474 85.1359 468.804 84.54 468.07C82.9163 465.859 81.9212 463.25 81.66 460.52C81.4107 458.562 81.4444 456.578 81.76 454.63C81.9432 453.52 82.2483 452.433 82.67 451.39C83.1355 450.263 83.6595 449.162 84.24 448.09C85.42 445.85 86.83 443.52 88.11 440.92C89.5536 438.198 90.444 435.217 90.73 432.15C90.99 428.92 90.48 425.57 90.73 422.15C90.7941 420.38 91.1734 418.636 91.85 417C92.6239 415.338 93.5442 413.748 94.6 412.25C95.65 410.7 96.77 409.14 97.74 407.42C98.8035 405.698 99.4855 403.768 99.74 401.76C100.22 397.58 97.74 393.68 98.38 389.56C98.7701 387.492 99.6174 385.538 100.86 383.84C102.04 382.05 103.43 380.34 104.6 378.42C106.95 374.56 108.08 370.05 108.92 365.53C109.76 361.01 110.39 356.33 112.08 351.92C112.894 349.696 114.019 347.599 115.42 345.69C116.829 343.763 118.667 342.192 120.79 341.1L120.31 340.83C120.31 340.97 120.31 341.11 120.31 341.26C120.58 343.7 121.03 346.1 121.31 348.48C121.621 350.846 121.728 353.235 121.63 355.62C121.57 356.78 121.5 358.01 121.33 359.11C121.031 360.229 120.644 361.323 120.17 362.38C119.214 364.516 118.382 366.707 117.68 368.94C117.068 371.165 116.686 373.447 116.54 375.75C116.31 378.01 116.07 380.24 115.84 382.45C115.36 386.85 115.06 391.25 113.29 395.07C112.42 396.97 111.29 398.73 110.4 400.64C109.561 402.533 109.096 404.57 109.03 406.64C108.82 410.64 109.37 414.64 108.3 418.21C107.23 421.78 104.97 424.76 103.83 428.14C102.69 431.52 103.15 435.09 103.67 438.22C104.19 441.35 104.72 444.43 104.06 447.22C103.4 450.01 101.49 452.08 100.24 454.31C99.5902 455.411 99.1685 456.632 99 457.9C98.8633 459.038 98.7932 460.183 98.79 461.33C98.7951 462.345 98.6537 463.355 98.37 464.33C98.022 465.19 97.4653 465.949 96.75 466.54C95.5265 467.537 94.1483 468.327 92.67 468.88C91.5843 469.292 90.4629 469.604 89.32 469.81C88.617 469.939 87.9045 470.009 87.19 470.02L86.47 470.06Z" fill="#E0E0E0"/>
<path d="M118.84 346.58C118.788 346.676 118.754 346.781 118.74 346.89C118.68 347.14 118.61 347.45 118.51 347.84C118.31 348.66 118.07 349.91 117.69 351.46C117.31 353.01 116.35 354.78 115.55 356.94C114.75 359.1 113.87 361.58 113.1 364.38C112.33 367.18 111.63 370.28 110.91 373.6C110.289 377.148 109.182 380.594 107.62 383.84C106.77 385.55 105.81 387.28 105.06 389.16C104.318 391.09 103.821 393.106 103.58 395.16C103.078 399.419 102.35 403.648 101.4 407.83L95.6201 432.05C93.8001 439.47 92.1501 446.16 90.7701 451.8C89.3901 457.44 88.3301 462 87.5601 465.15C87.2001 466.69 86.9201 467.9 86.7201 468.78C86.6401 469.17 86.5701 469.48 86.5201 469.78C86.5093 469.89 86.5093 470 86.5201 470.11C86.5709 470.012 86.6079 469.908 86.6301 469.8L86.9001 468.86C87.1301 467.99 87.4601 466.79 87.9001 465.26C88.7201 462.07 89.9001 457.55 91.3201 451.98C92.7401 446.41 94.4401 439.68 96.3201 432.27C98.2001 424.86 100 416.59 102.06 408C103.01 403.801 103.738 399.555 104.24 395.28C104.46 393.271 104.934 391.299 105.65 389.41C106.38 387.57 107.32 385.85 108.17 384.13C109.746 380.834 110.85 377.333 111.45 373.73C112.15 370.4 112.81 367.3 113.56 364.52C114.31 361.74 115.1 359.24 115.9 357.09C116.7 354.94 117.57 353.15 117.9 351.54C118.23 349.93 118.45 348.71 118.61 347.87C118.67 347.49 118.72 347.17 118.77 346.92C118.808 346.81 118.831 346.696 118.84 346.58Z" fill="#E0E0E0"/>
<path d="M88.3199 470.08C95.1299 465.98 97.0199 453.63 94.1299 446.23C91.2399 438.83 86.2099 432.06 85.3899 424.15C84.7599 418.07 86.7199 411.82 85.2699 405.88C83.2699 397.88 75.4399 391.69 75.4899 383.44C75.4899 378.81 78.1199 374.44 77.8799 369.82C77.5899 364.15 73.2099 359.67 70.4899 354.69C66.3199 347.07 65.9999 338 64.5399 329.46C63.0799 320.92 59.7599 311.72 52.1299 307.55C51.0499 314.84 49.1299 319.84 49.8199 329.7C50.0599 333.24 54.2099 340 54.8199 347.76C55.1799 352.39 55.4399 357.04 55.7499 361.68C56.0599 366.32 56.3599 370.8 57.9999 375C59.2599 378.23 61.2699 381.16 62.2099 384.5C63.9799 390.78 61.7399 397.61 63.2099 403.98C64.4299 409.37 68.2099 413.98 68.9899 419.47C70.1099 427.16 65.1699 435.18 67.7599 442.47C69.0499 446.1 72.0599 449.01 72.9299 452.76C73.6099 455.68 72.9299 458.76 73.5199 461.7C74.5199 466.42 83.5199 470.03 88.3499 469.7" fill="#E0E0E0"/>
<path d="M54.06 314.77C54.0467 314.906 54.0467 315.044 54.06 315.18C54.06 315.49 54.15 315.88 54.22 316.38C54.38 317.43 54.57 318.97 54.93 320.96C55.29 322.95 56.37 325.22 57.22 327.96C58.07 330.7 58.99 333.81 59.78 337.31C60.57 340.81 61.25 344.69 61.96 348.87C62.67 353.05 63.44 357.59 65.54 361.93C66.54 364.11 67.6 366.29 68.42 368.61C69.2302 371.001 69.7375 373.483 69.93 376C70.3357 381.327 71.0267 386.627 72 391.88C74.15 402.66 76.21 412.88 78.07 422.27C79.93 431.66 81.84 440 83.33 447C84.82 454 86.06 459.69 86.91 463.67L87.91 468.2C88.03 468.68 88.12 469.07 88.19 469.37C88.2158 469.504 88.256 469.635 88.31 469.76C88.3211 469.624 88.3211 469.486 88.31 469.35C88.25 469.05 88.18 468.66 88.09 468.17C87.88 467.08 87.59 465.56 87.21 463.62C86.41 459.62 85.21 453.93 83.84 446.9C82.47 439.87 80.66 431.45 78.75 422.13C76.84 412.81 74.87 402.53 72.75 391.76C71.7712 386.514 71.0703 381.22 70.65 375.9C70.4569 373.335 69.9395 370.805 69.11 368.37C68.27 365.99 67.17 363.8 66.19 361.64C64.11 357.37 63.36 352.9 62.6 348.74C61.84 344.58 61.16 340.68 60.33 337.17C59.5976 334.011 58.7064 330.89 57.66 327.82C56.78 325.09 55.66 322.82 55.28 320.9C54.9 318.98 54.65 317.38 54.44 316.34C54.35 315.85 54.27 315.46 54.22 315.16C54.1777 315.026 54.1242 314.895 54.06 314.77Z" fill="#EBEBEB"/>
<path d="M210.31 55.2299C216.15 48.4199 231.31 52.6999 241.73 58.2299C241.73 58.2299 248.89 61.6099 251.55 63.3599H251.64L275.96 60.3599C277.937 60.1058 279.945 60.4544 281.72 61.3599L283.72 62.3599C283.945 62.4761 284.133 62.6539 284.262 62.8725C284.39 63.0912 284.454 63.3418 284.445 63.5952C284.437 63.8486 284.357 64.0945 284.214 64.3042C284.072 64.5139 283.873 64.6789 283.64 64.7799L265.73 72.4299V72.6499L283.41 84.2699L283.68 84.4399C287.014 86.5779 291.032 87.3779 294.93 86.6799L304.4 84.9799C304.879 84.8887 305.373 84.9302 305.83 85.0999C306.213 85.2557 306.549 85.5079 306.806 85.8319C307.063 86.1559 307.232 86.5408 307.296 86.9492C307.361 87.3577 307.318 87.7758 307.174 88.1631C307.029 88.5505 306.787 88.8938 306.47 89.1599L295.47 98.3199C294.63 99.0251 293.606 99.4767 292.519 99.6219C291.432 99.7671 290.326 99.5999 289.33 99.1399L284.19 96.7799L258.19 84.4099L261.19 99.1999C261.21 99.3425 261.199 99.4877 261.158 99.6257C261.117 99.7637 261.047 99.8912 260.952 99.9994C260.857 100.108 260.74 100.194 260.608 100.253C260.477 100.312 260.334 100.341 260.19 100.34H258.97C258.151 100.305 257.355 100.063 256.655 99.6362C255.956 99.2094 255.376 98.612 254.97 97.8999L244.5 77.8999L213.82 63.3099C209.73 61.4299 208.27 57.9199 210.31 55.2299Z" fill="#E0E0E0"/>
<path d="M40 120.71L117.11 119C117.11 119 110 106.71 90.2 109C71.28 111.15 70.14 103.34 60.47 102.6C50.8 101.86 42.94 109.39 40 120.71Z" fill="#F5F5F5"/>
<path d="M400.58 162.42H473.23C473.23 162.42 466.81 150.72 448.11 152.42C430.24 154.04 429.34 146.66 420.25 145.76C411.16 144.86 403.6 151.82 400.58 162.42Z" fill="#F5F5F5"/>
<path d="M83.9099 82.4399H139.33C139.33 82.4399 134.43 73.5199 120.16 74.8199C106.54 76.0599 105.85 70.4299 98.9199 69.7299C91.9899 69.0299 86.2199 74.3499 83.9099 82.4399Z" fill="#F5F5F5"/>
<path d="M400.65 199.08H436.9C436.9 199.08 433.7 193.24 424.37 194.08C415.45 194.89 415 191.21 410.47 190.76C405.94 190.31 402.16 193.79 400.65 199.08Z" fill="#F5F5F5"/>
<path d="M382.52 98.7199H418.78C418.78 98.7199 415.57 92.8799 406.24 93.7199C397.32 94.5299 396.87 90.8499 392.34 90.3999C387.81 89.9499 384 93.4299 382.52 98.7199Z" fill="#FAFAFA"/>
<path d="M474.43 470.14C474.43 470.28 373.5 470.4 249.01 470.4C124.52 470.4 23.5701 470.28 23.5701 470.14C23.5701 470 124.48 469.88 249.01 469.88C373.54 469.88 474.43 470 474.43 470.14Z" fill="#263238"/>
<path d="M405.35 293.8C405.278 293.101 404.948 292.453 404.425 291.984C403.902 291.514 403.223 291.256 402.52 291.26H381.17C380.754 291.261 380.343 291.354 379.966 291.532C379.59 291.711 379.258 291.971 378.994 292.293C378.73 292.615 378.541 292.992 378.44 293.396C378.339 293.8 378.329 294.221 378.41 294.63C378.536 295.282 378.889 295.869 379.408 296.285C379.926 296.701 380.576 296.919 381.24 296.9H402.53C402.924 296.899 403.314 296.816 403.674 296.656C404.035 296.496 404.358 296.262 404.623 295.971C404.888 295.679 405.09 295.336 405.215 294.962C405.34 294.588 405.386 294.192 405.35 293.8Z" fill="#263238"/>
<path d="M451.92 463.14C451.724 464.473 451.929 465.834 452.507 467.051C453.085 468.267 454.011 469.286 455.167 469.976C456.324 470.667 457.66 470.998 459.005 470.93C460.351 470.861 461.645 470.395 462.726 469.59C463.806 468.785 464.624 467.678 465.075 466.409C465.526 465.14 465.59 463.765 465.26 462.459C464.93 461.153 464.219 459.974 463.219 459.072C462.219 458.169 460.973 457.584 459.64 457.39C457.854 457.13 456.038 457.589 454.59 458.667C453.142 459.745 452.182 461.354 451.92 463.14Z" fill="#263238"/>
<path d="M457.24 464.17L453.09 455.59L455.27 454.2L459.29 463.16L457.24 464.17Z" fill="#455A64"/>
<path d="M418.78 358.54L392.99 291.25L388.09 293.71L413.08 360.39L418.78 358.54Z" fill="#263238"/>
<path d="M478.328 447.422L440.226 462.561C439.546 462.831 438.786 462.82 438.114 462.531C437.442 462.241 436.912 461.696 436.642 461.015L398.745 365.639C397.313 362.035 397.371 358.011 398.907 354.45C400.442 350.89 403.329 348.085 406.933 346.653L422.992 340.272C426.595 338.841 430.62 338.899 434.18 340.435C437.741 341.97 440.545 344.857 441.977 348.461L479.874 443.837C480.144 444.518 480.133 445.277 479.844 445.95C479.554 446.622 479.009 447.151 478.328 447.422Z" fill="#BA68C8"/>
<path d="M436.6 461.45C436.6 461.45 436.54 461.25 436.4 460.87L435.77 459.18L433.29 452.69L424.06 428.88C420.13 418.83 415.47 406.88 410.29 393.59L402.14 372.76C401.44 370.96 400.72 369.14 400.01 367.3C399.257 365.5 398.982 363.537 399.21 361.6C399.456 359.626 400.23 357.754 401.45 356.183C402.671 354.612 404.292 353.399 406.144 352.672C407.996 351.945 410.01 351.731 411.973 352.053C413.937 352.375 415.777 353.22 417.3 354.5C418.778 355.77 419.91 357.394 420.59 359.22L422.73 364.69C425.57 371.91 428.31 378.87 430.91 385.51L444.8 420.75C448.8 430.75 451.97 438.86 454.21 444.49L456.79 450.94C457.09 451.65 457.31 452.21 457.48 452.61C457.65 453.01 457.73 453.17 457.73 453.17C457.73 453.17 457.67 452.97 457.53 452.58L456.9 450.89C456.33 449.39 455.49 447.21 454.42 444.41L445.19 420.6L431.42 385.31C428.83 378.67 426.1 371.7 423.27 364.48C422.57 362.67 421.85 360.85 421.13 359.01C420.431 357.073 419.242 355.351 417.68 354.01C416.076 352.66 414.137 351.769 412.068 351.429C409.999 351.09 407.877 351.315 405.925 352.081C403.974 352.847 402.265 354.125 400.979 355.781C399.693 357.437 398.878 359.409 398.62 361.49C398.378 363.529 398.668 365.596 399.46 367.49L401.6 373C404.44 380.21 407.18 387.18 409.78 393.81C415 407.05 419.71 419 423.66 429L433.07 452.75L435.66 459.19C435.95 459.91 436.18 460.46 436.35 460.86C436.421 461.061 436.505 461.259 436.6 461.45Z" fill="#263238"/>
<path d="M434.14 393.67C434.22 393.93 439.2 391.96 445.27 389.29C451.34 386.62 456.19 384.23 456.11 383.98C456.03 383.73 451.04 385.68 444.98 388.36C438.92 391.04 434.06 393.41 434.14 393.67Z" fill="#263238"/>
<path d="M400.44 291.25L395.99 282.45C395.491 281.466 394.658 280.693 393.64 280.27L386.64 277.35L367.78 251.77L366 271.36L378 283.75C378 283.75 385.53 299.61 391.68 298.8C391.527 297.371 391.107 295.983 390.44 294.71C388.44 291.25 390.57 291.25 390.85 291.27H396L400.44 291.25Z" fill="#FFBE9D"/>
<path d="M369.65 277.72C370.22 278.57 374.88 284.89 374.88 284.89L388.09 275.28L383.29 270.59L369.65 277.72Z" fill="#BA68C8"/>
<path d="M390.48 294.71C390.48 294.71 393.92 296.71 394.35 298.33V299.33L390.23 298.73L390.48 294.71Z" fill="#FFBE9D"/>
<path d="M395.09 296.59C394.48 296.113 394.005 295.486 393.71 294.77C393.577 294.409 393.584 294.011 393.728 293.654C393.872 293.298 394.144 293.007 394.49 292.84C395.2 292.6 395.93 293.11 396.49 293.62C397.193 294.249 397.861 294.917 398.49 295.62C398.788 295.876 399.021 296.198 399.171 296.562C399.32 296.925 399.382 297.318 399.35 297.71C399.258 298.014 399.073 298.282 398.823 298.477C398.572 298.672 398.267 298.785 397.95 298.8C397.631 298.807 397.313 298.748 397.018 298.628C396.722 298.507 396.454 298.328 396.23 298.1C395.785 297.651 395.428 297.122 395.18 296.54" fill="#FFBE9D"/>
<path d="M398.58 296.29C397.97 295.813 397.495 295.186 397.2 294.47C397.067 294.109 397.074 293.711 397.218 293.354C397.362 292.998 397.634 292.707 397.98 292.54C398.69 292.3 399.42 292.81 399.98 293.32C400.683 293.949 401.351 294.617 401.98 295.32C402.278 295.576 402.511 295.898 402.661 296.262C402.81 296.625 402.872 297.018 402.84 297.41C402.748 297.714 402.563 297.982 402.313 298.177C402.062 298.372 401.757 298.485 401.44 298.5C401.121 298.506 400.804 298.447 400.508 298.327C400.212 298.207 399.944 298.027 399.72 297.8C399.275 297.351 398.918 296.822 398.67 296.24" fill="#FFBE9D"/>
<path d="M388.09 281.27C388.09 281.15 388.98 281.19 390.01 282.08C390.489 282.665 390.889 283.311 391.2 284C391.666 284.837 391.9 285.782 391.88 286.74C391.737 287.681 391.366 288.574 390.8 289.34C390.417 289.956 390.14 290.632 389.98 291.34C389.835 291.996 389.788 292.67 389.84 293.34C389.667 293.027 389.558 292.683 389.52 292.327C389.482 291.972 389.516 291.612 389.62 291.27C389.741 290.512 390.002 289.782 390.39 289.12C390.898 288.405 391.24 287.585 391.39 286.72C391.401 285.851 391.199 284.992 390.8 284.22C390.537 283.555 390.202 282.921 389.8 282.33C389.456 281.99 389.066 281.7 388.64 281.47C388.461 281.393 388.277 281.326 388.09 281.27Z" fill="#EB996E"/>
<path d="M245.78 191.01L231.76 235.83L273 278.9L310.79 269.08L245.78 191.01Z" fill="#F5F5F5"/>
<path d="M245.77 191L246.09 191.37L247.04 192.49L250.72 196.87L264.43 213.22L311 268.92L311.26 269.23L310.87 269.33L289.57 274.87L273.08 279.15H272.93L272.83 279.04L231.61 236L231.53 235.91V235.8C235.87 222.07 239.43 210.86 241.9 203.06C243.12 199.2 244.08 196.19 244.74 194.13L245.48 191.81C245.65 191.3 245.73 191.04 245.73 191.04C245.25 192.61 240.32 208.64 231.92 235.92L231.87 235.72L273.14 278.72L272.89 278.65L289.38 274.36L310.68 268.82L310.55 269.24L264.4 213.56L250.74 197.06L247.06 192.59L246.06 191.43L245.77 191Z" fill="#263238"/>
<path d="M247.06 220.57C247.584 219.756 248.266 219.056 249.067 218.512C249.868 217.968 250.77 217.592 251.719 217.405C252.669 217.218 253.647 217.225 254.594 217.425C255.54 217.626 256.437 218.015 257.23 218.57C259.81 220.57 261 224.34 264.1 225.34C266.34 226.06 268.81 225.01 271.1 225.42C273.81 225.91 275.83 228.42 276.61 231.02C277.39 233.62 277.18 236.49 276.96 239.24L263.55 239.42L247.06 220.57Z" fill="#E0E0E0"/>
<path d="M222.26 195.1L309.16 284.65L273.75 281.06L224.22 228.77L222.26 195.1Z" fill="#F5F5F5"/>
<path d="M222.27 195.1C222.35 196.41 223.07 207.93 224.39 228.76V228.65C237.06 241.99 254.39 260.22 273.98 280.89L273.82 280.81L300.99 283.55L309.23 284.39L309.02 284.83C260.7 234.83 224.23 197.09 222.32 195.1L309.39 284.47L309.89 284.98L309.18 284.91L300.93 284.07L273.77 281.31H273.68L273.61 281.25C254.05 260.54 236.77 242.25 224.14 228.9V228.84C222.94 207.94 222.33 196.41 222.27 195.1Z" fill="#263238"/>
<path d="M256.27 230.69C253.59 233.78 253.98 238.69 256.27 242.1C258.56 245.51 262.34 247.57 266.16 249.04C269.25 250.23 273.06 250.98 275.62 248.88" fill="#E0E0E0"/>
<path d="M251.75 225.82C251.91 226.57 250.97 227.13 250.21 227.06C249.45 226.99 248.75 226.56 247.98 226.52C245.89 226.4 244.75 228.88 243.05 230.09C242.025 230.76 240.779 231.004 239.577 230.77C238.374 230.537 237.31 229.845 236.61 228.84C235.47 227.07 235.5 224.45 233.7 223.36C232.64 222.842 231.426 222.732 230.29 223.05C229.165 223.363 227.995 223.485 226.83 223.41C226.249 223.356 225.704 223.104 225.287 222.696C224.87 222.289 224.606 221.75 224.54 221.17L223.91 220.17L222.43 195.45L251.75 225.82Z" fill="#E0E0E0"/>
<path d="M294.1 282.84C294.546 282.953 295.01 282.974 295.464 282.9C295.918 282.827 296.353 282.662 296.741 282.415C297.129 282.167 297.462 281.843 297.719 281.462C297.977 281.081 298.154 280.652 298.24 280.2C298.351 279.208 298.079 278.21 297.478 277.413C296.877 276.615 295.994 276.077 295.01 275.91C293.24 275.68 291.41 276.71 289.71 276.18C287.77 275.57 286.97 273.32 286.48 271.35C285.99 269.38 285.3 267.13 283.42 266.35C280.31 265.09 277.03 269.08 273.78 268.2C271.37 267.55 270.44 264.65 268.55 263.02C267.785 262.372 266.867 261.931 265.883 261.738C264.899 261.545 263.883 261.608 262.93 261.92C262.065 262.131 261.28 262.59 260.671 263.24C260.062 263.89 259.655 264.703 259.5 265.58L273.85 280.71L294.1 282.84Z" fill="#E0E0E0"/>
<path d="M270.34 434.18L266.77 454.76C266.77 454.76 244.65 458.04 243.62 461.76L283.28 470.12L290.16 438.28L270.34 434.18Z" fill="#BA68C8"/>
<g opacity="0.6">
<path d="M279.4 455.63C279.757 455.826 280.029 456.146 280.163 456.53C280.298 456.914 280.286 457.334 280.13 457.71C279.947 458.074 279.631 458.353 279.248 458.491C278.864 458.628 278.443 458.614 278.07 458.45C277.692 458.242 277.404 457.9 277.264 457.491C277.123 457.083 277.14 456.637 277.31 456.24C277.541 455.88 277.902 455.623 278.318 455.524C278.734 455.426 279.172 455.492 279.54 455.71" fill="white"/>
</g>
<path opacity="0.6" d="M283.28 470.14L284 467L245.64 460.14C245.64 460.14 243.72 460.54 243.64 461.82L283.28 470.14Z" fill="white"/>
<path d="M266.17 454.42C266.17 454.62 267.09 454.91 267.91 455.73C268.73 456.55 269.07 457.48 269.26 457.44C269.45 457.4 269.4 456.22 268.39 455.24C267.38 454.26 266.17 454.24 266.17 454.42Z" fill="#263238"/>
<path d="M261.65 455.27C261.57 455.45 262.34 455.95 262.82 456.91C263.3 457.87 263.31 458.77 263.51 458.81C263.71 458.85 264.06 457.81 263.43 456.59C262.8 455.37 261.69 455.08 261.65 455.27Z" fill="#263238"/>
<path d="M258.24 459.75C258.41 459.83 258.88 458.92 258.61 457.75C258.34 456.58 257.52 455.97 257.4 456.12C257.28 456.27 257.72 456.95 257.94 457.91C258.16 458.87 258.05 459.69 258.24 459.75Z" fill="#263238"/>
<path d="M267.51 449.82C267.51 450.02 268.51 449.94 269.58 450.24C270.65 450.54 271.43 451.07 271.58 450.93C271.73 450.79 271.04 449.93 269.77 449.58C268.5 449.23 267.44 449.65 267.51 449.82Z" fill="#263238"/>
<path opacity="0.3" d="M269.64 438.26L269 441.92L288.53 445.85L289.25 442.58L269.64 438.26Z" fill="black"/>
<path d="M268.3 445.68C268.918 445.992 269.609 446.134 270.3 446.09C271.046 446.119 271.792 446.052 272.52 445.89C272.947 445.795 273.368 445.675 273.78 445.53C274.03 445.454 274.266 445.339 274.48 445.19C274.633 445.079 274.746 444.922 274.802 444.742C274.858 444.561 274.854 444.368 274.79 444.19C274.719 444.035 274.614 443.899 274.482 443.791C274.35 443.684 274.196 443.608 274.03 443.57C273.781 443.516 273.524 443.499 273.27 443.52C272.066 443.554 270.892 443.899 269.86 444.52C268.76 445.18 268.29 445.83 268.35 445.89C268.41 445.95 269 445.46 270.08 444.95C271.085 444.486 272.174 444.234 273.28 444.21C273.72 444.21 274.08 444.26 274.15 444.47C274.22 444.68 274.15 444.58 274.06 444.69C273.9 444.793 273.729 444.877 273.55 444.94C273.163 445.083 272.769 445.207 272.37 445.31C271.689 445.488 270.993 445.602 270.29 445.65C269.627 445.615 268.962 445.625 268.3 445.68Z" fill="#263238"/>
<path d="M268.5 446C268.56 446.05 269.09 445.44 269.43 444.2C269.613 443.472 269.674 442.718 269.61 441.97C269.578 441.522 269.494 441.079 269.36 440.65C269.308 440.366 269.184 440.101 269 439.878C268.817 439.656 268.579 439.484 268.31 439.38C268.132 439.352 267.95 439.372 267.783 439.439C267.616 439.506 267.469 439.617 267.36 439.76C267.209 439.972 267.088 440.205 267 440.45C266.837 440.876 266.743 441.325 266.72 441.78C266.673 442.549 266.814 443.318 267.13 444.02C267.69 445.21 268.45 445.61 268.48 445.55C268.51 445.49 267.97 444.95 267.59 443.83C267.364 443.189 267.282 442.506 267.35 441.83C267.392 441.439 267.486 441.056 267.63 440.69C267.78 440.29 268.01 439.98 268.16 440.06C268.31 440.14 268.63 440.48 268.72 440.85C268.848 441.224 268.941 441.609 269 442C269.097 442.687 269.097 443.383 269 444.07C268.76 445.28 268.4 446 268.5 446Z" fill="#263238"/>
<path d="M400.66 435.43L392.09 424.23L391.64 423.65L377 434.52L390.53 449.38L390.04 464.43C382.5 466.37 381.37 470.14 381.37 470.14H397.03L411.26 442.74L400.66 435.43Z" fill="#BA68C8"/>
<path opacity="0.6" d="M411.29 442.72L397.06 470.12L381.4 470.14L383.16 467.78L395.9 467.07L409.03 441.17L411.29 442.72Z" fill="white"/>
<path d="M390.16 457.53C390.28 457.69 391.16 457.18 392.39 457.21C393.62 457.24 394.49 457.75 394.61 457.59C394.73 457.43 393.88 456.59 392.4 456.52C390.92 456.45 390 457.41 390.16 457.53Z" fill="#263238"/>
<path d="M390.41 453.8C390.57 453.91 391.26 452.99 392.51 452.74C393.76 452.49 394.76 453.07 394.86 452.91C394.96 452.75 394.74 452.57 394.3 452.33C393.706 452.037 393.032 451.948 392.383 452.079C391.733 452.209 391.145 452.55 390.71 453.05C390.4 453.45 390.33 453.76 390.41 453.8Z" fill="#263238"/>
<path d="M390.31 449C390.48 449.09 391.01 448.18 392.1 447.8C393.19 447.42 394.17 447.8 394.25 447.6C394.33 447.4 394.1 447.31 393.66 447.15C393.081 446.942 392.449 446.942 391.87 447.15C391.295 447.359 390.807 447.753 390.48 448.27C390.24 448.68 390.22 449 390.31 449Z" fill="#263238"/>
<path d="M386.11 445.3C386.3 445.36 386.74 444.47 387.71 443.84C388.68 443.21 389.65 443.12 389.71 442.92C389.77 442.72 388.54 442.47 387.37 443.27C386.2 444.07 385.92 445.28 386.11 445.3Z" fill="#263238"/>
<path d="M384.07 442.08C384.15 442.13 384.66 441.5 385.43 440.44L386.76 438.56C387.06 438.173 387.302 437.745 387.48 437.29C387.534 437.126 387.554 436.952 387.538 436.78C387.523 436.609 387.472 436.442 387.39 436.29C387.294 436.127 387.154 435.994 386.986 435.907C386.818 435.82 386.629 435.783 386.44 435.8C385.89 435.905 385.382 436.169 384.98 436.56C384.595 436.868 384.258 437.232 383.98 437.64C383.535 438.323 383.254 439.1 383.16 439.91C382.996 440.638 383.122 441.402 383.51 442.04C383.514 441.351 383.558 440.663 383.64 439.98C383.789 439.262 384.081 438.582 384.5 437.98C384.746 437.635 385.035 437.322 385.36 437.05C385.667 436.769 386.038 436.567 386.44 436.46C386.499 436.452 386.56 436.462 386.613 436.489C386.666 436.516 386.711 436.558 386.74 436.61C386.792 436.752 386.792 436.908 386.74 437.05C386.578 437.435 386.374 437.801 386.13 438.14C385.73 438.81 385.33 439.46 384.93 440.14C384.542 440.736 384.251 441.391 384.07 442.08Z" fill="#263238"/>
<path d="M383.51 442.55C383.58 442.55 383.51 441.72 382.67 440.78C382.093 440.155 381.328 439.736 380.491 439.584C379.654 439.433 378.79 439.558 378.03 439.94C377.95 440.009 377.887 440.096 377.843 440.192C377.8 440.289 377.779 440.394 377.78 440.5C377.79 440.682 377.856 440.857 377.97 441C378.133 441.189 378.321 441.354 378.53 441.49C378.878 441.737 379.25 441.948 379.64 442.12C380.292 442.419 380.987 442.615 381.7 442.7C382.35 442.839 383.027 442.776 383.64 442.52C383.64 442.41 382.9 442.46 381.78 442.22C381.134 442.078 380.509 441.852 379.92 441.55C379.57 441.375 379.236 441.171 378.92 440.94C378.767 440.843 378.629 440.726 378.51 440.59C378.44 440.45 378.51 440.49 378.51 440.45C378.651 440.364 378.807 440.306 378.97 440.28C379.162 440.239 379.355 440.209 379.55 440.19C379.922 440.166 380.296 440.192 380.66 440.27C381.286 440.412 381.867 440.707 382.35 441.13C383.17 441.87 383.4 442.59 383.51 442.55Z" fill="#263238"/>
<path opacity="0.6" d="M398.79 442.25C398.79 442.618 398.899 442.977 399.103 443.283C399.308 443.589 399.598 443.828 399.938 443.968C400.278 444.109 400.652 444.146 401.013 444.074C401.374 444.002 401.705 443.825 401.965 443.565C402.225 443.305 402.403 442.974 402.474 442.613C402.546 442.252 402.509 441.878 402.368 441.538C402.228 441.198 401.989 440.908 401.683 440.703C401.378 440.499 401.018 440.39 400.65 440.39C400.157 440.39 399.684 440.586 399.335 440.935C398.986 441.283 398.79 441.757 398.79 442.25Z" fill="white"/>
<path opacity="0.3" d="M378.39 436.01L381.4 439.32L394.05 426.79L392.29 424.5L378.39 436.01Z" fill="black"/>
<path d="M339.45 175.21C347.819 172.302 356.852 171.892 365.45 174.03C369.26 174.98 373.13 176.56 375.57 179.64C378.46 183.28 378.82 188.24 379.27 192.87C380.174 202.287 381.907 211.607 384.45 220.72C386.57 228.3 389.25 235.72 390.4 243.55C391.55 251.38 391.02 259.67 387.05 266.47C380.93 276.95 367.92 281.58 355.79 281.79C349.41 281.89 342.87 280.96 337.21 278C331.55 275.04 326.84 269.87 325.46 263.64" fill="#BA68C8"/>
<g opacity="0.5">
<path d="M339.45 175.21C347.819 172.302 356.852 171.892 365.45 174.03C369.26 174.98 373.13 176.56 375.57 179.64C378.46 183.28 378.82 188.24 379.27 192.87C380.174 202.287 381.907 211.607 384.45 220.72C386.57 228.3 389.25 235.72 390.4 243.55C391.55 251.38 391.02 259.67 387.05 266.47C380.93 276.95 367.92 281.58 355.79 281.79C349.41 281.89 342.87 280.96 337.21 278C331.55 275.04 326.84 269.87 325.46 263.64" fill="black"/>
</g>
<path d="M356.13 184.81C357.444 185.957 358.61 187.264 359.6 188.7C360.63 190.293 361.532 191.965 362.3 193.7C363.24 195.854 364.319 197.945 365.53 199.96C366.775 202.001 368.489 203.715 370.53 204.96C372.237 205.98 374.245 206.372 376.21 206.07C377.526 205.881 378.759 205.315 379.76 204.44C380.026 204.2 380.261 203.928 380.46 203.63C380.6 203.43 380.66 203.32 380.64 203.31C380.62 203.3 380.3 203.69 379.64 204.24C378.635 205.002 377.443 205.479 376.19 205.62C374.334 205.84 372.459 205.424 370.87 204.44C368.926 203.214 367.294 201.554 366.1 199.59C364.906 197.597 363.827 195.537 362.87 193.42C362.063 191.671 361.103 189.998 360 188.42C359.251 187.351 358.359 186.388 357.35 185.56C356.99 185.242 356.577 184.988 356.13 184.81Z" fill="#E0E0E0"/>
<path d="M373.7 278.48C373.726 278.217 373.726 277.953 373.7 277.69C373.7 277.11 373.7 276.37 373.7 275.45C373.7 273.51 373.56 270.69 373.41 267.22C373.1 260.22 372.56 250.66 371.72 240.08C370.88 229.5 369.93 219.92 369.15 213.01C368.75 209.55 368.41 206.75 368.15 204.83C368.03 203.92 367.92 203.18 367.84 202.61C367.815 202.349 367.765 202.091 367.69 201.84C367.659 202.099 367.659 202.361 367.69 202.62C367.74 203.2 367.81 203.94 367.88 204.85C368.08 206.85 368.35 209.65 368.67 213.05C369.34 219.98 370.23 229.55 371.06 240.13C371.89 250.71 372.51 260.3 372.93 267.24C373.14 270.65 373.31 273.44 373.43 275.46L373.59 277.7C373.604 277.963 373.641 278.224 373.7 278.48Z" fill="#E0E0E0"/>
<path d="M371.21 236C371.21 236.17 375.04 236.13 379.72 235.54C384.4 234.95 388.12 234.07 388.09 233.91C388.06 233.75 384.3 234.33 379.64 234.91C374.98 235.49 371.2 235.78 371.21 236Z" fill="#E0E0E0"/>
<path d="M374.3 235.87C373.996 236.431 373.818 237.053 373.78 237.69C373.665 238.368 373.595 239.053 373.57 239.74C373.536 240.188 373.611 240.638 373.79 241.05C373.902 241.301 374.082 241.515 374.311 241.667C374.539 241.819 374.806 241.903 375.08 241.91C375.236 241.917 375.392 241.887 375.534 241.822C375.676 241.758 375.802 241.661 375.9 241.54C376.073 241.323 376.175 241.057 376.19 240.78C376.203 240.346 376.143 239.913 376.01 239.5C375.843 238.815 375.615 238.145 375.33 237.5C374.84 236.43 374.38 235.86 374.33 235.9C374.471 236.508 374.672 237.101 374.93 237.67C375.14 238.3 375.317 238.941 375.46 239.59C375.553 239.945 375.593 240.313 375.58 240.68C375.58 241.02 375.38 241.23 375.1 241.23C374.43 241.23 374.16 240.42 374.19 239.7C374.22 238.98 374.19 238.27 374.25 237.7C374.343 237.094 374.36 236.48 374.3 235.87Z" fill="#E0E0E0"/>
<path d="M331.202 178.83L371.379 174.138C376.639 173.524 380.406 168.761 379.792 163.501L378.921 156.042C378.307 150.781 373.544 147.014 368.283 147.628L328.106 152.32C322.846 152.934 319.079 157.697 319.693 162.957L320.564 170.417C321.178 175.677 325.941 179.444 331.202 178.83Z" fill="#455A64"/>
<path d="M367.61 148.27C367.61 148.27 367.49 148.19 367.23 148.11C366.846 148 366.449 147.94 366.05 147.93C364.556 147.936 363.107 148.439 361.93 149.36C360.129 150.628 358.7 152.354 357.79 154.36C356.774 156.84 356.382 159.533 356.65 162.2C356.795 164.891 357.739 167.478 359.36 169.63C360.692 171.388 362.521 172.705 364.61 173.41C366 173.889 367.479 174.053 368.94 173.89C369.337 173.846 369.728 173.766 370.11 173.65C370.37 173.57 370.5 173.52 370.49 173.5C370.48 173.48 369.93 173.58 368.92 173.64C367.503 173.702 366.088 173.477 364.76 172.98C362.789 172.252 361.075 170.962 359.83 169.27C358.315 167.192 357.436 164.718 357.3 162.15C357.025 159.59 357.368 157.001 358.3 154.6C359.154 152.679 360.486 151.009 362.17 149.75C363.259 148.85 364.601 148.311 366.01 148.21C367.05 148.14 367.6 148.33 367.61 148.27Z" fill="#263238"/>
<path d="M344.65 150.3L350.85 149.69C349.193 150.197 347.773 151.283 346.85 152.75C345.951 154.209 345.372 155.841 345.15 157.54C344.04 164.67 347.83 172.33 353.92 176.19L348.92 176.85C348.92 176.85 334.62 164.08 344.61 150.3" fill="#263238"/>
<path d="M337.63 163.42C339.228 163.862 340.907 163.924 342.533 163.601C344.159 163.278 345.687 162.579 346.994 161.559C348.302 160.539 349.352 159.228 350.062 157.73C350.771 156.231 351.12 154.587 351.08 152.93C351.01 149.86 349.61 146.72 350.57 143.79C351.23 141.79 352.91 140.21 353.48 138.18C354.32 135.13 352.48 132.06 350.73 129.44C349.688 127.699 348.39 126.125 346.88 124.77C346.12 124.095 345.221 123.596 344.246 123.307C343.271 123.018 342.245 122.948 341.24 123.1" fill="#263238"/>
<path d="M309.23 123.37C309.4 125.69 307.87 127.77 306.32 129.51C304.77 131.25 303.06 133.08 302.72 135.38C302.13 139.47 306.13 143.26 305.31 147.31C304.86 149.48 303.09 151.22 302.77 153.41C302.45 155.6 303.6 157.61 305.01 159.22C306.42 160.83 308.13 162.22 309.38 163.92C310.567 165.842 311.571 167.871 312.38 169.98C313.187 172.105 314.656 173.914 316.57 175.14C319.57 176.76 323.73 176 326.01 178.51C328.29 181.02 330.93 181.31 333.65 183.14" fill="#263238"/>
<path d="M345 126.92C345.06 124.82 343.11 123.19 341.15 122.42C339.19 121.65 337 121.35 335.25 120.17C333.7 119.17 332.66 117.51 331.35 116.17C329.73 114.536 327.705 113.362 325.483 112.766C323.261 112.171 320.92 112.176 318.7 112.781C316.481 113.386 314.461 114.569 312.848 116.21C311.236 117.851 310.087 119.89 309.52 122.12C308.77 125.12 309.28 128.67 311.65 130.67C314.4 132.98 318.47 132.47 321.99 131.75C325.51 131.03 329.49 130.32 332.43 132.39C334.2 133.63 335.21 135.66 336.3 137.54C337.39 139.42 338.74 141.33 340.79 142.03C342.84 142.73 345.62 141.52 345.7 139.36" fill="#263238"/>
<path d="M336.65 127.36C337.528 127.453 338.338 127.873 338.92 128.536C339.502 129.199 339.813 130.058 339.79 130.94L337.69 178.58C337.6 184.21 329.38 187.37 323.35 187.23C317.27 187.09 317.07 184.1 317 178.75C316.87 169.81 316.88 166.45 316.88 166.5C316.88 166.55 309.19 165.21 307.62 155.18C306.84 150.18 307.11 142.01 307.55 135.33C307.94 129.33 311.94 121.94 317.94 122.58L336.65 127.36Z" fill="#FFBE9D"/>
<path d="M309.45 141.06C309.445 141.396 309.572 141.721 309.804 141.964C310.036 142.207 310.354 142.349 310.69 142.36C310.853 142.371 311.015 142.349 311.169 142.297C311.323 142.244 311.466 142.161 311.587 142.054C311.709 141.946 311.808 141.815 311.879 141.668C311.95 141.522 311.991 141.362 312 141.2C312.006 140.865 311.88 140.542 311.65 140.299C311.42 140.056 311.104 139.913 310.77 139.9C310.607 139.888 310.443 139.908 310.288 139.96C310.133 140.012 309.989 140.095 309.866 140.203C309.743 140.311 309.643 140.442 309.572 140.589C309.5 140.736 309.459 140.897 309.45 141.06Z" fill="#263238"/>
<path d="M309.31 139.58C309.47 139.75 310.45 139.03 311.83 139.04C313.21 139.05 314.23 139.74 314.38 139.57C314.53 139.4 314.29 139.19 313.85 138.87C313.261 138.465 312.565 138.245 311.85 138.24C311.133 138.238 310.433 138.462 309.85 138.88C309.38 139.21 309.23 139.51 309.31 139.58Z" fill="#263238"/>
<path d="M323.23 141.41C323.225 141.746 323.352 142.071 323.584 142.314C323.816 142.557 324.134 142.699 324.47 142.71C324.633 142.723 324.797 142.704 324.952 142.653C325.107 142.603 325.25 142.521 325.373 142.414C325.496 142.307 325.597 142.176 325.668 142.029C325.74 141.882 325.781 141.723 325.79 141.56C325.796 141.224 325.67 140.9 325.441 140.655C325.211 140.411 324.895 140.265 324.56 140.25C324.396 140.238 324.232 140.258 324.076 140.31C323.92 140.362 323.776 140.444 323.653 140.552C323.529 140.66 323.428 140.791 323.355 140.938C323.283 141.086 323.24 141.246 323.23 141.41Z" fill="#263238"/>
<path d="M322.92 139.87C323.08 140.04 324.05 139.32 325.44 139.33C326.83 139.34 327.83 140.03 327.98 139.86C328.13 139.69 327.9 139.48 327.45 139.16C326.864 138.748 326.166 138.528 325.45 138.53C324.732 138.521 324.03 138.746 323.45 139.17C323 139.49 322.84 139.8 322.92 139.87Z" fill="#263238"/>
<path d="M317.87 150.13C317.14 149.896 316.385 149.755 315.62 149.71C315.27 149.71 314.94 149.61 314.88 149.37C314.844 149.004 314.924 148.637 315.11 148.32L316.17 145.63C317.139 143.362 317.928 141.021 318.53 138.63C318.37 138.57 317.06 141.63 315.61 145.45C315.25 146.45 314.92 147.3 314.61 148.16C314.383 148.582 314.316 149.072 314.42 149.54C314.472 149.664 314.55 149.776 314.651 149.866C314.751 149.956 314.871 150.022 315 150.06C315.195 150.115 315.397 150.145 315.6 150.15C316.355 150.233 317.117 150.227 317.87 150.13Z" fill="#263238"/>
<path d="M316.88 166.5C321.597 166.597 326.249 165.386 330.32 163C330.32 163 327 169.83 317 168.87L316.88 166.5Z" fill="#EB996E"/>
<path d="M318.45 153.46C318.716 153.131 319.061 152.874 319.452 152.713C319.844 152.552 320.269 152.493 320.69 152.54C320.995 152.57 321.291 152.661 321.56 152.807C321.83 152.953 322.068 153.151 322.26 153.39C322.444 153.621 322.552 153.904 322.57 154.199C322.588 154.494 322.515 154.788 322.36 155.04C322.137 155.286 321.846 155.461 321.524 155.541C321.201 155.621 320.862 155.603 320.55 155.49C319.895 155.259 319.293 154.898 318.78 154.43C318.623 154.322 318.49 154.182 318.39 154.02C318.336 153.946 318.306 153.857 318.306 153.765C318.306 153.673 318.336 153.584 318.39 153.51" fill="#EB996E"/>
<path d="M321.94 151.09C321.72 151.09 321.71 152.58 320.42 153.64C319.13 154.7 317.53 154.54 317.52 154.75C317.51 154.96 317.88 155.04 318.52 155.06C319.401 155.078 320.26 154.78 320.94 154.22C321.599 153.689 322.023 152.92 322.12 152.08C322.21 151.46 322 151.08 321.94 151.09Z" fill="#263238"/>
<path d="M322.3 137.45C322.43 137.82 323.82 137.65 325.44 137.85C327.06 138.05 328.38 138.49 328.59 138.16C328.69 137.99 328.46 137.64 327.93 137.27C327.229 136.817 326.43 136.536 325.6 136.45C324.769 136.35 323.927 136.446 323.14 136.73C322.54 137 322.24 137.27 322.3 137.45Z" fill="#263238"/>
<path d="M309.83 135.58C310.07 135.89 311.03 135.58 312.17 135.58C313.31 135.58 314.29 135.79 314.51 135.46C314.61 135.31 314.46 134.99 314.04 134.69C313.47 134.331 312.806 134.149 312.133 134.169C311.46 134.189 310.808 134.408 310.26 134.8C309.86 135.1 309.72 135.43 309.83 135.58Z" fill="#263238"/>
<path d="M343.65 160.35C342.264 160.629 340.832 160.575 339.471 160.191C338.11 159.807 336.86 159.105 335.825 158.142C334.789 157.18 333.997 155.985 333.515 154.656C333.032 153.327 332.873 151.903 333.05 150.5C333.37 148.04 334.69 145.5 333.84 143.2C332.71 140.12 328.39 139.2 327.24 136.1C326.58 134.31 327.18 132.22 326.42 130.47C325.66 128.72 323.98 127.87 322.29 127.26C320.552 126.812 318.895 126.093 317.38 125.13C315.96 124.03 315.08 121.95 315.99 120.41C323.483 121.302 330.842 123.088 337.91 125.73C339.54 126.34 341.26 127.08 342.23 128.53C343.2 129.98 343.23 132.06 343.12 133.91L341.86 160.91" fill="#263238"/>
<path d="M349.05 168.69C349.045 167.83 348.869 166.98 348.53 166.19C348.115 165.275 347.536 164.445 346.82 163.74C345.859 162.821 344.767 162.05 343.58 161.45C342.27 160.74 340.76 160.09 339.22 159.21C337.523 158.308 336.092 156.977 335.07 155.35C334.534 154.44 334.244 153.406 334.23 152.35C334.274 151.278 334.425 150.212 334.68 149.17C334.958 148.144 335.03 147.074 334.89 146.02C334.781 145.502 334.559 145.014 334.239 144.592C333.919 144.17 333.51 143.825 333.04 143.58C332.04 143.02 331.04 142.67 329.99 142.19C328.915 141.755 328.008 140.987 327.4 140C326.894 139.02 326.633 137.933 326.64 136.83C326.64 135.78 326.64 134.77 326.64 133.83C326.664 132.891 326.529 131.954 326.24 131.06C325.949 130.241 325.419 129.527 324.72 129.01C323.366 128.14 321.854 127.546 320.27 127.26C318.929 126.993 317.649 126.485 316.49 125.76C315.616 125.166 314.976 124.285 314.68 123.27C314.476 122.639 314.476 121.961 314.68 121.33C314.758 121.118 314.873 120.922 315.02 120.75C315.02 120.75 314.91 120.96 314.78 121.37C314.611 121.978 314.632 122.624 314.84 123.22C315.154 124.164 315.777 124.975 316.61 125.52C317.756 126.195 319.012 126.666 320.32 126.91C321.96 127.184 323.53 127.778 324.94 128.66C325.712 129.223 326.3 130.003 326.63 130.9C326.94 131.842 327.092 132.829 327.08 133.82C327.08 134.82 327.08 135.82 327.08 136.82C327.078 137.842 327.317 138.849 327.78 139.76C328.338 140.661 329.168 141.361 330.15 141.76C331.15 142.23 332.22 142.57 333.25 143.17C333.767 143.475 334.227 143.867 334.61 144.33C334.977 144.806 335.227 145.36 335.34 145.95C335.491 147.073 335.416 148.216 335.12 149.31C334.867 150.316 334.716 151.344 334.67 152.38C334.674 153.357 334.936 154.316 335.43 155.16C336.402 156.724 337.763 158.009 339.38 158.89C340.88 159.77 342.38 160.44 343.7 161.18C344.907 161.812 346.009 162.624 346.97 163.59C347.694 164.329 348.268 165.202 348.66 166.16C348.906 166.764 349.038 167.408 349.05 168.06C349.063 168.23 349.063 168.4 349.05 168.57C349.07 168.63 349.06 168.69 349.05 168.69Z" fill="#263238"/>
<path d="M319.82 175.57C319.666 175.646 319.501 175.697 319.33 175.72C319.126 175.769 318.919 175.803 318.71 175.82C318.429 175.862 318.145 175.882 317.86 175.88C316.015 175.882 314.213 175.316 312.7 174.26C311.643 173.545 310.755 172.606 310.1 171.51C309.402 170.231 308.948 168.834 308.76 167.39C308.58 165.851 308.14 164.353 307.46 162.96C306.68 161.57 305.23 160.65 303.92 159.46C302.582 158.299 301.708 156.694 301.46 154.94C301.227 153.31 301.555 151.649 302.39 150.23C303.204 149.074 303.904 147.841 304.48 146.55C304.872 145.396 305.019 144.173 304.91 142.96C304.712 141.183 304.285 139.438 303.64 137.77C303.389 137.159 303.172 136.535 302.99 135.9C303.094 136.037 303.178 136.189 303.24 136.35C303.38 136.66 303.59 137.11 303.83 137.7C304.559 139.366 305.047 141.127 305.28 142.93C305.416 144.2 305.283 145.484 304.89 146.7C304.324 148.023 303.627 149.286 302.81 150.47C302.036 151.798 301.739 153.35 301.97 154.87C302.201 156.506 303.018 158.002 304.27 159.08C305.52 160.22 307.04 161.18 307.9 162.7C308.608 164.144 309.059 165.701 309.23 167.3C309.396 168.698 309.816 170.053 310.47 171.3C311.081 172.356 311.913 173.267 312.91 173.97C314.354 175.018 316.077 175.613 317.86 175.68C319.12 175.71 319.81 175.51 319.82 175.57Z" fill="#263238"/>
<path d="M349 127.77C349.097 127.886 349.157 128.029 349.17 128.18C349.192 128.396 349.168 128.614 349.101 128.821C349.034 129.027 348.925 129.218 348.78 129.38C348.558 129.646 348.284 129.865 347.974 130.021C347.665 130.178 347.326 130.269 346.98 130.29C346.086 130.235 345.217 129.975 344.44 129.53C343.543 129.029 342.545 128.735 341.52 128.67C340.328 128.638 339.137 128.746 337.97 128.99C336.654 129.275 335.316 129.445 333.97 129.5C332.456 129.56 330.979 129.021 329.86 128C328.855 126.935 328.055 125.694 327.5 124.34C326.989 123.126 326.345 121.972 325.58 120.9C324.927 120.022 324.033 119.354 323.006 118.978C321.979 118.601 320.865 118.533 319.8 118.78C318.349 119.166 317.1 120.092 316.31 121.37C316.033 121.847 315.785 122.341 315.57 122.85C315.57 122.85 315.57 122.7 315.65 122.42C315.76 122.014 315.921 121.624 316.13 121.26C316.767 120.082 317.793 119.162 319.034 118.656C320.274 118.151 321.651 118.092 322.93 118.49C324.126 118.863 325.175 119.601 325.93 120.6C326.725 121.695 327.396 122.876 327.93 124.12C328.466 125.413 329.232 126.599 330.19 127.62C331.209 128.555 332.558 129.048 333.94 128.99C335.258 128.939 336.569 128.778 337.86 128.51C339.065 128.271 340.293 128.177 341.52 128.23C342.598 128.336 343.639 128.678 344.57 129.23C345.295 129.669 346.107 129.942 346.95 130.03C347.261 130.02 347.567 129.949 347.85 129.82C348.134 129.692 348.388 129.508 348.6 129.28C348.739 129.141 348.849 128.975 348.922 128.793C348.996 128.611 349.033 128.416 349.03 128.22C349 127.91 348.92 127.78 349 127.77Z" fill="#455A64"/>
<path d="M343.33 124.88C341.676 124.5 340.204 123.56 339.163 122.22C338.122 120.879 337.577 119.22 337.619 117.523C337.662 115.826 338.289 114.196 339.395 112.909C340.502 111.622 342.019 110.757 343.69 110.46C344.48 110.266 345.307 110.292 346.083 110.535C346.858 110.779 347.553 111.23 348.09 111.84C349.01 113.09 348.95 114.96 350.09 115.98C351.23 117 353.27 116.6 354.89 116.98C356.132 117.334 357.207 118.117 357.925 119.191C358.643 120.264 358.957 121.557 358.81 122.84C358.606 124.115 358.071 125.314 357.259 126.318C356.446 127.322 355.385 128.095 354.18 128.56C351.74 129.45 349.072 129.5 346.6 128.7C344.149 127.905 341.82 126.774 339.68 125.34" fill="#263238"/>
<path d="M355.38 117.63C355.285 118.292 355.035 118.923 354.65 119.47C353.818 120.858 352.666 122.027 351.29 122.88C349.914 123.738 348.355 124.259 346.74 124.4C346.071 124.503 345.386 124.452 344.74 124.25C344.74 124.16 345.5 124.25 346.67 124.03C348.2 123.798 349.666 123.257 350.98 122.44C352.29 121.616 353.423 120.538 354.31 119.27C355 118.3 355.3 117.6 355.38 117.63Z" fill="#455A64"/>
<path d="M350.08 128.72C348.792 127.022 347.175 125.6 345.327 124.538C343.479 123.477 341.436 122.797 339.32 122.54C339.951 122.417 340.599 122.417 341.23 122.54C344.327 122.994 347.136 124.606 349.09 127.05C349.532 127.532 349.87 128.1 350.08 128.72Z" fill="#BA68C8"/>
<path d="M277.21 237.63L261 234.49L263.92 238.64L257 242.1L251.21 239.39C251.66 240.573 252.226 241.709 252.9 242.78C254.17 244.89 255.9 246.59 256.96 246.67C257.315 248.131 258.054 249.47 259.1 250.55C260.041 251.488 261.209 252.165 262.491 252.516C263.772 252.867 265.123 252.878 266.41 252.55L277.3 248.61L277.21 237.63Z" fill="#FFBE9D"/>
<path d="M260.86 245.76C260.592 246.095 260.253 246.367 259.867 246.555C259.482 246.744 259.059 246.844 258.63 246.85C258.209 246.938 257.774 246.934 257.355 246.839C256.936 246.744 256.542 246.56 256.2 246.3C256.26 246.15 257.29 246.49 258.57 246.3C259.85 246.11 260.78 245.63 260.86 245.76Z" fill="#EB996E"/>
<path d="M263 249.21C263.1 249.31 262.4 250.09 261.2 250.4C260.852 250.535 260.479 250.59 260.107 250.562C259.735 250.535 259.374 250.425 259.05 250.24C259.05 250.09 260.05 250.18 261.05 249.9C262.05 249.62 262.88 249.1 263 249.21Z" fill="#EB996E"/>
<path d="M267.07 237C266.627 237.32 266.155 237.598 265.66 237.83C264.79 238.32 263.66 239.14 262.39 240.02C261.303 240.808 260.093 241.413 258.81 241.81C258.28 242.01 257.707 242.061 257.15 241.96C257.15 241.88 257.77 241.81 258.7 241.46C259.901 240.968 261.041 240.341 262.1 239.59C263.175 238.808 264.308 238.109 265.49 237.5C265.971 237.215 266.512 237.044 267.07 237Z" fill="#EB996E"/>
<path d="M365.4 264.54C365.4 264.54 365.95 264.89 367.33 267.34C371.56 274.89 373.27 292.98 357.33 309.13C336.71 329.99 312.56 364.13 312.56 364.13L293.56 444.29L264.92 438.08L279.68 354.77L320.15 279.69L365.4 264.54Z" fill="#263238"/>
<path d="M396.99 419.68L352.87 352.16L339.49 293.88L305.41 310.63L322.5 369.78L377.03 437.7L396.99 419.68Z" fill="#263238"/>
<path d="M293.58 444.29C293.587 444.154 293.61 444.02 293.65 443.89C293.71 443.61 293.79 443.23 293.89 442.74C294.13 441.74 294.46 440.23 294.89 438.33L298.64 422.15C301.85 408.47 306.28 389.62 311.18 368.8C311.56 367.18 311.94 365.57 312.3 364.07V364C324.8 348 336.19 333.85 344.57 323.8C348.77 318.8 352.2 314.8 354.63 312.06C355.82 310.69 356.8 309.67 357.45 308.97L358.19 308.18C358.36 308 358.45 307.91 358.46 307.92C358.392 308.023 358.315 308.12 358.23 308.21L357.52 309.03C356.9 309.76 355.95 310.8 354.77 312.19C352.39 314.94 349.01 318.98 344.85 324.03C336.54 334.14 325.2 348.33 312.71 364.32V364.22C312.36 365.72 311.98 367.33 311.59 368.95L299 422.24C297.35 429.03 296 434.54 295.09 438.38C294.62 440.26 294.26 441.74 294 442.76C293.88 443.25 293.78 443.62 293.71 443.9C293.679 444.034 293.635 444.164 293.58 444.29Z" fill="#455A64"/>
<path d="M345.32 285.85C345.116 286.019 344.882 286.148 344.63 286.23C343.969 286.516 343.283 286.74 342.58 286.9C340.242 287.433 337.806 287.362 335.503 286.691C333.201 286.021 331.107 284.775 329.42 283.07C328.912 282.558 328.451 282.002 328.04 281.41C327.76 280.98 327.63 280.73 327.66 280.71C327.69 280.69 328.36 281.59 329.66 282.8C331.359 284.38 333.404 285.541 335.632 286.19C337.859 286.839 340.208 286.959 342.49 286.54C344.26 286.22 345.29 285.77 345.32 285.85Z" fill="#455A64"/>
<path d="M369.65 268C352.39 277.09 324.38 282.52 315.42 278.83L315.11 245.58C315.11 245.58 302.84 225.35 302.79 217.7C302.72 206.7 316.45 181.53 316.45 181.53L337.06 176C341.21 175.911 345.316 176.867 349 178.78C352.855 180.916 355.991 184.144 358.014 188.059C360.037 191.974 360.857 196.4 360.37 200.78L355.18 233.86L369.65 268Z" fill="#BA68C8"/>
<g opacity="0.3">
<path d="M347.53 178.75C348.73 178.57 349.17 180.52 348.32 181.38C347.47 182.24 346.12 182.28 344.93 182.46C339.56 183.3 335.41 187.9 333.46 192.97C331.51 198.04 331.32 203.58 331 208.97C330.68 214.36 330.15 219.97 327.6 224.78C325.219 220.559 323.808 215.861 323.469 211.027C323.13 206.193 323.872 201.344 325.64 196.832C327.409 192.32 330.16 188.259 333.693 184.942C337.227 181.626 341.455 179.139 346.07 177.66" fill="black"/>
</g>
<path d="M349 178.78C349 178.78 346 173.89 336.08 176.01C329.44 177.43 314.92 191.38 318.97 213.79C323.02 236.2 333.88 244.14 333.88 244.14C333.88 244.14 323.88 209.83 329.44 194.86C330.896 190.634 333.494 186.893 336.947 184.055C340.4 181.216 344.572 179.39 349 178.78Z" fill="#263238"/>
<g opacity="0.3">
<path d="M315.49 252.64C319.6 253.96 323.54 255.64 327.82 256.18C332.103 256.883 336.495 256.423 340.54 254.85C346.03 252.51 350.11 247.51 352.21 241.92C354.31 236.33 354.6 230.21 354.04 224.26C350.29 228.9 350.74 235.77 347.55 240.82C345.55 243.97 342.3 246.12 338.96 247.82C331.652 251.334 323.592 252.999 315.49 252.67" fill="black"/>
</g>
<path d="M327.85 218.67C327.85 218.67 326.51 243.91 357.3 238.89L360.4 246.19C360.4 246.19 328.03 253.03 323.4 226.19L327.85 218.67Z" fill="#263238"/>
<path d="M355.91 187.3C357.206 189.225 358.079 191.403 358.472 193.691C358.865 195.978 358.769 198.322 358.19 200.57L350.52 234.9C347.23 244.56 337.84 250.43 332 251.21L277.31 257V236.59L328.08 229.05L330.46 201.25C330.67 197.51 332.51 190.79 334.89 187.89C337.55 184.66 341.64 180.26 348.32 181.38C352.41 182.06 354.15 184.79 355.91 187.3Z" fill="#BA68C8"/>
<path d="M357.49 201.91C357.498 202.168 357.481 202.425 357.44 202.68C357.38 203.19 357.29 203.93 357.16 204.89C356.9 206.81 356.5 209.57 355.89 212.97C355.28 216.37 354.5 220.42 353.47 224.87C352.96 227.09 352.41 229.43 351.74 231.87C351.085 234.368 350.188 236.796 349.06 239.12C347.921 241.457 346.354 243.56 344.44 245.32C342.656 246.952 340.632 248.301 338.44 249.32C334.721 250.986 330.75 252.017 326.69 252.37C323.24 252.72 320.44 252.74 318.51 252.76H316.28C316.024 252.783 315.766 252.783 315.51 252.76C315.764 252.715 316.022 252.695 316.28 252.7L318.5 252.61C320.43 252.53 323.23 252.45 326.65 252.05C330.655 251.655 334.568 250.6 338.23 248.93C340.38 247.936 342.366 246.621 344.12 245.03C345.979 243.299 347.504 241.242 348.62 238.96C349.729 236.666 350.616 234.272 351.27 231.81C351.94 229.43 352.5 227.1 353.03 224.88C354.03 220.44 354.91 216.42 355.55 213.03C356.19 209.64 356.66 206.89 356.98 205.03C357.14 204.12 357.26 203.39 357.35 202.84C357.373 202.527 357.42 202.216 357.49 201.91Z" fill="#263238"/>
<path d="M329.55 234.9C328.981 233.973 328.565 232.96 328.32 231.9C327.904 230.904 327.654 229.846 327.58 228.77C328.568 230.68 329.243 232.736 329.58 234.86L329.55 234.9Z" fill="#263238"/>
<path d="M332.66 234.12C331.58 233.614 330.627 232.872 329.87 231.95C328.992 231.148 328.308 230.156 327.87 229.05C328.724 229.847 329.526 230.699 330.27 231.6C331.124 232.384 331.922 233.226 332.66 234.12Z" fill="#263238"/>
<path d="M282.07 235.89L282.3 235.83L282.98 235.7L285.6 235.27L295.33 233.74L328 228.8L327.78 229.03C327.96 227.13 328.15 225.13 328.35 223.09C329 215.88 329.69 209.01 330.03 202.74C330.267 199.759 330.837 196.814 331.73 193.96C332.447 191.434 333.665 189.077 335.31 187.03C338.55 183.5 342.18 181.63 344.85 181.29C345.87 181.145 346.907 181.165 347.92 181.35C348.26 181.42 348.52 181.5 348.69 181.55L348.95 181.64C347.615 181.334 346.234 181.283 344.88 181.49C342.28 181.88 338.74 183.77 335.59 187.28C333.996 189.295 332.826 191.611 332.15 194.09C331.278 196.916 330.728 199.831 330.51 202.78C330.2 209.05 329.51 215.93 328.86 223.14C328.67 225.14 328.48 227.14 328.29 229.08V229.28H328.09L295.35 234.06L285.6 235.42L282.96 235.77L282.28 235.85L282.07 235.89Z" fill="#263238"/>
<path d="M313.37 252.52C313.23 252.52 312.65 247.91 312.08 242.2C311.51 236.49 311.16 231.83 311.3 231.81C311.912 235.228 312.346 238.676 312.6 242.14C313.035 245.584 313.292 249.049 313.37 252.52Z" fill="#FAFAFA"/>
<path d="M353.41 221.53C352.253 221.63 351.09 221.646 349.93 221.58C347.78 221.58 344.82 221.46 341.54 221.34C338.26 221.22 335.3 221.08 333.16 220.95C332.001 220.931 330.844 220.828 329.7 220.64C330.856 220.526 332.02 220.506 333.18 220.58C335.32 220.58 338.29 220.7 341.56 220.82C344.83 220.94 347.79 221.08 349.94 221.21C351.103 221.224 352.264 221.331 353.41 221.53Z" fill="#FAFAFA"/>
<path d="M318.69 215C317.948 215.191 317.186 215.291 316.42 215.3C315.02 215.4 313.07 215.47 310.92 215.43C308.77 215.39 306.82 215.24 305.42 215.08C304.656 215.046 303.9 214.915 303.17 214.69C303.928 214.615 304.692 214.615 305.45 214.69C306.85 214.76 308.79 214.84 310.93 214.88C313.07 214.92 315.01 214.88 316.41 214.88C317.172 214.836 317.937 214.876 318.69 215Z" fill="#FAFAFA"/>
<path d="M323.21 191.28C323.13 191.41 321.03 190.28 318.31 189.28C315.59 188.28 313.31 187.67 313.31 187.52C316.866 187.954 320.263 189.244 323.21 191.28Z" fill="#FAFAFA"/>
<path d="M362.93 253.67C362.792 253.768 362.64 253.846 362.48 253.9L361.16 254.44C360.02 254.91 358.34 255.53 356.25 256.26C350.796 258.138 345.245 259.72 339.62 261C333.995 262.31 328.304 263.311 322.57 264C320.37 264.25 318.57 264.42 317.35 264.5L315.93 264.58C315.764 264.606 315.596 264.606 315.43 264.58C315.588 264.525 315.753 264.491 315.92 264.48L317.33 264.3C318.56 264.16 320.33 263.94 322.53 263.64C326.9 263.04 332.93 262.05 339.53 260.55C346.13 259.05 351.96 257.31 356.16 255.94C358.26 255.26 359.96 254.69 361.16 254.28L362.51 253.83C362.645 253.764 362.785 253.71 362.93 253.67Z" fill="#FAFAFA"/>
<path d="M359.67 193.87C359.67 194.01 353.77 193.94 346.5 193.7C339.23 193.46 333.35 193.16 333.35 193.02C333.35 192.88 339.25 192.95 346.52 193.18C353.79 193.41 359.67 193.72 359.67 193.87Z" fill="#FAFAFA"/>
<path d="M289.2 255.49C288.815 252.17 288.601 248.832 288.56 245.49C288.343 242.161 288.303 238.823 288.44 235.49C288.825 238.81 289.039 242.148 289.08 245.49C289.297 248.819 289.337 252.157 289.2 255.49Z" fill="#FAFAFA"/>
<path d="M177.33 153.22C186.233 151.567 195.425 152.533 203.79 156C207.5 157.55 211.18 159.74 213.18 163.23C215.56 167.35 215.18 172.43 214.91 177.18C214.387 186.857 214.722 196.562 215.91 206.18C216.91 214.18 218.48 222.18 218.45 230.18C218.42 238.18 216.62 246.6 211.57 252.88C203.78 262.55 189.91 265.27 177.57 263.62C171.09 262.76 164.62 260.82 159.33 256.96C154.04 253.1 150.08 247.15 149.63 240.63" fill="#455A64"/>
<path d="M192.75 165.48C193.903 166.844 194.884 168.346 195.67 169.95C196.482 171.717 197.15 173.546 197.67 175.42C198.295 177.743 199.066 180.025 199.98 182.25C200.933 184.514 202.414 186.516 204.3 188.09C205.872 189.383 207.845 190.089 209.88 190.09C211.232 190.103 212.559 189.725 213.7 189C214.005 188.799 214.284 188.56 214.53 188.29C214.7 188.11 214.78 188 214.76 187.99C214.74 187.98 214.36 188.32 213.56 188.78C212.428 189.399 211.149 189.696 209.86 189.64C207.947 189.581 206.111 188.876 204.65 187.64C202.871 186.105 201.475 184.178 200.57 182.01C199.661 179.81 198.88 177.56 198.23 175.27C197.678 173.378 196.962 171.537 196.09 169.77C195.491 168.578 194.734 167.471 193.84 166.48C193.536 166.087 193.168 165.749 192.75 165.48Z" fill="#263238"/>
<path d="M196.28 263C196.357 262.746 196.407 262.484 196.43 262.22C196.51 261.633 196.61 260.873 196.73 259.94C196.98 257.94 197.31 255.1 197.73 251.56C198.48 244.47 199.38 234.67 200.16 223.83C200.94 212.99 201.41 203.15 201.67 196.02C201.8 192.46 201.88 189.58 201.91 187.59C201.91 186.65 201.91 185.89 201.91 185.3C201.941 185.034 201.941 184.766 201.91 184.5C201.854 184.76 201.824 185.024 201.82 185.29C201.82 185.89 201.73 186.64 201.67 187.58C201.56 189.65 201.41 192.51 201.22 196C200.84 203.12 200.28 212.94 199.52 223.78C198.76 234.62 197.91 244.42 197.28 251.51C196.97 255 196.72 257.85 196.54 259.91C196.46 260.85 196.4 261.61 196.36 262.2C196.302 262.463 196.275 262.731 196.28 263Z" fill="#263238"/>
<path d="M200.23 219.57C200.23 219.74 204.09 220.28 208.92 220.4C213.75 220.52 217.65 220.2 217.64 220.02C217.63 219.84 213.74 219.87 208.94 219.74C204.14 219.61 200.25 219.38 200.23 219.57Z" fill="#263238"/>
<path d="M203.37 220C202.98 220.522 202.707 221.123 202.57 221.76C202.353 222.415 202.179 223.083 202.05 223.76C201.94 224.207 201.94 224.673 202.05 225.12C202.126 225.392 202.276 225.638 202.485 225.829C202.694 226.02 202.952 226.149 203.23 226.2C203.387 226.224 203.547 226.213 203.699 226.168C203.851 226.123 203.991 226.045 204.11 225.94C204.324 225.749 204.468 225.492 204.52 225.21C204.589 224.773 204.589 224.327 204.52 223.89C204.45 223.186 204.316 222.49 204.12 221.81C204.002 221.164 203.735 220.554 203.34 220.03C203.379 220.67 203.49 221.304 203.67 221.92C203.79 222.581 203.87 223.249 203.91 223.92C203.966 224.291 203.966 224.669 203.91 225.04C203.83 225.38 203.62 225.57 203.35 225.53C202.66 225.41 202.51 224.53 202.65 223.84C202.79 223.15 202.9 222.39 203.02 221.84C203.214 221.244 203.331 220.626 203.37 220Z" fill="#263238"/>
<path d="M168.189 155.648L210.037 157.029C215.33 157.203 219.763 153.054 219.938 147.76L220.206 139.625C220.381 134.331 216.231 129.898 210.938 129.724L169.09 128.343C163.797 128.168 159.364 132.318 159.189 137.611L158.921 145.747C158.746 151.04 162.896 155.473 168.189 155.648Z" fill="#263238"/>
<path d="M209.94 130.24C209.94 130.24 209.83 130.14 209.58 130.02C209.209 129.846 208.815 129.725 208.41 129.66C206.899 129.434 205.357 129.723 204.03 130.48C202.017 131.478 200.307 132.998 199.08 134.88C197.67 137.234 196.862 139.899 196.73 142.64C196.466 145.388 197.027 148.152 198.34 150.58C199.42 152.564 201.071 154.177 203.08 155.21C204.415 155.904 205.887 156.293 207.39 156.35C207.798 156.367 208.206 156.347 208.61 156.29C208.752 156.286 208.892 156.252 209.02 156.19C209.02 156.13 208.44 156.19 207.41 156.09C205.966 155.942 204.567 155.5 203.3 154.79C201.415 153.755 199.875 152.191 198.87 150.29C197.649 147.954 197.135 145.313 197.39 142.69C197.518 140.054 198.272 137.486 199.59 135.2C200.748 133.388 202.353 131.904 204.25 130.89C205.488 130.132 206.933 129.783 208.38 129.89C209.4 130 209.92 130.3 209.94 130.24Z" fill="#455A64"/>
<path d="M186.39 128.8L192.75 129.12C191.002 129.388 189.408 130.275 188.26 131.62C187.127 132.959 186.291 134.523 185.81 136.21C183.6 143.21 186.27 151.59 191.81 156.42L186.66 156.34C186.66 156.34 174.13 141.22 186.35 128.8" fill="#455A64"/>
<path d="M155.31 116.82C152.71 110.53 152.57 99.61 156.54 93.82C160.51 88.03 167.95 84.28 174.78 82.82C175.904 82.4744 177.106 82.4744 178.23 82.82C178.777 83.026 179.227 83.4304 179.49 83.9528C179.753 84.4752 179.81 85.0775 179.65 85.64C180.977 84.7289 182.447 84.0461 184 83.62C184.78 83.3995 185.603 83.3755 186.395 83.5499C187.188 83.7244 187.924 84.092 188.54 84.62C188.837 84.8916 189.076 85.22 189.243 85.5859C189.41 85.9517 189.502 86.3474 189.513 86.7495C189.525 87.1516 189.455 87.5519 189.308 87.9265C189.162 88.301 188.941 88.6423 188.66 88.93C189.622 88.5731 190.668 88.5072 191.668 88.7407C192.668 88.9742 193.576 89.4966 194.281 90.2429C194.986 90.9892 195.455 91.9264 195.631 92.9377C195.807 93.9489 195.681 94.9896 195.27 95.93C194.335 97.8558 193.038 99.5839 191.45 101.02C190.02 102.34 189.78 103.7 190.02 105.63" fill="#263238"/>
<path d="M156.94 105.29L155.14 143.77C155.065 145.321 155.307 146.871 155.85 148.326C156.393 149.78 157.227 151.109 158.3 152.232C159.373 153.354 160.662 154.247 162.091 154.855C163.52 155.463 165.057 155.775 166.61 155.77C169.549 155.755 172.37 154.611 174.49 152.575C176.61 150.539 177.867 147.766 178 144.83C178.13 141.93 178.25 139.51 178.28 139.22C178.28 139.22 188.12 138.76 189.28 129.1C189.84 124.43 190.22 114.72 190.45 105.93C190.571 101.377 188.974 96.9458 185.976 93.5176C182.978 90.0894 178.798 87.916 174.27 87.43L173.34 87.33C163.24 86.83 157.16 95.15 156.94 105.29Z" fill="#FFBE9D"/>
<path d="M178.34 139.08C173.866 138.685 169.612 136.965 166.12 134.14C166.12 134.14 168.05 140.19 177.79 140.36L178.34 139.08Z" fill="#EB996E"/>
<path d="M187 112.1C186.964 112.462 186.789 112.795 186.51 113.029C186.231 113.263 185.872 113.378 185.51 113.35C185.333 113.345 185.159 113.304 184.998 113.231C184.837 113.157 184.693 113.052 184.573 112.921C184.454 112.791 184.362 112.637 184.303 112.47C184.244 112.304 184.219 112.127 184.23 111.95C184.266 111.59 184.44 111.258 184.716 111.025C184.993 110.791 185.349 110.675 185.71 110.7C185.887 110.706 186.061 110.748 186.222 110.822C186.382 110.896 186.527 111.001 186.647 111.131C186.767 111.261 186.86 111.414 186.92 111.58C186.981 111.746 187.008 111.923 187 112.1Z" fill="#263238"/>
<path d="M187.89 110.45C187.7 110.61 186.74 109.73 185.25 109.57C183.76 109.41 182.6 110.04 182.46 109.84C182.32 109.64 182.59 109.44 183.11 109.15C183.801 108.776 184.589 108.622 185.37 108.71C186.144 108.791 186.873 109.117 187.45 109.64C187.87 110 188 110.38 187.89 110.45Z" fill="#263238"/>
<path d="M172.33 111C172.294 111.36 172.12 111.692 171.844 111.925C171.567 112.159 171.211 112.275 170.85 112.25C170.673 112.244 170.499 112.202 170.338 112.128C170.178 112.054 170.033 111.949 169.913 111.819C169.793 111.689 169.7 111.536 169.64 111.37C169.579 111.203 169.552 111.027 169.56 110.85C169.593 110.489 169.767 110.156 170.044 109.922C170.321 109.688 170.679 109.572 171.04 109.6C171.218 109.604 171.393 109.643 171.555 109.716C171.717 109.789 171.863 109.895 171.983 110.025C172.104 110.156 172.196 110.31 172.256 110.477C172.316 110.645 172.341 110.823 172.33 111Z" fill="#263238"/>
<path d="M173.25 109.15C173.06 109.31 172.1 108.43 170.61 108.27C169.12 108.11 167.95 108.74 167.81 108.54C167.67 108.34 167.95 108.15 168.46 107.85C169.154 107.477 169.946 107.323 170.73 107.41C171.503 107.496 172.23 107.821 172.81 108.34C173.22 108.74 173.34 109.08 173.25 109.15Z" fill="#263238"/>
<path d="M177.46 120.76C178.269 120.592 179.096 120.532 179.92 120.58C180.3 120.58 180.67 120.58 180.76 120.3C180.838 119.912 180.792 119.51 180.63 119.15L179.82 116.15C178.7 111.87 177.94 108.36 178.11 108.32C178.28 108.28 179.33 111.71 180.45 116C180.71 117 180.97 118.06 181.21 119C181.386 119.488 181.386 120.022 181.21 120.51C181.143 120.639 181.046 120.751 180.928 120.836C180.81 120.921 180.674 120.977 180.53 121C180.314 121.029 180.096 121.029 179.88 121C179.066 121.026 178.253 120.945 177.46 120.76Z" fill="#263238"/>
<path d="M173 121.32C173.24 121.32 173.07 122.94 174.33 124.24C175.59 125.54 177.33 125.54 177.33 125.77C177.33 126 176.92 126.04 176.19 125.98C175.241 125.894 174.355 125.472 173.69 124.79C173.052 124.142 172.693 123.27 172.69 122.36C172.64 121.68 172.86 121.3 173 121.32Z" fill="#263238"/>
<path d="M174.26 103.37C174.07 103.76 172.61 103.37 170.84 103.43C169.07 103.49 167.61 103.77 167.42 103.43C167.34 103.24 167.62 102.89 168.23 102.56C169.039 102.151 169.934 101.942 170.84 101.95C171.744 101.941 172.638 102.143 173.45 102.54C174.06 102.83 174.35 103.18 174.26 103.37Z" fill="#263238"/>
<path d="M187.81 106.09C187.51 106.4 186.53 105.94 185.3 105.79C184.07 105.64 183 105.79 182.8 105.39C182.71 105.21 182.91 104.89 183.4 104.62C184.049 104.313 184.773 104.203 185.484 104.302C186.194 104.402 186.86 104.707 187.4 105.18C187.84 105.57 187.94 105.94 187.81 106.09Z" fill="#263238"/>
<path d="M157 112.54C156.84 112.45 150.57 109.86 150.06 116.49C149.55 123.12 156.33 122.27 156.35 122.08C156.37 121.89 157 112.54 157 112.54Z" fill="#FFBE9D"/>
<path d="M154.48 119.41C154.48 119.41 154.36 119.48 154.15 119.56C153.873 119.667 153.567 119.667 153.29 119.56C152.881 119.255 152.562 118.847 152.363 118.378C152.164 117.909 152.094 117.395 152.16 116.89C152.188 116.32 152.342 115.763 152.61 115.26C152.688 115.059 152.813 114.879 152.975 114.737C153.137 114.594 153.331 114.492 153.54 114.44C153.676 114.414 153.816 114.438 153.937 114.505C154.058 114.573 154.151 114.681 154.2 114.81C154.28 115 154.2 115.13 154.26 115.14C154.32 115.15 154.41 115.04 154.38 114.77C154.352 114.602 154.272 114.448 154.15 114.33C153.977 114.177 153.751 114.098 153.52 114.11C153.244 114.143 152.981 114.248 152.757 114.412C152.533 114.577 152.355 114.796 152.24 115.05C151.911 115.602 151.725 116.228 151.7 116.87C151.619 117.458 151.714 118.057 151.974 118.592C152.234 119.126 152.647 119.571 153.16 119.87C153.335 119.936 153.523 119.962 153.71 119.947C153.897 119.931 154.078 119.874 154.24 119.78C154.45 119.57 154.5 119.42 154.48 119.41Z" fill="#EB996E"/>
<path d="M195.67 93.73C195.79 102.39 184.92 105.17 180.67 100.01C178.67 97.62 177.02 94.69 174.17 93.47C173.195 93.091 172.154 92.9109 171.108 92.9401C170.062 92.9693 169.032 93.2072 168.08 93.64H168.02C165.18 94.85 163.32 97.89 162.66 100.91C161.75 105.12 162.14 108.91 160.74 112.74C160.596 113.314 160.265 113.824 159.8 114.19C158.96 114.7 157.8 114.11 157.23 113.32C156.356 111.979 155.893 110.411 155.9 108.81C155.592 105.191 156.006 101.547 157.12 98.09C158.25 94.6237 160.371 91.5644 163.22 89.29C166.893 86.5792 171.475 85.3997 176 86C180.51 86.6301 184.708 88.6626 188 91.81C189.591 93.1948 190.811 94.9546 191.55 96.93" fill="#263238"/>
<path d="M189 88.46C189.311 88.4184 189.627 88.4563 189.92 88.57C190.734 88.8424 191.454 89.3379 192 90C192.843 90.9627 193.336 92.1819 193.4 93.46C193.412 95.0367 192.838 96.5617 191.79 97.74C190.783 98.9178 189.467 99.7907 187.99 100.26C186.801 100.641 185.558 100.82 184.31 100.79C183.477 100.775 182.648 100.688 181.83 100.53C181.523 100.5 181.224 100.412 180.95 100.27C180.95 100.18 182.24 100.47 184.3 100.43C185.504 100.407 186.698 100.201 187.84 99.82C189.22 99.3475 190.449 98.5156 191.4 97.41C192.365 96.3268 192.905 94.9306 192.92 93.48C192.889 92.2957 192.471 91.1541 191.73 90.23C191.235 89.5971 190.584 89.1042 189.84 88.8C189.33 88.54 189 88.51 189 88.46Z" fill="#455A64"/>
<path d="M184.8 85.08C184.8 85.08 185.05 85.02 185.43 85.24C185.684 85.4071 185.898 85.6281 186.057 85.8874C186.216 86.1466 186.316 86.4377 186.35 86.74C186.415 87.6294 186.167 88.5136 185.65 89.24C185.103 90.1329 184.429 90.9413 183.65 91.64C182.228 92.9217 180.51 93.829 178.65 94.28C177.897 94.514 177.103 94.5889 176.32 94.5C176.32 94.4 177.2 94.36 178.55 93.93C180.302 93.3947 181.916 92.4835 183.28 91.26C184.03 90.5931 184.691 89.8337 185.25 89C185.731 88.364 185.991 87.5877 185.99 86.79C185.973 86.5265 185.905 86.2688 185.788 86.032C185.671 85.7951 185.509 85.5837 185.31 85.41C185 85.17 184.79 85.12 184.8 85.08Z" fill="#455A64"/>
<path d="M156.68 179.57L159.79 156.83L115.1 165.83L74.4299 151.7L63.4399 163L106.72 185.29C110.58 187.133 114.93 187.691 119.13 186.88L156.68 179.57Z" fill="#FFBE9D"/>
<path d="M74.4299 151.7C74.4299 151.7 58.8799 144.26 57.8799 144C57.1099 143.8 45.3699 143.18 40.0199 142.9C39.6006 142.896 39.1951 143.05 38.8831 143.33C38.5711 143.61 38.3752 143.997 38.3339 144.414C38.2925 144.832 38.4087 145.249 38.6596 145.585C38.9106 145.921 39.2781 146.151 39.6899 146.23H39.8899C42.8899 146.48 49.4499 147.98 49.4499 147.98L46.4499 154.98C46.3045 155.327 46.2797 155.712 46.3794 156.075C46.4791 156.438 46.6976 156.756 46.9999 156.98L56.0499 163.67C57.2349 164.209 58.5409 164.426 59.8365 164.299C61.132 164.173 62.3714 163.708 63.4299 162.95L67.4299 163.77L74.4299 151.7Z" fill="#FFBE9D"/>
<path d="M46.4199 155.42C46.6999 156.73 49.8199 159.42 52.1899 159.42C52.7126 159.429 53.2207 159.247 53.6199 158.91C53.8094 158.733 53.9419 158.503 54.0007 158.25C54.0595 157.997 54.0418 157.733 53.9499 157.49C53.783 157.191 53.5463 156.937 53.2599 156.75L47.9999 152.62" fill="#FFBE9D"/>
<path d="M47.9999 152.62C48.7837 153.039 49.524 153.535 50.2099 154.1L52.5199 155.83C52.9599 156.17 53.3999 156.46 53.8799 156.9C54.0179 157.028 54.1289 157.183 54.2061 157.354C54.2834 157.526 54.3255 157.712 54.3299 157.9C54.331 158.263 54.2075 158.616 53.9799 158.9C53.7501 159.159 53.4636 159.361 53.1427 159.491C52.8218 159.621 52.4752 159.676 52.1299 159.65C51.5321 159.619 50.9452 159.477 50.3999 159.23C49.4945 158.84 48.6599 158.303 47.9299 157.64C47.432 157.201 47.0038 156.688 46.6599 156.12C46.4299 155.7 46.4199 155.42 46.4499 155.42C46.4799 155.42 46.5599 155.65 46.8299 156.01C47.2208 156.512 47.6707 156.965 48.1699 157.36C48.8989 157.952 49.7109 158.434 50.5799 158.79C51.0783 158.999 51.61 159.117 52.1499 159.14C52.4136 159.16 52.6783 159.12 52.9242 159.023C53.1702 158.926 53.3909 158.774 53.5699 158.58C53.7303 158.397 53.8187 158.163 53.8187 157.92C53.8187 157.677 53.7303 157.442 53.5699 157.26C53.1899 156.9 52.6799 156.55 52.2799 156.26L49.9999 154.39C49.2717 153.873 48.6012 153.28 47.9999 152.62Z" fill="#EB996E"/>
<path d="M58.9998 159.46C58.9998 159.46 58.6498 159.28 58.3298 158.78C57.912 158.116 57.6773 157.354 57.6498 156.57C57.6095 155.792 57.7715 155.017 58.1198 154.32C58.3998 153.79 58.6798 153.54 58.7298 153.58C58.3921 154.546 58.2033 155.557 58.1698 156.58C58.2967 157.577 58.5767 158.548 58.9998 159.46Z" fill="#EB996E"/>
<path d="M52.7599 155.87C52.9757 156.277 53.3251 156.596 53.7493 156.775C54.1734 156.954 54.6462 156.981 55.088 156.852C55.5298 156.723 55.9135 156.445 56.1744 156.066C56.4352 155.686 56.5573 155.229 56.5199 154.77C56.4308 154.213 56.2287 153.679 55.9261 153.203C55.6234 152.727 55.2265 152.317 54.7599 152L50.8699 148.48" fill="#FFBE9D"/>
<path d="M50.8699 148.44C51.4597 148.784 52.0068 149.197 52.4999 149.67L54.1699 151.1C54.8981 151.676 55.568 152.323 56.1699 153.03C56.4795 153.434 56.6855 153.908 56.7699 154.41C56.8488 154.896 56.7569 155.394 56.5099 155.82C56.3179 156.181 56.0289 156.48 55.6754 156.685C55.322 156.89 54.9183 156.992 54.5099 156.98C53.9746 156.954 53.4681 156.73 53.0899 156.35C52.8299 156.08 52.7699 155.88 52.7899 155.87C52.8099 155.86 52.9499 156 53.2199 156.2C53.5979 156.473 54.0538 156.616 54.5199 156.61C54.8471 156.599 55.1654 156.5 55.4415 156.324C55.7177 156.149 55.9416 155.902 56.0899 155.61C56.2587 155.241 56.3165 154.831 56.2561 154.429C56.1958 154.028 56.0199 153.653 55.7499 153.35C55.175 152.68 54.5498 152.055 53.8799 151.48L52.2799 149.96C51.743 149.52 51.2686 149.008 50.8699 148.44Z" fill="#EB996E"/>
<path d="M59.4299 147.85C56.2923 148.6 53.2968 149.853 50.5599 151.56C50.3848 151.645 50.2464 151.791 50.1699 151.97C50.0899 152.23 50.2899 152.48 50.4999 152.65C51.3616 153.233 52.4106 153.472 53.4399 153.32C54.4534 153.159 55.4749 153.052 56.4999 153C58.2799 153 59.9199 153.89 61.6399 154.37C63.3599 154.85 65.4399 154.83 66.6399 153.49" fill="#FFBE9D"/>
<path d="M66.62 153.49C66.62 153.49 66.62 153.59 66.46 153.73C66.2704 153.935 66.0514 154.11 65.81 154.25C64.8943 154.749 63.841 154.935 62.81 154.78C61.3418 154.527 59.9017 154.132 58.51 153.6C57.7047 153.349 56.8631 153.234 56.02 153.26C55.14 153.31 54.23 153.53 53.23 153.59C52.2327 153.707 51.2263 153.466 50.39 152.91C50.1471 152.755 49.9693 152.517 49.89 152.24C49.8507 152.066 49.8793 151.884 49.97 151.73C50.049 151.611 50.151 151.509 50.27 151.43C50.66 151.18 51.02 150.98 51.39 150.77C52.6698 150.038 54.0077 149.413 55.39 148.9C56.3275 148.55 57.2861 148.26 58.26 148.03C58.6136 147.921 58.9802 147.861 59.35 147.85C59.35 147.94 57.84 148.29 55.52 149.24C54.1649 149.798 52.8487 150.446 51.58 151.18C51.23 151.39 50.85 151.62 50.51 151.84C50.35 151.96 50.3 152.03 50.33 152.13C50.3884 152.285 50.4977 152.415 50.64 152.5C51.3855 152.975 52.2726 153.176 53.15 153.07C54.08 153.01 55.01 152.8 55.94 152.76C56.8419 152.734 57.7416 152.862 58.6 153.14C59.9619 153.683 61.3668 154.111 62.8 154.42C63.7563 154.584 64.7396 154.466 65.63 154.08C65.9709 153.902 66.3014 153.705 66.62 153.49Z" fill="#EB996E"/>
<path d="M115.79 173.67C114.919 171.086 114.839 168.3 115.56 165.67C115.71 165.67 115.56 167.49 115.56 169.67C115.56 171.85 115.94 173.64 115.79 173.67Z" fill="#EB996E"/>
<path d="M154.9 146.28L142.22 160.57C142.22 160.57 135.44 209.92 134.96 213.8C134.48 217.68 133.19 230.06 133.19 233.45C133.19 236.84 130.38 261.07 130.38 261.07C130.38 261.07 184.19 272.25 193.2 261.07L190.39 240.32L192.83 188.85C192.83 188.85 196.83 153.12 178.03 144.85C178 144.83 166.12 152 154.9 146.28Z" fill="#BA68C8"/>
<path d="M186.67 149.89C186.67 149.89 182.96 146.23 171.1 149.3C158.61 152.53 152.02 164.22 155.1 197.3C157.66 224.6 168.45 228.52 168.45 228.52C168.45 228.52 162.54 187.35 163.56 170.13C164.84 148.38 186.65 153.79 186.65 153.79C189.77 152.81 186.67 149.89 186.67 149.89Z" fill="#263238"/>
<path d="M154.9 146.28L143.94 149.3L119.28 164.4L126.3 186.7L140.78 185.11L154.9 146.28Z" fill="#BA68C8"/>
<path d="M140.63 161.76C140.78 161.76 140.15 169.76 139.24 179.56C138.33 189.36 137.47 197.34 137.33 197.32C137.19 197.3 137.81 189.32 138.72 179.52C139.63 169.72 140.49 161.75 140.63 161.76Z" fill="#263238"/>
<path d="M190.83 231.07C190.83 231.07 187.33 242.32 174.96 223.74C162.59 205.16 164.32 213.47 164.32 213.47L161.79 216.47C161.79 216.47 175.4 247.12 190.67 242.32L190.83 231.07Z" fill="#263238"/>
<path opacity="0.3" d="M140.13 167.12L130.38 186.25L138.44 185.37L140.13 167.12Z" fill="black"/>
<g opacity="0.3">
<path d="M135.66 217.91C142.836 225.72 151.311 232.226 160.71 237.14C164.64 239.2 168.99 241.01 173.39 240.44C178.23 239.82 182.39 236.32 184.66 232.01C186.93 227.7 186.66 225.62 187.17 220.78C187.77 215.44 187.77 208.31 188.05 203.44C188.05 202.58 188.11 201.58 188.11 200.63C188.11 199.601 188.442 198.6 189.056 197.775C189.67 196.95 190.534 196.345 191.52 196.05C191.52 196.05 188.52 194.66 186.59 194.94C184.66 195.22 183.12 196.87 182.09 198.57C176.6 207.62 178.99 220.89 168.52 226.57C165.059 228.339 161.113 228.919 157.29 228.22C148.72 226.82 142.16 221.22 135.84 215.7" fill="black"/>
</g>
<path d="M147.5 199.18C150.123 199.18 152.25 192.786 152.25 184.9C152.25 177.013 150.123 170.62 147.5 170.62C144.877 170.62 142.75 177.013 142.75 184.9C142.75 192.786 144.877 199.18 147.5 199.18Z" fill="#FAFAFA"/>
<path d="M150 433.26L151.09 456.77C151.09 456.77 127.56 465.77 127.33 470.14L172.99 469.67L172.8 432.97L150 433.26Z" fill="#BA68C8"/>
<g opacity="0.6">
<path d="M165.23 454.65C165.669 454.78 166.044 455.067 166.286 455.456C166.527 455.845 166.618 456.309 166.54 456.76C166.426 457.205 166.146 457.59 165.757 457.835C165.369 458.081 164.901 458.168 164.45 458.08C163.986 457.936 163.59 457.629 163.336 457.215C163.082 456.801 162.988 456.309 163.07 455.83C163.24 455.379 163.576 455.01 164.009 454.8C164.443 454.589 164.941 454.554 165.4 454.7" fill="white"/>
</g>
<path opacity="0.6" d="M173 469.67V466.01L129.14 467.81C129.14 467.81 127.14 468.71 127.36 470.14L173 469.67Z" fill="white"/>
<path d="M150.38 456.55C150.38 456.77 151.51 456.86 152.61 457.55C153.71 458.24 154.31 459.18 154.52 459.09C154.73 459 154.38 457.72 153.02 456.89C151.66 456.06 150.33 456.34 150.38 456.55Z" fill="#263238"/>
<path d="M145.62 458.58C145.57 458.8 146.54 459.17 147.3 460.1C148.06 461.03 148.3 462.03 148.52 462.02C148.74 462.01 148.87 460.74 147.9 459.6C146.93 458.46 145.62 458.37 145.62 458.58Z" fill="#263238"/>
<path d="M143 464.34C143.2 464.34 143.5 463.27 142.91 462.05C142.32 460.83 141.28 460.36 141.19 460.55C141.1 460.74 141.75 461.38 142.19 462.39C142.63 463.4 142.73 464.32 143 464.34Z" fill="#263238"/>
<path d="M150.73 451.16C150.83 451.37 151.85 451.05 153.11 451.16C154.37 451.27 155.35 451.62 155.47 451.43C155.59 451.24 154.63 450.43 153.14 450.38C151.65 450.33 150.62 451 150.73 451.16Z" fill="#263238"/>
<path opacity="0.3" d="M150.26 437.92L150.45 442.11L172.89 441.67L172.88 437.89L150.26 437.92Z" fill="black"/>
<path d="M150.6 446.42C151.349 446.626 152.14 446.626 152.89 446.42C153.71 446.261 154.509 446.006 155.27 445.66C155.722 445.452 156.159 445.215 156.58 444.95C156.829 444.8 157.058 444.619 157.26 444.41C157.401 444.248 157.486 444.044 157.502 443.83C157.518 443.615 157.465 443.402 157.35 443.22C157.236 443.062 157.085 442.935 156.911 442.847C156.737 442.76 156.544 442.717 156.35 442.72C156.058 442.717 155.768 442.761 155.49 442.85C155.004 442.968 154.532 443.136 154.08 443.35C153.309 443.701 152.6 444.174 151.98 444.75C150.93 445.75 150.58 446.58 150.66 446.63C150.74 446.68 151.27 445.99 152.34 445.17C152.956 444.699 153.628 444.306 154.34 444C154.766 443.83 155.204 443.69 155.65 443.58C156.13 443.45 156.55 443.45 156.65 443.66C156.75 443.87 156.65 443.77 156.6 443.92C156.455 444.076 156.286 444.207 156.1 444.31C155.713 444.569 155.313 444.806 154.9 445.02C154.195 445.376 153.458 445.668 152.7 445.89C151.988 446.018 151.287 446.195 150.6 446.42Z" fill="#263238"/>
<path d="M150.89 446.73C151.322 446.077 151.525 445.3 151.47 444.52C151.503 443.673 151.388 442.827 151.13 442.02C150.982 441.54 150.784 441.078 150.54 440.64C150.414 440.339 150.213 440.076 149.955 439.877C149.697 439.677 149.393 439.547 149.07 439.5C148.865 439.496 148.664 439.556 148.494 439.67C148.324 439.785 148.194 439.949 148.12 440.14C148.003 440.407 147.925 440.69 147.89 440.98C147.809 441.49 147.809 442.01 147.89 442.52C148.024 443.377 148.368 444.187 148.89 444.88C149.79 446.05 150.73 446.31 150.74 446.23C150.75 446.15 150.04 445.7 149.34 444.57C148.941 443.919 148.688 443.188 148.6 442.43C148.541 441.989 148.541 441.541 148.6 441.1C148.67 440.62 148.85 440.22 149.03 440.27C149.21 440.32 149.65 440.63 149.84 441.01C150.07 441.405 150.264 441.82 150.42 442.25C150.678 442.982 150.832 443.746 150.88 444.52C151 445.86 150.77 446.7 150.89 446.73Z" fill="#263238"/>
<path d="M194.28 419L212.74 433.59C212.74 433.59 204.11 457.26 207.26 460.29L236.84 425.51L209 401.58L194.28 419Z" fill="#BA68C8"/>
<g opacity="0.6">
<path d="M220.38 421.55C220.766 421.301 221.231 421.204 221.684 421.276C222.138 421.348 222.549 421.584 222.84 421.94C223.101 422.317 223.208 422.78 223.139 423.233C223.07 423.687 222.831 424.097 222.47 424.38C222.058 424.635 221.567 424.733 221.089 424.654C220.611 424.575 220.178 424.325 219.87 423.95C219.635 423.528 219.574 423.031 219.699 422.564C219.824 422.098 220.126 421.698 220.54 421.45" fill="white"/>
</g>
<path opacity="0.6" d="M236.84 425.5L234.07 423.11L206.66 457.41C206.66 457.41 206.02 459.53 207.26 460.28L236.84 425.5Z" fill="white"/>
<path d="M212.08 434C212.26 434.14 213.08 433.35 214.32 433C215.56 432.65 216.67 432.79 216.73 432.58C216.79 432.37 215.6 431.78 214.09 432.26C212.58 432.74 211.9 433.9 212.08 434Z" fill="#263238"/>
<path d="M210.49 438.93C210.62 439.11 211.49 438.62 212.75 438.65C214.01 438.68 214.86 439.17 214.99 438.99C215.12 438.81 214.26 437.89 212.76 437.88C211.26 437.87 210.33 438.79 210.49 438.93Z" fill="#263238"/>
<path d="M213.09 444.71C213.26 444.59 212.61 443.63 211.31 443.28C210.01 442.93 208.97 443.4 209.05 443.59C209.13 443.78 210.05 443.72 211.11 444.03C212.17 444.34 212.93 444.87 213.09 444.71Z" fill="#263238"/>
<path d="M208.25 430.2C208.46 430.26 208.89 429.29 209.77 428.38C210.65 427.47 211.59 426.99 211.52 426.77C211.45 426.55 210.23 426.77 209.21 427.85C208.19 428.93 208 430.17 208.25 430.2Z" fill="#263238"/>
<path opacity="0.3" d="M197.94 421.87L201.23 424.48L215.61 407.25L212.75 404.78L197.94 421.87Z" fill="black"/>
<path d="M204.58 427.19C204.64 427.25 205.32 426.67 206.05 425.44C206.475 424.717 206.811 423.944 207.05 423.14C207.187 422.664 207.294 422.179 207.37 421.69C207.412 421.401 207.412 421.108 207.37 420.82C207.34 420.607 207.242 420.409 207.091 420.256C206.94 420.103 206.743 420.002 206.53 419.97C206.343 419.958 206.156 419.988 205.982 420.059C205.809 420.13 205.654 420.24 205.53 420.38C205.34 420.6 205.181 420.846 205.06 421.11C204.84 421.561 204.656 422.029 204.51 422.51C204.276 423.325 204.171 424.172 204.2 425.02C204.149 425.798 204.337 426.573 204.74 427.24C204.87 427.24 204.67 426.37 204.74 425.02C204.817 423.776 205.158 422.562 205.74 421.46C205.96 421.01 206.22 420.7 206.46 420.74C206.7 420.78 206.58 420.74 206.63 420.94C206.658 421.156 206.658 421.374 206.63 421.59C206.566 422.047 206.48 422.501 206.37 422.95C206.178 423.72 205.913 424.47 205.58 425.19C205.193 425.829 204.859 426.497 204.58 427.19Z" fill="#263238"/>
<path d="M205 427.18C205.07 427.18 204.75 426.28 203.71 425.29C203.09 424.711 202.377 424.241 201.6 423.9C201.136 423.699 200.654 423.545 200.16 423.44C199.85 423.34 199.52 423.321 199.201 423.386C198.882 423.451 198.586 423.597 198.34 423.81C198.212 423.968 198.13 424.158 198.106 424.36C198.081 424.561 198.114 424.766 198.2 424.95C198.329 425.212 198.494 425.454 198.69 425.67C199.028 426.06 199.422 426.397 199.86 426.67C200.594 427.125 201.428 427.396 202.29 427.46C203.77 427.54 204.58 427.01 204.53 426.94C203.807 426.991 203.082 426.991 202.36 426.94C201.605 426.813 200.886 426.527 200.25 426.1C199.877 425.851 199.54 425.552 199.25 425.21C198.93 424.84 198.75 424.45 198.9 424.34C199.063 424.244 199.244 424.184 199.432 424.163C199.62 424.143 199.81 424.162 199.99 424.22C200.436 424.306 200.874 424.43 201.3 424.59C202.015 424.878 202.688 425.261 203.3 425.73C204.42 426.52 204.9 427.25 205 427.18Z" fill="#263238"/>
<path d="M143.09 333.8C143.09 333.8 144.31 277.64 143.09 277.64C141.87 277.64 133.21 272.7 133.21 272.7L122.39 356.15C122.39 356.15 121.39 365.52 133.01 372.15C144.63 378.78 196.44 424.84 196.44 424.84L214 403.45C214 403.45 179.89 367.9 166 356.15C155 347 143.09 333.8 143.09 333.8Z" fill="#263238"/>
<path d="M174.86 320.71L176.05 311.82C176.05 311.82 184.59 293.82 185.81 286.16C187.03 278.5 186.23 261.9 186.23 261.9H132.28C132.28 261.9 132.51 322.81 139.02 339.9C139.02 339.9 142.32 372.6 142.81 375.34C143.81 381.16 147.44 440.7 147.44 440.7L174.64 439.7C174.64 439.7 177 384.96 175.11 369.42C174.18 361.72 173.74 353.52 173.53 346.74C173.274 338.042 173.718 329.337 174.86 320.71Z" fill="#263238"/>
<path d="M133.75 279.67C133.76 279.756 133.76 279.844 133.75 279.93C133.75 280.14 133.75 280.4 133.8 280.72C133.8 281.45 133.88 282.47 133.94 283.72C134.04 286.35 134.24 290.16 134.51 294.86C135.05 304.26 136.06 317.23 137.51 331.52C138.96 345.81 140.59 358.72 141.74 368.07C142.31 372.71 142.74 376.48 143.09 379.14C143.24 380.42 143.36 381.42 143.44 382.14C143.44 382.46 143.5 382.72 143.52 382.93C143.54 383.14 143.52 383.2 143.52 383.2C143.487 383.116 143.464 383.029 143.45 382.94L143.33 382.16L142.88 379.16C142.52 376.51 142 372.74 141.36 368.11C140.12 358.77 138.47 345.86 136.98 331.56C135.49 317.26 134.55 304.28 134.1 294.87C133.87 290.16 133.74 286.35 133.7 283.72C133.7 282.43 133.7 281.42 133.65 280.72V279.94C133.674 279.847 133.707 279.756 133.75 279.67Z" fill="#455A64"/>
<path d="M173.48 351.76C173.557 352.049 173.611 352.343 173.64 352.64C173.72 353.26 173.84 354.11 173.99 355.18C174.26 357.4 174.6 360.61 174.91 364.58C175.55 372.53 176.03 383.58 176.21 395.7C176.39 407.82 176.21 418.89 175.73 426.85C175.53 430.85 175.27 434.05 175.06 436.27C174.94 437.34 174.84 438.19 174.77 438.82C174.749 439.12 174.705 439.417 174.64 439.71C174.613 439.411 174.613 439.109 174.64 438.81C174.69 438.18 174.75 437.33 174.83 436.25C174.98 434.03 175.18 430.81 175.34 426.83C175.67 418.88 175.81 407.83 175.66 395.71C175.51 383.59 175.06 372.55 174.51 364.61C174.25 360.61 173.97 357.42 173.76 355.2C173.65 354.13 173.56 353.28 173.5 352.65C173.469 352.354 173.462 352.057 173.48 351.76Z" fill="#455A64"/>
<path d="M184.09 148.64C184.09 148.64 192.92 150.99 194.8 164.15C196.68 177.31 193.2 181.07 193.2 181.07C193.2 181.07 194.63 156.57 183.66 153.23L184.09 149.12" fill="#263238"/>
<path d="M123.93 191.62L78.3499 190.73L78.8799 192.94L123.71 193.6L123.93 191.62Z" fill="#263238"/>
<path d="M179.2 152.77C177.49 152.353 175.691 152.511 174.08 153.22C170.39 154.77 163.63 159.22 163.15 171.86L162.37 192.23L191.52 196.05C191.52 196.05 194 156.71 179.2 152.77Z" fill="#BA68C8"/>
<path d="M125.55 195.93L162.55 207.05L163.1 192.17L185.24 195.39L184 219.59C183.874 223.043 182.617 226.36 180.421 229.029C178.226 231.697 175.214 233.571 171.85 234.36C167.981 235.264 163.913 234.675 160.46 232.71L121.19 210.38L125.55 195.93Z" fill="#FFBE9D"/>
<path d="M191.52 196.05C191.52 196.05 191.52 195.92 191.52 195.7C191.52 195.48 191.52 195.12 191.47 194.7C191.47 193.81 191.4 192.56 191.34 190.96C191.24 187.71 191.09 183.07 190.91 177.34C190.82 174.48 190.73 171.34 190.64 167.98C190.64 167.14 190.59 166.28 190.56 165.41C190.56 164.99 190.48 164.56 190.43 164.12C190.38 163.68 190.28 163.26 190.16 162.83C189.423 160.041 187.813 157.56 185.566 155.75C183.319 153.94 180.552 152.896 177.67 152.77C175.6 152.75 173.568 153.33 171.82 154.44C170.015 155.59 168.474 157.11 167.3 158.9C165.623 161.474 164.49 164.363 163.97 167.39C163.459 170.291 163.155 173.226 163.06 176.17C162.9 181.91 162.75 187.31 162.61 192.22L162.42 191.99L183.49 194.87L189.41 195.7L191 196L189.47 195.83L183.58 195.11L162.33 192.45H162.14V192.25C162.26 187.33 162.35 181.94 162.54 176.19C162.62 173.219 162.917 170.258 163.43 167.33C163.959 164.234 165.12 161.279 166.84 158.65C168.055 156.798 169.65 155.227 171.52 154.04C173.35 152.876 175.481 152.271 177.65 152.3C179.682 152.387 181.67 152.917 183.475 153.853C185.28 154.789 186.859 156.109 188.1 157.72C189.26 159.199 190.105 160.901 190.58 162.72C190.69 163.16 190.76 163.61 190.85 164.06C190.94 164.51 190.94 164.95 190.98 165.4C190.98 166.27 190.98 167.14 191.04 167.99C191.11 171.39 191.17 174.56 191.23 177.45C191.33 183.19 191.41 187.84 191.47 191.09C191.47 192.66 191.47 193.9 191.52 194.77V195.77C191.529 195.863 191.529 195.957 191.52 196.05Z" fill="#263238"/>
<path d="M126.3 196.37L117.42 189.8C115.8 188.6 113.28 188.8 111.27 188.67C107.27 188.31 100.74 190.67 100.49 191.13L103.17 193.27L85.9099 192.74C86.5022 193.915 87.4016 194.907 88.5127 195.611C89.6237 196.315 90.9049 196.706 92.2199 196.74C92.2199 196.74 92.7699 200.64 97.7799 201.38C97.7799 201.38 99.0799 204.54 101.87 205.46C101.87 205.46 102.42 208.99 106.87 208.8L122 210.49L126.3 196.37Z" fill="#FFBE9D"/>
<path d="M103 197.35C101.179 197.509 99.3469 197.488 97.5299 197.29C95.7051 197.277 93.8861 197.083 92.0999 196.71C93.9179 196.563 95.7455 196.583 97.5599 196.77C99.3871 196.796 101.208 196.99 103 197.35Z" fill="#EB996E"/>
<path d="M107.38 201.51C105.8 201.767 104.198 201.854 102.6 201.77C101.002 201.854 99.3994 201.767 97.8198 201.51C99.3987 201.247 101.002 201.16 102.6 201.25C104.198 201.16 105.801 201.247 107.38 201.51Z" fill="#EB996E"/>
<path d="M112.07 205.43C110.491 205.692 108.888 205.78 107.29 205.69C105.695 205.78 104.096 205.693 102.52 205.43C104.096 205.173 105.695 205.086 107.29 205.17C108.888 205.086 110.49 205.173 112.07 205.43Z" fill="#EB996E"/>
<path d="M165 214.6C164.27 213.481 163.717 212.257 163.36 210.97C162.824 209.744 162.486 208.441 162.36 207.11C162.969 208.286 163.455 209.523 163.81 210.8C164.34 212.021 164.739 213.295 165 214.6Z" fill="#EB996E"/>
<path d="M167.63 213.16C166.602 212.208 165.668 211.16 164.84 210.03C163.877 209.017 163.016 207.912 162.27 206.73C163.418 207.57 164.43 208.582 165.27 209.73C166.22 210.752 167.015 211.907 167.63 213.16Z" fill="#EB996E"/>
</svg>
